<svg xmlns="http://www.w3.org/2000/svg" width="18.74" height="18.613" viewBox="0 0 18.74 18.613">
  <g id="next" transform="translate(-2.019 -2.071)">
    <path id="Path_14253" data-name="Path 14253" d="M98.394,140.308a.324.324,0,0,0-.458.458l1.719,1.719.734.734H93.872a.325.325,0,1,0,0,.65h6.513l-2.453,2.453a.323.323,0,0,0,0,.458.319.319,0,0,0,.231.094.333.333,0,0,0,.231-.094l3-3a.322.322,0,0,0,.094-.231.335.335,0,0,0-.094-.231Zm0,0" transform="translate(-86.505 -132.165)" fill="#2a7818" stroke="#2a7818" stroke-width="1"/>
    <path id="Path_14254" data-name="Path 14254" d="M8.808-.074a8.807,8.807,0,1,0,6.227,2.581A8.806,8.806,0,0,0,8.808-.074Zm0,16.8A7.988,7.988,0,1,1,16.8,8.733,8,8,0,0,1,8.808,16.721Zm0,0" transform="translate(2.646 2.646)" fill="#2a7818" stroke="#2a7818" stroke-width="1"/>
  </g>
</svg>
