<svg xmlns="http://www.w3.org/2000/svg" width="66" height="66" viewBox="0 0 66 66"><g id="play-button" transform="translate(4 -8)"><g id="Group_344" data-name="Group 344" transform="translate(-4 8)"><path id="Path_14240" data-name="Path 14240" d="M223.193,165.932,205,153.487a1.4,1.4,0,0,0-2.2,1.158v24.891a1.4,1.4,0,0,0,2.2,1.158l18.2-12.446A1.4,1.4,0,0,0,223.193,165.932Zm-17.578,10.951V157.3l14.291,9.792Z" transform="translate(-176.966 -134.091)" fill="#fff"></path><path id="Path_14241" data-name="Path 14241" d="M44,11A33,33,0,1,0,77,44,33.036,33.036,0,0,0,44,11Zm0,63.185A30.185,30.185,0,1,1,74.185,44,30.214,30.214,0,0,1,44,74.185Z" transform="translate(-11 -11)" fill="#fff"></path></g></g></svg>