<svg xmlns="http://www.w3.org/2000/svg" width="58" height="58" viewBox="0 0 58 58" fill="none"><path d="M29.0072 0H28.9928C13.0029 0 0 13.0065 0 29C0 35.3438 2.0445 41.2235 5.52088 45.9976L1.90675 56.7711L13.0536 53.2078C17.6393 56.2455 23.1094 58 29.0072 58C44.9971 58 58 44.9899 58 29C58 13.0101 44.9971 0 29.0072 0Z" fill="#4CAF50"></path><path d="M45.8816 40.9517C45.182 42.9273 42.4052 44.5658 40.1904 45.0443C38.6751 45.3669 36.6959 45.6243 30.0331 42.862C21.5107 39.3313 16.0225 30.6712 15.5948 30.1093C15.1851 29.5474 12.151 25.5237 12.151 21.3622C12.151 17.2007 14.2644 15.1743 15.1163 14.3043C15.8159 13.5902 16.9722 13.2639 18.0815 13.2639C18.4404 13.2639 18.763 13.282 19.053 13.2965C19.9049 13.3328 20.3326 13.3835 20.8945 14.7284C21.5941 16.414 23.2979 20.5755 23.5009 21.0033C23.7075 21.431 23.9141 22.011 23.6241 22.5729C23.3522 23.1529 23.113 23.4103 22.6852 23.9033C22.2575 24.3963 21.8515 24.7733 21.4237 25.3025C21.0322 25.7629 20.59 26.2559 21.083 27.1078C21.576 27.9415 23.2797 30.7219 25.7882 32.9549C29.0254 35.8368 31.6499 36.7575 32.5887 37.149C33.2884 37.439 34.1221 37.3702 34.6332 36.8264C35.2821 36.1268 36.0832 34.9668 36.8989 33.8249C37.4789 33.0057 38.2111 32.9042 38.9796 33.1942C39.7626 33.466 43.906 35.5142 44.7579 35.9383C45.6097 36.366 46.1716 36.569 46.3782 36.9279C46.5812 37.2868 46.5812 38.9724 45.8816 40.9517Z" fill="#FAFAFA"></path></svg>