<svg id="_001-science" data-name="001-science" xmlns="http://www.w3.org/2000/svg" width="50.58" height="58.404" viewBox="0 0 50.58 58.404">
  <g id="Group_324" data-name="Group 324">
    <path id="Path_14160" data-name="Path 14160" d="M384.094,133.971a3.076,3.076,0,1,0,3.076,3.076A3.079,3.079,0,0,0,384.094,133.971Zm0,4.448a1.372,1.372,0,1,1,1.372-1.372A1.374,1.374,0,0,1,384.094,138.419Z" transform="translate(-341.663 -118.758)"/>
    <path id="Path_14161" data-name="Path 14161" d="M82.208,133.252a3.076,3.076,0,1,0,3.076,3.076A3.079,3.079,0,0,0,82.208,133.252Zm0,4.448a1.372,1.372,0,1,1,1.372-1.372A1.374,1.374,0,0,1,82.208,137.7Z" transform="translate(-74.058 -118.12)"/>
    <path id="Path_14162" data-name="Path 14162" d="M223.945,218.107a3.749,3.749,0,1,0,3.749-3.748A3.753,3.753,0,0,0,223.945,218.107Zm5.794,0a2.045,2.045,0,1,1-2.045-2.045A2.047,2.047,0,0,1,229.739,218.107Z" transform="translate(-202.427 -190.017)"/>
    <path id="Path_14163" data-name="Path 14163" d="M231.721,394.388a3.076,3.076,0,1,0,3.076,3.076A3.079,3.079,0,0,0,231.721,394.388Zm0,4.448a1.372,1.372,0,1,1,1.372-1.372A1.374,1.374,0,0,1,231.721,398.836Z" transform="translate(-206.593 -349.603)"/>
    <path id="Path_14164" data-name="Path 14164" d="M120.477,77.759a27.878,27.878,0,0,1,6.181-1.56l-.184-1.693a29.049,29.049,0,0,0-6.276,1.548c-.652-3.556-2.382-10.292-6-10.292s-5.338,6.695-5.993,10.249a28.969,28.969,0,0,0-6.227-1.563l-.192,1.692a27.8,27.8,0,0,1,6.139,1.576c-.22,1.507-.382,3.1-.481,4.746-1.395.912-2.708,1.851-3.917,2.8a27.74,27.74,0,0,1-4.406-4.5l-1.37,1.013a28.9,28.9,0,0,0,4.435,4.583c-2.732,2.312-7.682,7.13-5.895,10.259s8.492,1.308,11.914.107a29.327,29.327,0,0,0,1.728,6.127l1.566-.671a28.151,28.151,0,0,1-1.674-6.059c1.417-.557,2.878-1.207,4.357-1.939,1.49.746,2.962,1.408,4.389,1.976a27.467,27.467,0,0,1-1.748,6.2l1.557.691a28.647,28.647,0,0,0,1.808-6.283c3.411,1.211,10.071,3.053,11.872-.066s-3.125-7.962-5.846-10.286a28.814,28.814,0,0,0,4.473-4.585l-1.367-1.017a27.655,27.655,0,0,1-4.442,4.5c-1.209-.957-2.524-1.906-3.921-2.828-.1-1.64-.258-3.225-.476-4.725Zm-1.311,3.588c-1-.611-1.992-1.188-3.065-1.77.929-.435,1.847-.835,2.745-1.2C118.977,79.337,119.084,80.328,119.166,81.347Zm.131,8c-1.664,1.056-3.388,2.039-5.114,2.923-1.692-.877-3.41-1.864-5.086-2.938-.091-1.965-.09-3.955,0-5.906,1.639-1.039,3.365-2.027,5.115-2.921,1.739.9,3.458,1.894,5.088,2.937C119.388,85.4,119.387,87.393,119.3,89.345Zm-8.542-16.692c1.165-3.824,2.542-5.187,3.442-5.187,1.373,0,2.679,2.68,3.442,5.187a34.224,34.224,0,0,1,.938,4.006c-1.417.557-2.882,1.207-4.361,1.937-1.49-.744-2.965-1.406-4.392-1.974a34.107,34.107,0,0,1,.931-3.969Zm-1.2,5.693c.906.369,1.833.778,2.772,1.223-1.017.545-2.027,1.119-3.1,1.77C109.311,80.31,109.42,79.31,109.553,78.345Zm-2.2,6.227c-.034,1.267-.032,2.445,0,3.594-.862-.6-1.686-1.2-2.465-1.806Q106.054,85.458,107.35,84.573Zm-3.371,11.611c-3.9.885-5.765.365-6.211-.417-.681-1.193,1-3.655,2.8-5.561a34.085,34.085,0,0,1,2.957-2.753c1.209.957,2.526,1.909,3.922,2.832.1,1.638.261,3.225.479,4.726A34.305,34.305,0,0,1,103.979,96.183Zm5.573-1.794c-.131-.955-.239-1.947-.322-2.965,1.068.656,2.031,1.208,3.064,1.769C111.367,93.628,110.45,94.027,109.552,94.389Zm6.514-1.187c1.05-.564,2.029-1.119,3.1-1.769-.084,1.029-.192,2.03-.325,2.993C117.931,94.056,117,93.647,116.066,93.2ZM127.81,90.27c2.73,2.921,3.221,4.795,2.771,5.574-.687,1.189-3.66.98-6.213.387a34.209,34.209,0,0,1-3.9-1.179c.22-1.506.383-3.1.484-4.748,1.394-.913,2.709-1.854,3.917-2.8A34.127,34.127,0,0,1,127.81,90.27Zm-4.3-3.865c-.779.6-1.6,1.2-2.466,1.789.032-1.153.035-2.328,0-3.594Q122.337,85.492,123.509,86.4Z" transform="translate(-88.93 -58.294)"/>
    <path id="Path_14165" data-name="Path 14165" d="M36.153,15.585,59.74,1.967,71.321,8.652l.852-1.475L59.74,0,34.45,14.6V43.8l11.2,6.468.852-1.475L36.153,42.82Z" transform="translate(-34.45 0)"/>
    <path id="Path_14166" data-name="Path 14166" d="M172.759,70.785l-.852,1.475,10.515,6.071v27.235l-23.587,13.618L147.092,112.4l-.852,1.475,12.6,7.273,25.29-14.6v-29.2Z" transform="translate(-133.545 -62.747)"/>
  </g>
  <g id="Group_327" data-name="Group 327" transform="translate(4.114 28.351)">
    <g id="Group_325" data-name="Group 325" transform="translate(40.664)">
      <path id="Path_14167" data-name="Path 14167" d="M428.775,249.66h1.7v1.7h-1.7Z" transform="translate(-428.775 -249.66)"/>
    </g>
    <g id="Group_326" data-name="Group 326" transform="translate(0)">
      <path id="Path_14168" data-name="Path 14168" d="M70.68,249.66h1.7v1.7h-1.7Z" transform="translate(-70.68 -249.66)"/>
    </g>
  </g>
</svg>
