<svg id="_002-energy-management" data-name="002-energy-management" xmlns="http://www.w3.org/2000/svg" width="54.715" height="57.088" viewBox="0 0 54.715 57.088">
  <g id="Group_328" data-name="Group 328">
    <path id="Path_14169" data-name="Path 14169" d="M60.229,31.619a24.476,24.476,0,0,0,0-6.15l4.855-5.6a1.115,1.115,0,0,0,.123-1.288L60.231,9.962a1.114,1.114,0,0,0-1.177-.537L51.777,10.83a24.467,24.467,0,0,0-5.325-3.075l-2.422-7A1.115,1.115,0,0,0,42.976,0H33.023a1.115,1.115,0,0,0-1.054.751l-2.422,7a24.48,24.48,0,0,0-5.325,3.075l-7.277-1.4a1.115,1.115,0,0,0-1.177.537l-4.976,8.619a1.115,1.115,0,0,0,.123,1.288l4.855,5.6a24.482,24.482,0,0,0,0,6.149l-4.855,5.6a1.115,1.115,0,0,0-.123,1.288l4.976,8.619a1.114,1.114,0,0,0,1.177.537l7.277-1.405a24.466,24.466,0,0,0,5.326,3.075l2.422,7a1.115,1.115,0,0,0,1.054.751h9.953a1.115,1.115,0,0,0,1.054-.751l2.422-7a24.482,24.482,0,0,0,5.326-3.075l7.277,1.405a1.115,1.115,0,0,0,1.177-.537l4.976-8.619a1.115,1.115,0,0,0-.123-1.288ZM58.7,45.323l-7-1.351a1.115,1.115,0,0,0-.912.227A20.035,20.035,0,0,1,48.1,46.028l-.013.008a20.046,20.046,0,0,1-2.926,1.41,1.115,1.115,0,0,0-.653.676l-2.329,6.736H33.817l-2.329-6.736a1.114,1.114,0,0,0-.653-.676,20.045,20.045,0,0,1-2.926-1.41l-.013-.008A20.031,20.031,0,0,1,25.212,44.2a1.114,1.114,0,0,0-.912-.227l-7,1.351L13.12,38.079l4.669-5.385a1.115,1.115,0,0,0,.259-.9,20.018,20.018,0,0,1-.242-3.238v-.015a20.043,20.043,0,0,1,.242-3.24,1.115,1.115,0,0,0-.259-.9L13.12,19.009,17.3,11.765l7,1.351a1.114,1.114,0,0,0,.912-.227A20.035,20.035,0,0,1,27.9,11.06l.013-.008a20.049,20.049,0,0,1,2.926-1.41,1.115,1.115,0,0,0,.653-.676L33.817,2.23h8.364l2.329,6.736a1.115,1.115,0,0,0,.653.676,20.044,20.044,0,0,1,2.926,1.41l.013.008a20.055,20.055,0,0,1,2.684,1.829,1.114,1.114,0,0,0,.912.227l7-1.351,4.182,7.243L58.21,24.394a1.115,1.115,0,0,0-.259.9,20.031,20.031,0,0,1,.242,3.24v.015a20.027,20.027,0,0,1-.242,3.238,1.116,1.116,0,0,0,.259.9l4.669,5.385Z" transform="translate(-10.642 0)"/>
    <path id="Path_14170" data-name="Path 14170" d="M181.716,127.014h-8.508V116.582a1.122,1.122,0,0,0-2.1-.531l-9.742,17.969a1.126,1.126,0,0,0,.98,1.647h8.627v10.056a1.122,1.122,0,0,0,2.093.535l9.623-17.593a1.126,1.126,0,0,0-.978-1.65Zm-8.508,14.346v-6.809a1.115,1.115,0,0,0-1.115-1.115h-7.869l6.754-12.458v7.151a1.115,1.115,0,0,0,1.115,1.115h7.742Z" transform="translate(-144.448 -102.608)"/>
    <path id="Path_14171" data-name="Path 14171" d="M333.014,141.795h.783a1.115,1.115,0,0,0,0-2.23h-3.68A1.115,1.115,0,0,0,329,140.68v3.539a1.115,1.115,0,1,0,2.23,0v-1a11.93,11.93,0,0,1,1.837,17.048,1.115,1.115,0,1,0,1.713,1.428,14.16,14.16,0,0,0-1.767-19.9Z" transform="translate(-293.504 -124.004)"/>
    <path id="Path_14172" data-name="Path 14172" d="M111.36,165.709a1.115,1.115,0,0,0-1.115,1.115v.9a11.93,11.93,0,0,1,1.561-19.387,1.115,1.115,0,1,0-1.144-1.914,14.158,14.158,0,0,0-2.057,22.83h-.925a1.115,1.115,0,1,0,0,2.23h3.68a1.115,1.115,0,0,0,1.115-1.115v-3.539A1.115,1.115,0,0,0,111.36,165.709Z" transform="translate(-93.372 -129.952)"/>
    <path id="Path_14173" data-name="Path 14173" d="M331.457,350.366a1.114,1.114,0,1,0-.457,1.383A1.124,1.124,0,0,0,331.457,350.366Z" transform="translate(-293.78 -310.703)"/>
  </g>
</svg>
