<svg id="_003-save-money" data-name="003-save-money" xmlns="http://www.w3.org/2000/svg" width="52.133" height="59.173" viewBox="0 0 52.133 59.173">
  <path id="Path_14154" data-name="Path 14154" d="M190.264,161.459a.924.924,0,0,0-.333-.011,2.207,2.207,0,0,1-1.952-2.188.971.971,0,1,0-1.941,0,4.152,4.152,0,0,0,3.053,4v.971a.971.971,0,1,0,1.941,0v-.912a4.145,4.145,0,0,0-.849-8.2,2.2,2.2,0,1,1,2.2-2.2.971.971,0,0,0,1.941,0,4.152,4.152,0,0,0-3.3-4.057v-.883a.971.971,0,1,0-1.941,0v.943a4.144,4.144,0,0,0,1.092,8.143,2.2,2.2,0,0,1,.081,4.4Zm0,0" transform="translate(-163.51 -129.165)"/>
  <path id="Path_14155" data-name="Path 14155" d="M104.195,120.567a14.075,14.075,0,1,0,14.075-14.075A14.075,14.075,0,0,0,104.195,120.567Zm14.075-12.134a12.134,12.134,0,1,1-12.134,12.134A12.133,12.133,0,0,1,118.27,108.433Zm0,0" transform="translate(-91.597 -93.572)"/>
  <path id="Path_14156" data-name="Path 14156" d="M45.892,330.223l-7.6,3.592a6.193,6.193,0,0,0-5.28-3.258l-7.019-.193a7.413,7.413,0,0,1-3.19-.824l-.714-.37a12.6,12.6,0,0,0-11.669.012l.045-1.618a.971.971,0,0,0-.944-1l-7.7-.212a.97.97,0,0,0-1,.944L.36,344.19a.971.971,0,0,0,.944,1L9,345.4h.027a.971.971,0,0,0,.971-.944l.022-.808,2-1.071a3.43,3.43,0,0,1,2.56-.28l11.94,3.351.063.016a12.782,12.782,0,0,0,2.624.271,12.951,12.951,0,0,0,5.41-1.181.9.9,0,0,0,.12-.066l17.312-11.2a.971.971,0,0,0,.318-1.293,4.9,4.9,0,0,0-6.475-1.973ZM2.327,343.273l.411-14.95,5.756.158-.411,14.95Zm31.415-.254a11,11,0,0,1-6.73.751L15.1,340.428a5.367,5.367,0,0,0-4,.437l-1.022.547.273-9.94a10.669,10.669,0,0,1,10.839-.578l.714.37a9.374,9.374,0,0,0,4.029,1.041l7.019.193A4.257,4.257,0,0,1,37,335.891L26.547,335.6a.971.971,0,0,0-.054,1.941l11.538.318h.027a.971.971,0,0,0,.97-.944,6.16,6.16,0,0,0-.094-1.259l7.8-3.685.023-.011a2.966,2.966,0,0,1,3.354.47Zm0,0" transform="translate(-0.36 -286.76)"/>
  <path id="Path_14157" data-name="Path 14157" d="M214.144,10.191V.971a.971.971,0,0,0-1.941,0v9.221a.971.971,0,0,0,1.941,0Zm0,0" transform="translate(-186.501)"/>
  <path id="Path_14158" data-name="Path 14158" d="M274.144,45.338V40.971a.971.971,0,0,0-1.941,0v4.368a.971.971,0,0,0,1.941,0Zm0,0" transform="translate(-239.221 -35.147)"/>
  <path id="Path_14159" data-name="Path 14159" d="M154.144,45.338V40.971a.971.971,0,1,0-1.941,0v4.368a.971.971,0,0,0,1.941,0Zm0,0" transform="translate(-133.78 -35.147)"/>
</svg>
