<svg id="_004-dress" data-name="004-dress" xmlns="http://www.w3.org/2000/svg" width="45.608" height="59.431" viewBox="0 0 45.608 59.431">
  <g id="Group_340" data-name="Group 340">
    <g id="Group_339" data-name="Group 339" transform="translate(0)">
      <path id="Path_14184" data-name="Path 14184" d="M105.093,51.241a52.223,52.223,0,0,0-4.415-13.709,36.53,36.53,0,0,0-5.753-8.51,25.707,25.707,0,0,0-6.033-4.956A29.83,29.83,0,0,0,93.742,9.94a5.152,5.152,0,0,0-2.09-4.062V1.161a1.161,1.161,0,1,0-2.322,0V4.748a6.889,6.889,0,0,0-1.73-.22,6.362,6.362,0,0,0-5.27,2.637,6.361,6.361,0,0,0-5.27-2.637,6.89,6.89,0,0,0-1.736.222V1.161a1.161,1.161,0,1,0-2.322,0V5.883A5.152,5.152,0,0,0,70.921,9.94a29.833,29.833,0,0,0,4.857,14.138,25.736,25.736,0,0,0-6.012,4.944,36.534,36.534,0,0,0-5.753,8.51A52.22,52.22,0,0,0,59.6,51.241a3.344,3.344,0,0,0,2.134,3.753l3.976,1.468q.557.206,1.118.4l.037.012a48.023,48.023,0,0,0,10.369,2.287,1.166,1.166,0,0,0,.171.017,48,48,0,0,0,21.579-2.713l3.976-1.468A3.344,3.344,0,0,0,105.093,51.241ZM73.242,9.94a2.923,2.923,0,0,1,1.467-2.432,1.148,1.148,0,0,0,.117-.071,4.428,4.428,0,0,1,2.236-.587c2.013,0,3.688,1.273,3.812,2.9a1.462,1.462,0,0,0,2.916,0c.124-1.625,1.8-2.9,3.812-2.9a4.434,4.434,0,0,1,2.209.571,1.161,1.161,0,0,0,.164.1,2.916,2.916,0,0,1,1.447,2.418A28.514,28.514,0,0,1,86.59,23.346c-.057.086-.115.171-.173.257a9.371,9.371,0,0,1-2.786.845,10.345,10.345,0,0,0,.734-1.1,8.72,8.72,0,0,0,.819-1.9,1.161,1.161,0,1,0-2.228-.651,7.251,7.251,0,0,1-1.414,2.548,6.979,6.979,0,0,1-.706.74,1.156,1.156,0,0,0-.244.289,9.364,9.364,0,0,1-2.344-.772c-.059-.086-.116-.172-.173-.257A28.513,28.513,0,0,1,73.242,9.94Zm28.912,42.875-3.976,1.468c-.188.069-.377.135-.566.2a49.242,49.242,0,0,0-5.307-13.709A1.161,1.161,0,0,0,90.335,42c2.92,4.688,4.554,11.016,5.059,13.206a45.772,45.772,0,0,1-16.8,1.744,14.036,14.036,0,0,1,1.346-5.5,1.161,1.161,0,1,0-2.085-1.022,16.341,16.341,0,0,0-1.574,6.278,45.69,45.69,0,0,1-7.746-1.731c.575-3.285,2.834-14.271,8.2-20.427a1.161,1.161,0,0,0-1.75-1.525C69.362,39.469,67,50.338,66.3,54.207l-3.769-1.391a1.027,1.027,0,0,1-.655-1.153c2.012-10.9,6.272-17.413,9.491-20.957a22.659,22.659,0,0,1,6.1-4.9,11.7,11.7,0,0,0,9.744-.007c2.214,1.141,12.158,7.227,15.6,25.869A1.028,1.028,0,0,1,102.155,52.816Z" transform="translate(-59.541)"/>
    </g>
  </g>
  <g id="Group_342" data-name="Group 342" transform="translate(27.581 36.07)">
    <g id="Group_341" data-name="Group 341" transform="translate(0)">
      <path id="Path_14185" data-name="Path 14185" d="M299.45,311.679a1.175,1.175,0,0,0-.066-.217,1.154,1.154,0,0,0-.107-.2,1.112,1.112,0,0,0-.144-.176,1.17,1.17,0,0,0-1.047-.318,1.214,1.214,0,0,0-.218.067,1.179,1.179,0,0,0-.2.107,1.11,1.11,0,0,0-.176.144,1.183,1.183,0,0,0-.145.176,1.146,1.146,0,0,0-.107.2,1.17,1.17,0,0,0-.066.217,1.171,1.171,0,0,0,0,.453,1.17,1.17,0,0,0,.067.217,1.223,1.223,0,0,0,.106.2,1.178,1.178,0,0,0,.322.322,1.261,1.261,0,0,0,.2.106,1.124,1.124,0,0,0,.218.066,1.12,1.12,0,0,0,.453,0,1.086,1.086,0,0,0,.217-.066,1.231,1.231,0,0,0,.2-.106,1.185,1.185,0,0,0,.176-.145,1.111,1.111,0,0,0,.144-.176,1.151,1.151,0,0,0,.107-.2,1.18,1.18,0,0,0,.066-.217,1.118,1.118,0,0,0,0-.453Z" transform="translate(-297.152 -310.745)"/>
    </g>
  </g>
  <g id="Group_344" data-name="Group 344" transform="translate(24.537 16.617)">
    <g id="Group_343" data-name="Group 343" transform="translate(0)">
      <path id="Path_14186" data-name="Path 14186" d="M273.23,144.09a1.226,1.226,0,0,0-.066-.217,1.185,1.185,0,0,0-.107-.2,1.111,1.111,0,0,0-.144-.176,1.172,1.172,0,0,0-1.048-.318,1.229,1.229,0,0,0-.217.066,1.163,1.163,0,0,0-.628.628,1.229,1.229,0,0,0-.066.217,1.162,1.162,0,0,0-.022.228,1.149,1.149,0,0,0,.022.226,1.173,1.173,0,0,0,.066.217,1.2,1.2,0,0,0,.107.2,1.249,1.249,0,0,0,.145.176,1.111,1.111,0,0,0,.177.144,1.184,1.184,0,0,0,.2.107,1.239,1.239,0,0,0,.217.066,1.166,1.166,0,0,0,.228.023,1.143,1.143,0,0,0,.226-.023,1.182,1.182,0,0,0,.217-.066,1.156,1.156,0,0,0,.2-.107,1.108,1.108,0,0,0,.177-.144,1.16,1.16,0,0,0,.144-.176,1.2,1.2,0,0,0,.107-.2,1.165,1.165,0,0,0,.066-.217,1.142,1.142,0,0,0,.023-.226A1.164,1.164,0,0,0,273.23,144.09Z" transform="translate(-270.932 -143.157)"/>
    </g>
  </g>
</svg>
