<svg id="_005-paint-palette-and-brush" data-name="005-paint-palette-and-brush" xmlns="http://www.w3.org/2000/svg" width="55.636" height="49.983" viewBox="0 0 55.636 49.983">
  <path id="Path_14179" data-name="Path 14179" d="M49.4,206.219a4.545,4.545,0,0,0-2.806-.974,4.5,4.5,0,0,0-3.523,1.681,4.458,4.458,0,0,0,.715,6.3,4.543,4.543,0,0,0,2.806.975,4.5,4.5,0,0,0,3.523-1.683,4.458,4.458,0,0,0-.715-6.3Zm-.885,5.011a2.473,2.473,0,0,1-3.454.384,2.4,2.4,0,0,1-.389-3.4,2.476,2.476,0,0,1,3.455-.383,2.4,2.4,0,0,1,.388,3.4Z" transform="translate(-34.877 -172.94)"/>
  <path id="Path_14180" data-name="Path 14180" d="M168.456,106.114a4.5,4.5,0,0,0,4.251-3.009,4.42,4.42,0,0,0-.2-3.414,4.523,4.523,0,0,0-6.014-2.091,4.462,4.462,0,0,0-2.1,5.98A4.545,4.545,0,0,0,168.456,106.114Zm-2.327-5.271a2.413,2.413,0,0,1,1.249-1.389,2.469,2.469,0,0,1,3.282,1.135,2.382,2.382,0,0,1,.108,1.839,2.418,2.418,0,0,1-1.249,1.39,2.453,2.453,0,0,1-1.064.242,2.479,2.479,0,0,1-2.22-1.379A2.38,2.38,0,0,1,166.129,100.842Z" transform="translate(-135.877 -83.353)"/>
  <path id="Path_14181" data-name="Path 14181" d="M108.043,64.263a4.567,4.567,0,0,0,1,.112A4.479,4.479,0,0,0,113.44,60.9a4.432,4.432,0,0,0-.574-3.369,4.478,4.478,0,0,0-2.82-1.993,4.564,4.564,0,0,0-1.009-.114,4.475,4.475,0,0,0-4.388,3.48,4.421,4.421,0,0,0,.571,3.369A4.472,4.472,0,0,0,108.043,64.263Zm-1.392-4.9a2.431,2.431,0,0,1,2.386-1.887,2.509,2.509,0,0,1,.554.063,2.438,2.438,0,0,1,1.536,1.084,2.388,2.388,0,0,1,.311,1.815,2.464,2.464,0,0,1-2.391,1.885,2.513,2.513,0,0,1-.553-.062,2.432,2.432,0,0,1-1.536-1.083A2.382,2.382,0,0,1,106.65,59.362Z" transform="translate(-86.641 -48.761)"/>
  <path id="Path_14182" data-name="Path 14182" d="M41.927,83.406a4.462,4.462,0,0,0,.714-6.3,4.535,4.535,0,0,0-6.33-.708,4.459,4.459,0,0,0-.714,6.3,4.529,4.529,0,0,0,6.329.708Zm-4.728-2a2.4,2.4,0,0,1,.386-3.4,2.481,2.481,0,0,1,3.457.384,2.409,2.409,0,0,1-.39,3.4A2.475,2.475,0,0,1,37.2,81.41Z" transform="translate(-28.686 -65.341)"/>
  <path id="Path_14183" data-name="Path 14183" d="M55.243,24.527a1.356,1.356,0,0,0-.994-.392c-.586,0-2.142,0-11.595,8.043l-.574.49A25.2,25.2,0,0,0,18.5,16.512h0a24.729,24.729,0,0,0-11.759,3.38C2.393,22.448,0,25.866,0,29.517c0,4.407,2.487,6.251,4.484,7.732C6.113,38.457,7.4,39.41,7.4,41.5s-1.285,3.044-2.913,4.25c-2,1.48-4.482,3.323-4.48,7.73,0,3.65,2.4,7.069,6.745,9.627A24.748,24.748,0,0,0,18.516,66.5h.007a25.131,25.131,0,0,0,17.809-7.312,24.706,24.706,0,0,0,7.377-17.4c1.595-1.815,3.139-3.618,4.55-5.318,2.413-2.907,4.268-5.306,5.514-7.13C55.423,26.919,56.146,25.437,55.243,24.527Zm-20.357,33.2a23.089,23.089,0,0,1-16.363,6.717h-.007c-6.625,0-16.454-4.6-16.456-10.96,0-3.373,1.772-4.688,3.65-6.08,1.755-1.3,3.744-2.776,3.743-5.9s-1.991-4.6-3.746-5.9c-1.878-1.393-3.653-2.709-3.654-6.082,0-3.9,3.588-6.6,5.728-7.853a22.9,22.9,0,0,1,10.718-3.1h0A23.147,23.147,0,0,1,40.419,34.105c-4.455,3.89-9.278,8.374-12.871,11.978-5.967.772-6.78,4.749-7.374,7.67-.506,2.487-.834,3.69-2.754,3.844a1.027,1.027,0,0,0-.311,1.973A18.807,18.807,0,0,0,23.6,60.821h0A10.508,10.508,0,0,0,29.7,59.1a10.609,10.609,0,0,0,4.114-6.636c2.347-2.375,5.029-5.238,7.681-8.188A22.669,22.669,0,0,1,34.886,57.725Zm-3.138-5.456c-1.088,4.313-3.827,6.5-8.146,6.5h0a15.4,15.4,0,0,1-3.147-.349,8.269,8.269,0,0,0,1.734-4.255c.564-2.774,1.1-5.4,5.464-6.024ZM45.93,36.049c-4.071,4.85-9,10.3-13.056,14.439l-.628-.633-2.771-2.793c3.678-3.661,8.4-8.027,12.8-11.847h0c.513-.445,1.023-.885,1.526-1.314a78.932,78.932,0,0,1,9.152-7.078A79.127,79.127,0,0,1,45.93,36.049Z" transform="translate(0 -16.512)"/>
</svg>
