<svg id="_006-agronomy" data-name="006-agronomy" xmlns="http://www.w3.org/2000/svg" width="57.432" height="57.432" viewBox="0 0 57.432 57.432">
  <g id="Group_330" data-name="Group 330" transform="translate(16.221 7.281)">
    <g id="Group_329" data-name="Group 329">
      <path id="Path_14174" data-name="Path 14174" d="M169.175,87.05a1.122,1.122,0,0,0-.691-.738,7.975,7.975,0,0,0-1.48-.346,9.531,9.531,0,0,0,2.171-9.356,1.122,1.122,0,0,0-.691-.738,9.654,9.654,0,0,0-6.032.063,10.078,10.078,0,0,0,.28-2.4,9.528,9.528,0,0,0-5.086-8.489,1.121,1.121,0,0,0-1.011-.033,9.493,9.493,0,0,0-5.152,8.522,10.076,10.076,0,0,0,.281,2.4,9.653,9.653,0,0,0-6.045-.068,1.122,1.122,0,0,0-.691.738,9.531,9.531,0,0,0,2.171,9.356,7.975,7.975,0,0,0-1.48.346,1.122,1.122,0,0,0-.691.738,9.528,9.528,0,0,0,2.406,9.6,9.308,9.308,0,0,0,6.733,2.835,10.033,10.033,0,0,0,1.805-.164v7.34a1.122,1.122,0,1,0,2.243,0V99.317a10.049,10.049,0,0,0,1.821.167,9.308,9.308,0,0,0,6.733-2.835A9.528,9.528,0,0,0,169.175,87.05Zm-13.2,8.773a7.478,7.478,0,0,1-.165,1.245,7.4,7.4,0,0,1-8.787-8.792,7.521,7.521,0,0,1,3.854.182q.161.06.32.113a7.353,7.353,0,0,1,2.607,1.71,7.151,7.151,0,0,1,2.17,4.794Zm0-10.44a7.475,7.475,0,0,1-.165,1.245,7.454,7.454,0,0,1-3.776-.151q-.243-.094-.483-.171a7.407,7.407,0,0,1-2.528-1.684,7.233,7.233,0,0,1-2-6.786,7.275,7.275,0,0,1,6.781,2.005l.047.049q.148.166.3.317a7.1,7.1,0,0,1,1.828,4.427Zm1.138-5.628a7.626,7.626,0,0,1-1.373-1.134c-.053-.058-.106-.115-.16-.172a7.156,7.156,0,0,1-1.85-4.91,7.241,7.241,0,0,1,3.375-6.214,7.233,7.233,0,0,1,3.387,6.214,7.155,7.155,0,0,1-1.678,4.721c-.182.182-.352.366-.512.55A7.531,7.531,0,0,1,157.109,79.755Zm1.113,5.265a7.1,7.1,0,0,1,1.734-4.7c.165-.164.331-.341.5-.531a7.24,7.24,0,0,1,6.73-1.959,7.233,7.233,0,0,1-2,6.789,7.408,7.408,0,0,1-2.523,1.682q-.244.078-.492.174a7.451,7.451,0,0,1-3.772.15,7.53,7.53,0,0,1-.174-1.58C158.221,85.039,158.221,85.029,158.221,85.02Zm6.961,10.043a7.24,7.24,0,0,1-6.785,2.006,7.275,7.275,0,0,1,2-6.788,7.406,7.406,0,0,1,2.53-1.685q.24-.077.482-.17a7.456,7.456,0,0,1,3.769-.152A7.233,7.233,0,0,1,165.182,95.063Z" transform="translate(-144.606 -64.913)"/>
    </g>
  </g>
  <g id="Group_332" data-name="Group 332">
    <g id="Group_331" data-name="Group 331">
      <path id="Path_14175" data-name="Path 14175" d="M34.7.625A28.909,28.909,0,0,0,28.716,0,28.715,28.715,0,0,0,6.068,46.369a4.257,4.257,0,1,0,1.673-1.5A26.484,26.484,0,0,1,34.235,2.82,1.122,1.122,0,0,0,34.7.625ZM8.225,47.249a2.019,2.019,0,1,1-.591,1.428A2.012,2.012,0,0,1,8.225,47.249Z" transform="translate(0)"/>
    </g>
  </g>
  <g id="Group_334" data-name="Group 334" transform="translate(22.721 4.493)">
    <g id="Group_333" data-name="Group 333">
      <path id="Path_14176" data-name="Path 14176" d="M231.2,46.621a4.257,4.257,0,1,0-1.673,1.5,26.484,26.484,0,0,1-25.651,42.211,1.122,1.122,0,0,0-.394,2.209,28.984,28.984,0,0,0,5.07.446A28.715,28.715,0,0,0,231.2,46.621Zm-2.157-.879a2.019,2.019,0,1,1,.591-1.428A2.006,2.006,0,0,1,229.042,45.741Z" transform="translate(-202.556 -40.051)"/>
    </g>
  </g>
  <g id="Group_336" data-name="Group 336" transform="translate(17.314 53.21)">
    <g id="Group_335" data-name="Group 335">
      <path id="Path_14177" data-name="Path 14177" d="M155.9,474.443l-.424,1.039.42-1.04a1.122,1.122,0,0,0-.841,2.08l.035.014a1.122,1.122,0,0,0,.809-2.092Z" transform="translate(-154.355 -474.36)"/>
    </g>
  </g>
  <g id="Group_338" data-name="Group 338" transform="translate(37.906 1.991)">
    <g id="Group_337" data-name="Group 337">
      <path id="Path_14178" data-name="Path 14178" d="M339.487,17.842l-.02-.008a1.122,1.122,0,1,0-.833,2.083l.013.005a1.122,1.122,0,1,0,.84-2.08Z" transform="translate(-337.929 -17.754)"/>
    </g>
  </g>
</svg>
