<svg id="_007-social-care" data-name="007-social-care" xmlns="http://www.w3.org/2000/svg" width="56.002" height="56.002" viewBox="0 0 56.002 56.002">
  <g id="Group_346" data-name="Group 346" transform="translate(8.381 51.494)">
    <g id="Group_345" data-name="Group 345">
      <path id="Path_14187" data-name="Path 14187" d="M80.256,473.572l-1.647-2.32a1.094,1.094,0,1,0-1.784,1.266l1.647,2.32a1.094,1.094,0,1,0,1.784-1.266Z" transform="translate(-76.624 -470.791)"/>
    </g>
  </g>
  <g id="Group_348" data-name="Group 348" transform="translate(0 17.112)">
    <g id="Group_347" data-name="Group 347" transform="translate(0)">
      <path id="Path_14188" data-name="Path 14188" d="M24.634,194.022l-1.792-8.541a16.108,16.108,0,0,0-6.812-10.113L12.2,172.8a3.849,3.849,0,0,0-4.879.5v-13.18a3.662,3.662,0,0,0-5.953-2.856A3.644,3.644,0,0,0,0,160.114v16.959a10.6,10.6,0,0,0,1.966,6.166l1.951,2.748A1.094,1.094,0,1,0,5.7,184.72l-1.951-2.748a8.419,8.419,0,0,1-1.562-4.9V160.114a1.474,1.474,0,1,1,2.948,0v13.455A7.642,7.642,0,0,0,7.108,178.7c.054.065.11.13.17.193.726.77,1.58,1.677,2.385,2.532l1.126,1.2.011.011,1.689,1.8a1.094,1.094,0,1,0,1.595-1.5c-.02-.021-1.3-1.385-2.762-2.939l-2.508-2.669-.018-.021a1.846,1.846,0,0,1,.036-2.419,1.654,1.654,0,0,1,2.153-.275l3.826,2.573A13.931,13.931,0,0,1,20.7,185.93l1.792,8.541a1.094,1.094,0,1,0,2.141-.449Z" transform="translate(-0.001 -156.451)"/>
    </g>
  </g>
  <g id="Group_350" data-name="Group 350" transform="translate(6.112 48.299)">
    <g id="Group_349" data-name="Group 349">
      <path id="Path_14189" data-name="Path 14189" d="M57.875,442.044l-.007-.01a1.094,1.094,0,0,0-1.781,1.271l.007.01a1.094,1.094,0,0,0,1.781-1.271Z" transform="translate(-55.884 -441.575)"/>
    </g>
  </g>
  <g id="Group_352" data-name="Group 352" transform="translate(31.346 17.113)">
    <g id="Group_351" data-name="Group 351">
      <path id="Path_14190" data-name="Path 14190" d="M309.866,157.26a3.662,3.662,0,0,0-5.953,2.856V173.3a3.849,3.849,0,0,0-4.879-.5l-3.826,2.573a16.107,16.107,0,0,0-6.812,10.113l-1.792,8.541a1.094,1.094,0,1,0,2.141.449l1.792-8.541a13.932,13.932,0,0,1,5.892-8.746l3.826-2.573a1.654,1.654,0,0,1,2.153.275,1.846,1.846,0,0,1,.038,2.416l-.021.023-5.271,5.608a1.094,1.094,0,1,0,1.594,1.5c.015-.016,4.484-4.768,5.211-5.538.059-.063.115-.127.17-.193a7.643,7.643,0,0,0,1.971-5.131V160.116a1.474,1.474,0,0,1,2.948,0v16.959a8.419,8.419,0,0,1-1.562,4.9l-8.264,11.641a1.094,1.094,0,1,0,1.784,1.266l8.264-11.641a10.6,10.6,0,0,0,1.966-6.166V160.116A3.645,3.645,0,0,0,309.866,157.26Z" transform="translate(-286.58 -156.454)"/>
    </g>
  </g>
  <g id="Group_354" data-name="Group 354" transform="translate(10.215 5.906)">
    <g id="Group_353" data-name="Group 353">
      <path id="Path_14191" data-name="Path 14191" d="M125.03,69.057l-1.946-.465v-.349a4.892,4.892,0,0,0,2.094-4.011V61.7a4.891,4.891,0,0,0-8.071-3.721,6.386,6.386,0,0,0-11.837.009A4.891,4.891,0,0,0,97.188,61.7v2.53a4.892,4.892,0,0,0,2.094,4.011v.349l-1.946.465a5.124,5.124,0,0,0-3.946,5V76.1a1.094,1.094,0,0,0,1.094,1.094H99.51c-.008.133-.013.266-.013.4v3.933a1.094,1.094,0,0,0,1.094,1.094h6.575a1.094,1.094,0,1,0,0-2.188h-1.13v-2.26a1.094,1.094,0,1,0-2.188,0v2.261h-2.163V77.594a4.529,4.529,0,0,1,3.484-4.418l3-.719,2.009,4.57a1.094,1.094,0,0,0,1,.654h0a1.094,1.094,0,0,0,1-.654l2.007-4.563,2.992.715a4.528,4.528,0,0,1,3.487,4.419v2.836H118.5V78.173a1.094,1.094,0,1,0-2.188,0v2.261h-1.24a1.094,1.094,0,0,0,0,2.188h6.684a1.094,1.094,0,0,0,1.094-1.094V77.6c0-.136-.005-.27-.013-.4h5.04a1.094,1.094,0,0,0,1.094-1.094V74.057A5.124,5.124,0,0,0,125.03,69.057Zm-4.747-10.063a2.711,2.711,0,0,1,2.7,2.529h-1.521a7.973,7.973,0,0,1-3.667-.894A2.711,2.711,0,0,1,120.282,58.994Zm-2.708,5.078c0-.053,0-.106,0-.16v-.974a10.161,10.161,0,0,0,3.885.773h1.527v.521a2.708,2.708,0,1,1-5.416,0Zm-10.586-3.684h0a4.2,4.2,0,0,1,8.35-.668L113.5,58.639a1.094,1.094,0,0,0-1.392.241,4.712,4.712,0,0,1-3.621,1.69h-1.5Zm-4.905-1.394a2.712,2.712,0,0,1,2.486,1.635,7.973,7.973,0,0,1-3.667.894H99.382A2.711,2.711,0,0,1,102.084,58.994Zm-2.708,4.717H100.9a10.161,10.161,0,0,0,3.889-.775v1.3a2.708,2.708,0,0,1-5.416,0Zm5.283,7.338a6.708,6.708,0,0,0-4.648,3.957H95.578v-.949a2.944,2.944,0,0,1,2.267-2.872l2.786-.665a1.094,1.094,0,0,0,.84-1.064v-.368a4.749,4.749,0,0,0,1.223,0V69.4c0,.016,0,.033,0,.049a1.1,1.1,0,0,0,.889,1.076l1.632.391Zm3.051-1.7a5.133,5.133,0,0,0-.876-.3l-1.954-.468v-.341a4.935,4.935,0,0,0,.948-.866,6.439,6.439,0,0,0,1.882,1.886v.084Zm4.751,1.607-1.28,2.911L109.9,70.95V70.17a6.411,6.411,0,0,0,2.563,0Zm-1.271-2.844a4.206,4.206,0,0,1-4.2-4.2V62.757h1.5a6.892,6.892,0,0,0,4.648-1.8l2.256,1.325v1.785A4.206,4.206,0,0,1,111.19,68.114Zm3.458,1.241V69.28a6.437,6.437,0,0,0,1.9-1.891,4.934,4.934,0,0,0,.94.857v.341l-1.954.468A5.15,5.15,0,0,0,114.648,69.354Zm12.14,5.652H122.34a6.707,6.707,0,0,0-4.651-3.955l-.549-.131,1.64-.393a1.095,1.095,0,0,0,.894-1.077c0-.009,0-.017,0-.026v-.336a4.749,4.749,0,0,0,1.223,0v.368a1.094,1.094,0,0,0,.84,1.064l2.786.665a2.944,2.944,0,0,1,2.267,2.872v.949Z" transform="translate(-93.39 -54)"/>
    </g>
  </g>
  <g id="Group_356" data-name="Group 356" transform="translate(26.907 32.34)">
    <g id="Group_355" data-name="Group 355">
      <path id="Path_14192" data-name="Path 14192" d="M247.867,295.989a1.094,1.094,0,1,0,.321.774A1.1,1.1,0,0,0,247.867,295.989Z" transform="translate(-246 -295.67)"/>
    </g>
  </g>
  <g id="Group_358" data-name="Group 358" transform="translate(26.906)">
    <g id="Group_357" data-name="Group 357">
      <path id="Path_14193" data-name="Path 14193" d="M247.087,0a1.094,1.094,0,0,0-1.094,1.094V2.73a1.094,1.094,0,1,0,2.188,0V1.094A1.094,1.094,0,0,0,247.087,0Z" transform="translate(-245.993)"/>
    </g>
  </g>
  <g id="Group_360" data-name="Group 360" transform="translate(20.957 2.101)">
    <g id="Group_359" data-name="Group 359">
      <path id="Path_14194" data-name="Path 14194" d="M194.614,20.679l-1.147-1.146a1.094,1.094,0,1,0-1.546,1.547l1.147,1.146a1.094,1.094,0,1,0,1.546-1.547Z" transform="translate(-191.599 -19.213)"/>
    </g>
  </g>
  <g id="Group_362" data-name="Group 362" transform="translate(31.692 2.13)">
    <g id="Group_361" data-name="Group 361">
      <path id="Path_14195" data-name="Path 14195" d="M292.751,19.789a1.094,1.094,0,0,0-1.547,0l-1.139,1.14a1.094,1.094,0,1,0,1.548,1.546l1.138-1.14A1.094,1.094,0,0,0,292.751,19.789Z" transform="translate(-289.746 -19.469)"/>
    </g>
  </g>
</svg>
