<svg id="_008-interview" data-name="008-interview" xmlns="http://www.w3.org/2000/svg" width="56" height="55.891" viewBox="0 0 56 55.891">
  <path id="Path_14150" data-name="Path 14150" d="M393.356,159.624a1.094,1.094,0,0,0-1.529-.233L389.77,160.9l.282-2.537a1.094,1.094,0,0,0-2.174-.242l-.558,5.017a1.093,1.093,0,0,0,1.733,1h0l0,0h0l4.064-2.988A1.093,1.093,0,0,0,393.356,159.624Z" transform="translate(-344.952 -140.018)"/>
  <g id="Group_322" data-name="Group 322" transform="translate(5.243 23.446)">
    <path id="Path_14151" data-name="Path 14151" d="M49.026,217.056a1.093,1.093,0,0,1-.977-1.579l0-.006a1.094,1.094,0,1,1,.974,1.585Z" transform="translate(-47.934 -214.866)"/>
  </g>
  <g id="Group_323" data-name="Group 323">
    <path id="Path_14152" data-name="Path 14152" d="M53.877,17.433l-.307-.177,1.107-1.917A9.9,9.9,0,0,0,37.536,5.445l-1.107,1.92-.307-.177a3.276,3.276,0,0,0-4.467,1.2L26.563,17.2a3.24,3.24,0,0,0-.329,2.478c0,.018.011.036.016.055l-3.892,1.754a1.848,1.848,0,0,1-.688.234,3.958,3.958,0,0,1-.775-.4L19.45,20.49a3.139,3.139,0,0,0,.081-1.892,3.012,3.012,0,0,0-1.41-1.846l-3.528-2.034a3.011,3.011,0,0,0-2.3-.3,3.155,3.155,0,0,0-1.93,1.483L7.848,20.251a1.094,1.094,0,0,0,1.894,1.093l2.511-4.35a.982.982,0,0,1,.6-.463.842.842,0,0,1,.645.079l3.532,2.037a.84.84,0,0,1,.389.518.979.979,0,0,1-.1.748l-.261.451,0,0,0,.005L7.383,37.109a.925.925,0,0,1-1.244.387L2.612,35.461a.924.924,0,0,1-.289-1.271l2.514-4.351a1.094,1.094,0,0,0-1.894-1.094L.429,33.1a3.113,3.113,0,0,0,1.088,4.259l3.529,2.037a3,3,0,0,0,1.5.4,3.154,3.154,0,0,0,2.4-1.121l4.637,2.676a2.243,2.243,0,0,1,1.252,1.739A4.727,4.727,0,0,0,17.348,46.4l.356.206-1.19,2.063a3.628,3.628,0,0,0,1.327,4.949l3.969,2.291a3.631,3.631,0,0,0,4.95-1.328l1.19-2.062a3.479,3.479,0,0,0,5.175-2.949,3.838,3.838,0,0,0,3.624-1.9,3.794,3.794,0,0,0,.508-2.089,3.828,3.828,0,0,0,3.738-5.287,3.829,3.829,0,0,0,.581-6.908l-1.929-1.113,1.618-2.8,4.249,2.452a3.272,3.272,0,0,0,4.467-1.2L55.074,21.9a3.277,3.277,0,0,0-1.2-4.466ZM39.43,6.538a7.709,7.709,0,0,1,13.353,7.707l-1.108,1.918-13.352-7.7ZM22.9,54.013l-3.968-2.29a1.438,1.438,0,0,1-.527-1.962L19.6,47.7l3.039,1.754,3.418,1.973-1.189,2.06a1.442,1.442,0,0,1-1.963.527ZM41.083,37.524a1.648,1.648,0,0,1-2.248.6l-.025-.014-3.531-2.037a1.094,1.094,0,1,0-1.093,1.894l4.091,2.361a1.645,1.645,0,1,1-1.647,2.847l-1.205-.7-.082-.048-.044-.024-2.761-1.593a1.094,1.094,0,0,0-1.093,1.894l2.859,1.65a1.644,1.644,0,0,1-1.7,2.815l-3.193-1.841a1.094,1.094,0,1,0-1.092,1.895l1.94,1.118.031.018A1.291,1.291,0,1,1,29,50.6l-.892-.515-.014-.009-.015-.008L23.73,47.558l-5.289-3.053a2.59,2.59,0,0,1-1.489-1.979,4.379,4.379,0,0,0-2.274-3.075L10.087,36.8,18.4,22.409l1.216.7.179.1a3.685,3.685,0,0,0,1.869.695,3.931,3.931,0,0,0,1.591-.426l4.3-1.938c.065.044.13.086.2.125L31.03,23.56l-.118.2c-1.081,1.849-2.307,3.944.436,6.228a1.1,1.1,0,0,0,.153.107L37.578,33.6l.027.018.022.011,2.854,1.646a1.648,1.648,0,0,1,.6,2.247Zm-3.331-6.347L32.678,28.25c-1.2-1.019-.989-1.485.122-3.384l.124-.213,6.446,3.72ZM53.18,20.806l-5.093,8.822a1.1,1.1,0,0,1-1.48.4l-5.179-2.989-.017-.011-.018-.009L28.849,19.776a1.086,1.086,0,0,1-.394-1.478l5.094-8.82a1.072,1.072,0,0,1,.657-.5,1.107,1.107,0,0,1,.286-.038,1.068,1.068,0,0,1,.535.144h0l16.465,9.5.035.022.028.014,1.227.708a1.089,1.089,0,0,1,.4,1.478Z" transform="translate(0 -0.5)"/>
    <path id="Path_14153" data-name="Path 14153" d="M323.6,119.262l-1.755-1.013-1.755-1.013A1.094,1.094,0,0,0,319,119.13l.807.466-1.766,3.057a1.094,1.094,0,1,0,1.894,1.094l1.766-3.057.808.466a1.094,1.094,0,1,0,1.094-1.894Z" transform="translate(-283.126 -104.337)"/>
  </g>
</svg>
