<svg id="_009-balance" data-name="009-balance" xmlns="http://www.w3.org/2000/svg" width="59.094" height="59.094" viewBox="0 0 59.094 59.094">
  <g id="Group_321" data-name="Group 321">
    <path id="Path_14149" data-name="Path 14149" d="M59,36.033l.009,0L49.3,14.861l2.353-1.171-.881-1.763-2.294,1.142-.31-.677a.985.985,0,0,0-1.791,0L46.1,13a12.669,12.669,0,0,0-5.328-1.179H32.5V9.849h1.97V7.879H32.78l.708-2.834a4.061,4.061,0,1,0-7.879,0l.708,2.834H24.624v1.97h1.97v1.97H18.326A12.67,12.67,0,0,0,12.993,13l-.277-.6a.985.985,0,0,0-1.791,0l-.31.677L8.321,11.925l-.88,1.765,2.353,1.176L.092,36.03a.962.962,0,0,0-.09.411A6.9,6.9,0,0,0,6.9,43.335h9.849a6.9,6.9,0,0,0,6.894-6.894.963.963,0,0,0-.1-.408L13.812,14.784a10.713,10.713,0,0,1,4.514-1h8.268V49.822l-3.362,3.362H19.7a4.93,4.93,0,0,0-4.924,4.924.985.985,0,0,0,.985.985H43.337a.985.985,0,0,0,.985-.985A4.93,4.93,0,0,0,39.4,53.184H35.866L32.5,49.822V13.788h8.273a10.713,10.713,0,0,1,4.514,1L35.548,36.03a.962.962,0,0,0-.09.411,6.9,6.9,0,0,0,6.894,6.894H52.2A6.9,6.9,0,0,0,59.1,36.441.959.959,0,0,0,59,36.033ZM16.745,41.365H6.9a4.932,4.932,0,0,1-4.826-3.94h19.5A4.932,4.932,0,0,1,16.745,41.365Zm4.375-5.909H2.521l9.047-19.738a.973.973,0,0,0,.5,0ZM27.9,2.773a2.155,2.155,0,0,1,3.3,0,2.079,2.079,0,0,1,.381,1.794l-.828,3.311h-2.4L27.52,4.568A2.079,2.079,0,0,1,27.9,2.773Zm.663,9.045V9.849h1.97v1.97Zm1.97,1.97V49.245h-1.97V13.788ZM39.4,55.154a2.96,2.96,0,0,1,2.786,1.97H16.914a2.96,2.96,0,0,1,2.786-1.97Zm-6.317-1.97H26.017l1.97-1.97h3.124ZM47.023,15.721a.672.672,0,0,0,.5-.021l9.055,19.756h-18.6ZM52.2,41.365H42.352a4.932,4.932,0,0,1-4.826-3.94h19.5A4.932,4.932,0,0,1,52.2,41.365Z" transform="translate(-0.002 0.001)"/>
  </g>
</svg>
