<svg id="_010-open-book" data-name="010-open-book" xmlns="http://www.w3.org/2000/svg" width="51.015" height="51.015" viewBox="0 0 51.015 51.015">
  <g id="Group_320" data-name="Group 320">
    <g id="Group_319" data-name="Group 319" transform="translate(0 0)">
      <path id="Path_14138" data-name="Path 14138" d="M290.222,200.9a.851.851,0,0,0,1.144.372,72.886,72.886,0,0,1,7.523-3.347.851.851,0,0,0-.514-1.622,72.932,72.932,0,0,0-7.781,3.455A.851.851,0,0,0,290.222,200.9Z" transform="translate(-261.222 -176.711)"/>
      <path id="Path_14139" data-name="Path 14139" d="M290.982,98.969a.849.849,0,0,0,.385-.093,72.888,72.888,0,0,1,7.523-3.347.851.851,0,0,0-.514-1.622,72.929,72.929,0,0,0-7.781,3.455.85.85,0,0,0,.387,1.608Z" transform="translate(-261.222 -84.514)"/>
      <path id="Path_14140" data-name="Path 14140" d="M50.167,12.754a.85.85,0,0,0-.85.85v33.16a2.554,2.554,0,0,1-2.551,2.551H26.36V47.358a25.056,25.056,0,0,1,7.652-1.445A43.856,43.856,0,0,1,46.5,47.571a.85.85,0,0,0,1.118-.807V9.353a.849.849,0,0,0-.666-.83s-.667-.149-1.806-.358a.85.85,0,0,0-.308,1.672c.435.08.8.15,1.079.207v35.59a48.018,48.018,0,0,0-11.9-1.421,26.711,26.711,0,0,0-8.469,1.629,19.918,19.918,0,0,0-7.685-1.629A57.3,57.3,0,0,0,5.1,45.67V10.011A55.966,55.966,0,0,1,17.857,8.5a18.435,18.435,0,0,1,6.8,1.4V43.363a.85.85,0,0,0,1.288.729,97.344,97.344,0,0,1,15.986-7.574.85.85,0,0,0,.582-.807V.851a.851.851,0,0,0-1.15-.8A90.447,90.447,0,0,0,27.61,6.932a.85.85,0,0,0,.9,1.442,90.877,90.877,0,0,1,12.3-6.28V35.1A95.284,95.284,0,0,0,26.36,41.886V9.353a.851.851,0,0,0-.47-.761A19.688,19.688,0,0,0,17.857,6.8,55.183,55.183,0,0,0,4.019,8.536a.85.85,0,0,0-.616.817V46.764a.85.85,0,0,0,.85.85.838.838,0,0,0,.233-.033,54.618,54.618,0,0,1,13.371-1.667,18.394,18.394,0,0,1,6.8,1.4v2H4.253A2.554,2.554,0,0,1,1.7,46.764V13.6a.85.85,0,1,0-1.7,0v33.16a4.256,4.256,0,0,0,4.251,4.251H46.766a4.256,4.256,0,0,0,4.251-4.251V13.6A.85.85,0,0,0,50.167,12.754Z" transform="translate(-0.002 0)"/>
      <path id="Path_14141" data-name="Path 14141" d="M290.222,149.7a.851.851,0,0,0,1.144.372,72.891,72.891,0,0,1,7.523-3.347.851.851,0,0,0-.514-1.622,72.931,72.931,0,0,0-7.781,3.455A.851.851,0,0,0,290.222,149.7Z" transform="translate(-261.222 -130.612)"/>
      <path id="Path_14142" data-name="Path 14142" d="M290.222,252.1a.851.851,0,0,0,1.144.372,72.89,72.89,0,0,1,7.523-3.347.851.851,0,0,0-.514-1.622,72.931,72.931,0,0,0-7.781,3.455A.851.851,0,0,0,290.222,252.1Z" transform="translate(-261.222 -222.809)"/>
      <path id="Path_14143" data-name="Path 14143" d="M97.431,154.115c-5.25-1.232-11.217.338-11.467.4a.85.85,0,0,0,.219,1.672.864.864,0,0,0,.221-.029c.057-.016,5.8-1.527,10.639-.392a.85.85,0,1,0,.388-1.655Z" transform="translate(-76.831 -138.336)"/>
      <path id="Path_14144" data-name="Path 14144" d="M97.431,205.318c-5.25-1.231-11.217.338-11.467.4a.85.85,0,0,0,.219,1.672.865.865,0,0,0,.221-.029c.057-.016,5.8-1.527,10.639-.392a.85.85,0,1,0,.388-1.655Z" transform="translate(-76.831 -184.438)"/>
      <path id="Path_14145" data-name="Path 14145" d="M290.222,303.3a.851.851,0,0,0,1.144.372,72.894,72.894,0,0,1,7.523-3.347.851.851,0,0,0-.514-1.622,72.942,72.942,0,0,0-7.781,3.455A.851.851,0,0,0,290.222,303.3Z" transform="translate(-261.222 -268.908)"/>
      <path id="Path_14146" data-name="Path 14146" d="M97.431,256.517c-5.25-1.231-11.217.337-11.467.4a.851.851,0,0,0,.219,1.672.862.862,0,0,0,.221-.03c.057-.016,5.8-1.527,10.639-.392a.85.85,0,1,0,.388-1.655Z" transform="translate(-76.831 -230.535)"/>
      <path id="Path_14147" data-name="Path 14147" d="M97.431,358.915c-5.25-1.232-11.217.338-11.467.4a.851.851,0,0,0,.219,1.672.861.861,0,0,0,.221-.03c.057-.016,5.8-1.527,10.639-.392a.85.85,0,1,0,.388-1.655Z" transform="translate(-76.831 -322.73)"/>
      <path id="Path_14148" data-name="Path 14148" d="M97.431,307.714c-5.25-1.232-11.217.337-11.467.4a.851.851,0,0,0,.219,1.672.862.862,0,0,0,.221-.03c.057-.016,5.8-1.527,10.639-.392a.85.85,0,1,0,.388-1.655Z" transform="translate(-76.831 -276.63)"/>
    </g>
  </g>
</svg>
