<?xml version="1.0"?>
<svg xmlns="http://www.w3.org/2000/svg" id="Outline" viewBox="0 0 512 512" width="512" height="512"><path d="M432,433.013V424a24.027,24.027,0,0,0-24-24H360a24.027,24.027,0,0,0-24,24v9.013a32.037,32.037,0,0,0-16,9.855,32.037,32.037,0,0,0-16-9.855V424a24.027,24.027,0,0,0-24-24H232a24.027,24.027,0,0,0-24,24v9.013a32.037,32.037,0,0,0-16,9.855,32.037,32.037,0,0,0-16-9.855V424a24.027,24.027,0,0,0-24-24H104a24.027,24.027,0,0,0-24,24v9.013A32.057,32.057,0,0,0,56,464v32H72V464a16.019,16.019,0,0,1,16-16h80a16.019,16.019,0,0,1,16,16v32h16V464a16.019,16.019,0,0,1,16-16h80a16.019,16.019,0,0,1,16,16v32h16V464a16.019,16.019,0,0,1,16-16h80a16.019,16.019,0,0,1,16,16v32h16V464A32.057,32.057,0,0,0,432,433.013ZM160,432H96v-8a8.009,8.009,0,0,1,8-8h48a8.009,8.009,0,0,1,8,8Zm128,0H224v-8a8.009,8.009,0,0,1,8-8h48a8.009,8.009,0,0,1,8,8Zm128,0H352v-8a8.009,8.009,0,0,1,8-8h48a8.009,8.009,0,0,1,8,8Z"/><path d="M472,16H40A24.028,24.028,0,0,0,16,40V496H32V280H56.811L68.9,392.853l15.91-1.706L74.617,296H437.383l-10.195,95.147,15.91,1.706L455.189,280H480V496h16V40A24.028,24.028,0,0,0,472,16ZM40,32H472a8.009,8.009,0,0,1,8,8v8H32V40A8.009,8.009,0,0,1,40,32ZM56,264H32V248H56Zm16.9,16-.9-8.429V242.953A234.251,234.251,0,0,0,128,90.959V80H112V90.959A218.264,218.264,0,0,1,60.316,232H58.752l11.715-39.051A225.86,225.86,0,0,0,80,128H64a209.884,209.884,0,0,1-8.858,60.352L42.048,232H32V64H480V232H469.952l-13.094-43.648A209.884,209.884,0,0,1,448,128H432a225.86,225.86,0,0,0,9.533,64.949L453.248,232h-1.564A218.264,218.264,0,0,1,400,90.959V80H384V90.959a234.251,234.251,0,0,0,56,151.994v28.618L439.1,280ZM456,264V248h24v16Z"/><path d="M216,312H168a24.027,24.027,0,0,0-24,24v9.013A32.057,32.057,0,0,0,120,376v8h16v-8a16.019,16.019,0,0,1,16-16h80a16.019,16.019,0,0,1,16,16v8h16v-8a16.019,16.019,0,0,1,16-16h80a16.019,16.019,0,0,1,16,16v8h16v-8a32.057,32.057,0,0,0-24-30.987V336a24.027,24.027,0,0,0-24-24H296a24.027,24.027,0,0,0-24,24v9.013a32.037,32.037,0,0,0-16,9.855,32.037,32.037,0,0,0-16-9.855V336A24.027,24.027,0,0,0,216,312Zm8,32H160v-8a8.009,8.009,0,0,1,8-8h48a8.009,8.009,0,0,1,8,8Zm64-8a8.009,8.009,0,0,1,8-8h48a8.009,8.009,0,0,1,8,8v8H288Z"/></svg>
