<svg width="50" height="50" viewBox="0 0 50 50" fill="none" xmlns="http://www.w3.org/2000/svg">
<path d="M45 0H9.99999C6.78009 0.00416667 4.17082 2.61344 4.16666 5.83333V44.1667C4.17082 47.3866 6.78009 49.9958 9.99999 50H45C45.4602 50 45.8333 49.6269 45.8333 49.1667C45.8333 48.7065 45.4602 48.3333 45 48.3333H9.99999C7.69884 48.3333 5.83332 46.4678 5.83332 44.1667C5.83332 41.8655 7.69884 40 9.99999 40H45C45.4602 40 45.8333 39.6269 45.8333 39.1667V0.833333C45.8333 0.373125 45.4602 0 45 0ZM44.1667 38.3333H9.99999C8.43051 38.3329 6.9277 38.9675 5.83332 40.0925V5.83333C5.83603 3.53333 7.69999 1.66937 9.99999 1.66667H44.1667V38.3333Z" fill="black"/>
<path d="M8.33333 7.5C7.87312 7.5 7.5 7.87312 7.5 8.33333V36.6667C7.5 37.1269 7.87312 37.5 8.33333 37.5C8.79354 37.5 9.16667 37.1269 9.16667 36.6667V8.33333C9.16667 7.87312 8.79354 7.5 8.33333 7.5Z" fill="black"/>
<path d="M45 43.333H11.6666C11.2064 43.333 10.8333 43.7061 10.8333 44.1663C10.8333 44.6266 11.2064 44.9997 11.6666 44.9997H45C45.4602 44.9997 45.8333 44.6266 45.8333 44.1663C45.8333 43.7061 45.4602 43.333 45 43.333Z" fill="black"/>
<path d="M8.33333 3.33301C7.87312 3.33301 7.5 3.70613 7.5 4.16634V5.83301C7.5 6.29322 7.87312 6.66634 8.33333 6.66634C8.79354 6.66634 9.16667 6.29322 9.16667 5.83301V4.16634C9.16667 3.70613 8.79354 3.33301 8.33333 3.33301Z" fill="black"/>
<path d="M7.49999 43.333C7.03978 43.333 6.66666 43.7061 6.66666 44.1663C6.66666 44.6266 7.03978 44.9997 7.49999 44.9997H9.16666C9.62686 44.9997 9.99999 44.6266 9.99999 44.1663C9.99999 43.7061 9.62686 43.333 9.16666 43.333H7.49999Z" fill="black"/>
<path d="M22.5 23.3337H27.5V17.5003H33.3333V12.5003H27.5V6.66699H22.5V12.5003H16.6667V17.5003H22.5V23.3337ZM18.3333 15.8337V14.167H24.1667V8.33366H25.8333V14.167H31.6667V15.8337H25.8333V21.667H24.1667V15.8337H18.3333Z" fill="black"/>
</svg>
