<svg width="50" height="50" viewBox="0 0 50 50" fill="none" xmlns="http://www.w3.org/2000/svg">
<path d="M25 21.875C26.5547 21.875 28.9062 20.6289 28.9062 18.75H27.3438C27.3438 19.5047 25.968 20.3125 25 20.3125C24.032 20.3125 22.6562 19.5047 22.6562 18.75H21.0938C21.0938 20.6289 23.4453 21.875 25 21.875Z" fill="black"/>
<path d="M28.125 16.4062C28.5565 16.4062 28.9062 16.0565 28.9062 15.625C28.9062 15.1935 28.5565 14.8438 28.125 14.8438C27.6935 14.8438 27.3438 15.1935 27.3438 15.625C27.3438 16.0565 27.6935 16.4062 28.125 16.4062Z" fill="black"/>
<path d="M21.875 16.4062C22.3065 16.4062 22.6562 16.0565 22.6562 15.625C22.6562 15.1935 22.3065 14.8438 21.875 14.8438C21.4435 14.8438 21.0938 15.1935 21.0938 15.625C21.0938 16.0565 21.4435 16.4062 21.875 16.4062Z" fill="black"/>
<path d="M24.2188 8.59375H25.7812V7.03125H27.3438V5.46875H25.7812V3.90625H24.2188V5.46875H22.6562V7.03125H24.2188V8.59375Z" fill="black"/>
<path d="M36.5656 30.3562C36.5727 30.3492 36.5781 30.3414 36.5844 30.3352C37.175 29.7445 37.5 28.9602 37.5 28.125C37.5 27.2898 37.175 26.5055 36.5844 25.9156C35.9328 25.2641 35.1562 24.1945 35.1562 22.8016V13.2812C35.1562 11.8633 34.8562 10.5031 34.2945 9.22109L35.3211 7.85234L35.0375 7.39844C34.8687 7.12813 30.8352 0.78125 25 0.78125C19.1648 0.78125 15.1313 7.12813 14.9625 7.39844L14.6789 7.85234L15.7055 9.22109C15.1438 10.5031 14.8438 11.8633 14.8438 13.2812V22.8016C14.8438 24.1953 14.0672 25.2641 13.4156 25.9156C12.825 26.5055 12.5 27.2898 12.5 28.125C12.5 28.9602 12.825 29.7445 13.4148 30.3344C13.4219 30.3414 13.4273 30.3492 13.4344 30.3562C11.857 32.3625 10.9375 34.8867 10.9375 37.607V39.0625C10.9375 42.1164 12.8984 44.7148 15.625 45.6836V49.2188H39.0625V37.607C39.0625 34.8867 38.143 32.3617 36.5656 30.3562ZM35.4797 27.0203C35.775 27.3156 35.9375 27.7078 35.9375 28.125C35.9375 28.5266 35.7836 28.9031 35.5086 29.1945C34.0172 27.75 32.132 26.6852 29.9797 26.1883L28.793 25.9148L28.5758 24.8305C30.5641 24.2875 32.0312 22.4703 32.0312 20.3125C32.6031 20.3125 33.132 20.1469 33.5938 19.8781V22.8016C33.5938 24.3055 34.2633 25.8039 35.4797 27.0203V27.0203ZM30.4688 28.125C30.4688 29.4172 29.4172 30.4688 28.125 30.4688C27.3547 30.4688 26.6594 30.0906 26.2281 29.4945C27.2492 29.1687 28.1055 28.4445 28.5953 27.4727L29.6273 27.7109C29.9055 27.775 30.1773 27.8516 30.4445 27.9367C30.45 28 30.4688 28.0609 30.4688 28.125ZM19.5547 27.9367C19.8219 27.8516 20.0938 27.775 20.3719 27.7109L21.4047 27.4727C21.8953 28.4453 22.7516 29.1687 23.7719 29.4945C23.3406 30.0906 22.6461 30.4688 21.875 30.4688C20.5828 30.4688 19.5312 29.4172 19.5312 28.125C19.5312 28.0617 19.55 28 19.5547 27.9367ZM25.3641 11.7188C26.7578 13.0289 28.5672 13.85 30.4688 14.0266V20.3125C30.4688 22.0359 29.0672 23.4375 27.3438 23.4375H22.6562C20.9328 23.4375 19.5312 22.0359 19.5312 20.3125V14.0266C21.432 13.85 23.2414 13.0297 24.6359 11.7188H25.3641ZM25 28.125C23.9594 28.125 23.0406 27.4742 22.6844 26.5L22.9844 25H27.0164L27.3164 26.5016C26.9594 27.4742 26.0406 28.125 25 28.125ZM32.0312 15.625C32.893 15.625 33.5938 16.3258 33.5938 17.1875C33.5938 18.0492 32.893 18.75 32.0312 18.75V15.625ZM33.5938 13.2812V14.4969C33.132 14.2281 32.6031 14.0625 32.0312 14.0625V12.5H31.25C30.1328 12.5 29.0344 12.2219 28.0492 11.7188H32.4219L33.1867 10.6984C33.4492 11.5289 33.5938 12.3906 33.5938 13.2812ZM25 2.34375C29.157 2.34375 32.4367 6.42891 33.4148 7.79141L31.6406 10.1562H18.3594L16.5852 7.79063C17.5602 6.42891 20.8313 2.34375 25 2.34375V2.34375ZM17.5781 11.7188H21.9508C20.9656 12.2219 19.8672 12.5 18.75 12.5H17.9688V14.0625C17.3969 14.0625 16.868 14.2281 16.4062 14.4969V13.2812C16.4062 12.3906 16.5508 11.5289 16.8133 10.6984L17.5781 11.7188ZM17.9688 18.75C17.107 18.75 16.4062 18.0492 16.4062 17.1875C16.4062 16.3258 17.107 15.625 17.9688 15.625V18.75ZM14.5203 27.0203C15.7367 25.8039 16.4062 24.3055 16.4062 22.8016V19.8781C16.868 20.1469 17.3969 20.3125 17.9688 20.3125C17.9688 22.4703 19.4359 24.2875 21.4242 24.8305L21.207 25.9148L20.0203 26.1883C17.8672 26.6852 15.9828 27.75 14.4906 29.1945C14.2164 28.9039 14.0625 28.5273 14.0625 28.125C14.0625 27.7078 14.225 27.3156 14.5203 27.0203V27.0203ZM12.5 39.0625V37.607C12.5 33.7078 14.6773 30.2734 18.0141 28.5719C18.2391 30.5133 19.8742 32.0312 21.875 32.0312C23.1391 32.0312 24.2797 31.4188 25 30.4523C25.7203 31.4188 26.8609 32.0312 28.125 32.0312C30.1258 32.0312 31.7609 30.5133 31.9859 28.5719C35.3227 30.2742 37.5 33.7078 37.5 37.607V41.4062H34.375V35.9375H32.8125V47.6562H29.6875V33.5938H20.3125V38.3828C19.9359 38.4914 19.5867 38.6828 19.3023 38.968L18.4547 39.8156C17.7336 39.6773 17.1875 39.0422 17.1875 38.2812V35.9375H15.625V38.2812C15.625 39.7328 16.6242 40.9461 17.9688 41.2953V44.5312C14.9539 44.5312 12.5 42.0781 12.5 39.0625V39.0625ZM19.5312 40.9484L20.407 40.0727C20.5531 39.9273 20.7539 39.8438 20.9594 39.8438H21.0938C21.525 39.8438 21.875 40.1945 21.875 40.625V41.4062H23.4375C23.8687 41.4062 24.2188 41.757 24.2188 42.1875V43.75C24.2188 44.1805 23.8687 44.5312 23.4375 44.5312H19.5312V40.9484ZM23.4375 46.0938C24.7297 46.0938 25.7812 45.0422 25.7812 43.75V42.1875C25.7812 40.8953 24.7297 39.8438 23.4375 39.8438H23.3039C23.068 39.1797 22.5391 38.6547 21.875 38.4187V35.1562H28.125V47.6562H21.875V46.0938H23.4375ZM17.1875 46.0477C17.4445 46.0766 17.7047 46.0938 17.9688 46.0938H20.3125V47.6562H17.1875V46.0477ZM34.375 47.6562V42.9688H37.5V47.6562H34.375Z" fill="black"/>
</svg>
