<svg xmlns="http://www.w3.org/2000/svg" id="_001-science" data-name="001-science" width="36.471" height="42.112" viewBox="0 0 36.471 42.112"><g id="Group_300" data-name="Group 300" transform="translate(0 0)"><path id="Path_14133" data-name="Path 14133" d="M383.236,133.971a2.218,2.218,0,1,0,2.218,2.218A2.22,2.22,0,0,0,383.236,133.971Zm0,3.207a.99.99,0,1,1,.989-.99A.991.991,0,0,1,383.236,137.178Z" transform="translate(-352.641 -123.002)" fill="#fff"></path><path id="Path_14134" data-name="Path 14134" d="M81.35,133.252a2.218,2.218,0,1,0,2.218,2.218A2.22,2.22,0,0,0,81.35,133.252Zm0,3.207a.99.99,0,1,1,.99-.99A.991.991,0,0,1,81.35,136.459Z" transform="translate(-75.473 -122.341)" fill="#fff"></path><path id="Path_14135" data-name="Path 14135" d="M223.945,217.062a2.7,2.7,0,1,0,2.7-2.7A2.706,2.706,0,0,0,223.945,217.062Zm4.177,0a1.475,1.475,0,1,1-1.475-1.475A1.476,1.476,0,0,1,228.122,217.062Z" transform="translate(-208.429 -196.808)" fill="#fff"></path><path id="Path_14136" data-name="Path 14136" d="M230.863,394.388a2.218,2.218,0,1,0,2.218,2.218A2.22,2.22,0,0,0,230.863,394.388Zm0,3.207a.99.99,0,1,1,.99-.99A.991.991,0,0,1,230.863,397.6Z" transform="translate(-212.745 -362.096)" fill="#fff"></path><path id="Path_14137" data-name="Path 14137" d="M113.624,74.412a20.1,20.1,0,0,1,4.457-1.125l-.133-1.221a20.946,20.946,0,0,0-4.525,1.116c-.47-2.564-1.718-7.421-4.327-7.421s-3.849,4.827-4.321,7.39a20.889,20.889,0,0,0-4.49-1.127l-.138,1.22a20.044,20.044,0,0,1,4.426,1.136c-.159,1.086-.275,2.234-.347,3.422-1.006.657-1.953,1.334-2.824,2.017a20,20,0,0,1-3.177-3.248l-.988.73a20.838,20.838,0,0,0,3.2,3.3c-1.97,1.667-5.539,5.141-4.251,7.4s6.123.943,8.59.077a21.145,21.145,0,0,0,1.246,4.418l1.129-.484a20.3,20.3,0,0,1-1.207-4.369c1.021-.4,2.075-.871,3.141-1.4,1.074.538,2.136,1.015,3.165,1.424a19.805,19.805,0,0,1-1.26,4.471l1.122.5a20.656,20.656,0,0,0,1.3-4.53c2.459.873,7.262,2.2,8.56-.047s-2.253-5.741-4.215-7.417a20.776,20.776,0,0,0,3.225-3.306L120,76.611a19.94,19.94,0,0,1-3.2,3.247c-.872-.69-1.82-1.374-2.827-2.039C113.9,76.637,113.781,75.494,113.624,74.412ZM112.678,77c-.718-.441-1.436-.857-2.21-1.276.67-.314,1.332-.6,1.979-.863C112.542,75.55,112.619,76.265,112.678,77Zm.094,5.767c-1.2.761-2.443,1.47-3.687,2.108-1.22-.632-2.458-1.344-3.667-2.119-.066-1.417-.065-2.852,0-4.259,1.182-.749,2.427-1.461,3.688-2.106,1.254.649,2.493,1.365,3.668,2.118C112.838,79.918,112.838,81.359,112.772,82.766ZM106.613,70.73c.84-2.758,1.833-3.74,2.482-3.74.99,0,1.931,1.932,2.482,3.74a24.676,24.676,0,0,1,.676,2.888c-1.022.4-2.078.87-3.145,1.4-1.074-.536-2.138-1.014-3.167-1.423A24.593,24.593,0,0,1,106.613,70.73Zm-.867,4.1c.654.266,1.322.561,2,.882-.733.393-1.461.807-2.233,1.276C105.572,76.251,105.651,75.53,105.747,74.835Zm-1.588,4.49c-.025.913-.023,1.763,0,2.591-.622-.43-1.216-.865-1.778-1.3Q103.224,79.964,104.158,79.325ZM101.728,87.7c-2.811.638-4.157.263-4.479-.3-.491-.86.72-2.635,2.017-4.01A24.577,24.577,0,0,1,101.4,81.4c.872.69,1.821,1.376,2.828,2.042.072,1.181.188,2.326.346,3.407a24.734,24.734,0,0,1-2.844.846Zm4.019-1.294c-.094-.689-.172-1.4-.232-2.138.77.473,1.464.871,2.209,1.276C107.055,85.855,106.394,86.143,105.746,86.4Zm4.7-.856c.757-.406,1.463-.807,2.233-1.276-.06.742-.139,1.463-.234,2.158C111.787,86.163,111.119,85.868,110.443,85.547Zm8.468-2.114c1.968,2.106,2.323,3.457,2,4.019-.5.858-2.639.707-4.48.279a24.665,24.665,0,0,1-2.814-.85c.159-1.086.276-2.235.349-3.424,1.005-.658,1.954-1.337,2.825-2.02A24.6,24.6,0,0,1,118.911,83.433Zm-3.1-2.787c-.562.433-1.156.864-1.778,1.29.023-.831.025-1.678,0-2.591Q114.964,79.988,115.81,80.646Z" transform="translate(-90.877 -60.377)" fill="#fff"></path><path id="Path_14138" data-name="Path 14138" d="M35.678,11.237,52.685,1.418l8.35,4.821.614-1.064L52.685,0,34.45,10.528V31.584l8.078,4.663.614-1.064-7.464-4.309Z" transform="translate(-34.45 0)" fill="#fff"></path><path id="Path_14139" data-name="Path 14139" d="M165.361,70.785l-.614,1.064,7.582,4.378V95.864l-17.007,9.819-8.468-4.889-.614,1.064,9.082,5.244,18.235-10.528V75.517Z" transform="translate(-137.087 -64.989)" fill="#fff"></path></g><g id="Group_303" data-name="Group 303" transform="translate(2.966 20.442)"><g id="Group_301" data-name="Group 301" transform="translate(29.32)"><path id="Path_14140" data-name="Path 14140" d="M428.775,249.66H430v1.228h-1.228Z" transform="translate(-428.775 -249.66)" fill="#fff"></path></g><g id="Group_302" data-name="Group 302"><path id="Path_14141" data-name="Path 14141" d="M70.68,249.66h1.228v1.228H70.68Z" transform="translate(-70.68 -249.66)" fill="#fff"></path></g></g></svg>