<svg xmlns="http://www.w3.org/2000/svg" id="_002-energy-management" data-name="002-energy-management" width="41.853" height="43.668" viewBox="0 0 41.853 43.668"><g id="Group_304" data-name="Group 304" transform="translate(0 0)"><path id="Path_14142" data-name="Path 14142" d="M48.572,24.186a18.723,18.723,0,0,0,0-4.7L52.286,15.2a.853.853,0,0,0,.094-.985L48.574,7.62a.853.853,0,0,0-.9-.411L42.107,8.284a18.715,18.715,0,0,0-4.074-2.352L36.181.574A.853.853,0,0,0,35.375,0H27.762a.853.853,0,0,0-.806.574L25.1,5.932A18.725,18.725,0,0,0,21.03,8.284L15.463,7.209a.853.853,0,0,0-.9.411l-3.806,6.593a.853.853,0,0,0,.094.985l3.714,4.283a18.727,18.727,0,0,0,0,4.7l-3.714,4.283a.853.853,0,0,0-.094.985l3.806,6.593a.852.852,0,0,0,.9.411l5.566-1.075A18.715,18.715,0,0,0,25.1,37.736l1.853,5.358a.853.853,0,0,0,.806.574h7.613a.853.853,0,0,0,.806-.574l1.853-5.358a18.727,18.727,0,0,0,4.074-2.352l5.567,1.075a.853.853,0,0,0,.9-.411l3.806-6.593a.853.853,0,0,0-.094-.985ZM47.4,34.668l-5.353-1.033a.853.853,0,0,0-.7.174,15.324,15.324,0,0,1-2.053,1.4l-.01.006a15.333,15.333,0,0,1-2.238,1.079.853.853,0,0,0-.5.517l-1.782,5.153h-6.4L26.588,36.81a.852.852,0,0,0-.5-.517,15.333,15.333,0,0,1-2.238-1.079l-.01-.006a15.322,15.322,0,0,1-2.053-1.4.852.852,0,0,0-.7-.174l-5.353,1.033-3.2-5.541,3.572-4.119a.853.853,0,0,0,.2-.691,15.313,15.313,0,0,1-.185-2.477v-.012a15.332,15.332,0,0,1,.185-2.478.853.853,0,0,0-.2-.691L12.538,14.54,15.736,9l5.353,1.033a.852.852,0,0,0,.7-.174,15.325,15.325,0,0,1,2.053-1.4l.01-.006a15.336,15.336,0,0,1,2.238-1.079.853.853,0,0,0,.5-.517L28.37,1.706h6.4l1.782,5.153a.853.853,0,0,0,.5.517,15.332,15.332,0,0,1,2.238,1.078l.01.006a15.341,15.341,0,0,1,2.053,1.4.852.852,0,0,0,.7.174L47.4,9l3.2,5.541-3.572,4.119a.853.853,0,0,0-.2.691,15.321,15.321,0,0,1,.185,2.478v.012a15.319,15.319,0,0,1-.185,2.477.853.853,0,0,0,.2.691L50.6,29.128Z" transform="translate(-10.642 0)" fill="#fff"></path><path id="Path_14143" data-name="Path 14143" d="M176.9,124.3h-6.508v-7.98a.858.858,0,0,0-1.6-.406l-7.452,13.745a.861.861,0,0,0,.75,1.259h6.6v7.692a.858.858,0,0,0,1.6.409l7.361-13.457a.861.861,0,0,0-.748-1.262Zm-6.508,10.973v-5.208a.853.853,0,0,0-.853-.853h-6.019l5.166-9.529v5.47a.853.853,0,0,0,.853.853h5.922Z" transform="translate(-148.395 -105.635)" fill="#fff"></path><path id="Path_14144" data-name="Path 14144" d="M332.07,141.271h.6a.853.853,0,1,0,0-1.706h-2.815a.853.853,0,0,0-.853.853v2.707a.853.853,0,0,0,1.706,0v-.764a9.126,9.126,0,0,1,1.405,13.04.853.853,0,0,0,1.31,1.092,10.831,10.831,0,0,0-1.352-15.223Z" transform="translate(-301.848 -127.662)" fill="#fff"></path><path id="Path_14145" data-name="Path 14145" d="M109.572,161.137a.853.853,0,0,0-.853.853v.685a9.126,9.126,0,0,1,1.194-14.83.853.853,0,1,0-.875-1.464,10.83,10.83,0,0,0-1.574,17.463h-.707a.853.853,0,1,0,0,1.706h2.815a.853.853,0,0,0,.853-.853V161.99A.853.853,0,0,0,109.572,161.137Z" transform="translate(-95.813 -133.785)" fill="#fff"></path><path id="Path_14146" data-name="Path 14146" d="M330.953,350.208a.853.853,0,1,0-.35,1.058A.86.86,0,0,0,330.953,350.208Z" transform="translate(-302.133 -319.869)" fill="#fff"></path></g></svg>