<svg xmlns="http://www.w3.org/2000/svg" id="_003-save-money" data-name="003-save-money" width="39.188" height="44.48" viewBox="0 0 39.188 44.48"><path id="Path_14147" data-name="Path 14147" d="M189.215,157.869a.694.694,0,0,0-.25-.009,1.659,1.659,0,0,1-1.467-1.645.73.73,0,0,0-1.459,0,3.121,3.121,0,0,0,2.3,3.005v.73a.73.73,0,1,0,1.459,0v-.685a3.116,3.116,0,0,0-.638-6.165,1.657,1.657,0,1,1,1.657-1.657.73.73,0,0,0,1.459,0,3.121,3.121,0,0,0-2.477-3.05v-.664a.73.73,0,1,0-1.459,0v.709a3.115,3.115,0,0,0,.821,6.121,1.656,1.656,0,0,1,.061,3.31Zm0,0" transform="translate(-169.104 -133.594)" fill="#fff"></path><path id="Path_14148" data-name="Path 14148" d="M104.2,117.072a10.58,10.58,0,1,0,10.58-10.58A10.58,10.58,0,0,0,104.2,117.072Zm10.58-9.121a9.121,9.121,0,1,1-9.121,9.121A9.121,9.121,0,0,1,114.775,107.951Zm0,0" transform="translate(-94.725 -96.78)" fill="#fff"></path><path id="Path_14149" data-name="Path 14149" d="M34.586,329.263l-5.715,2.7a4.655,4.655,0,0,0-3.969-2.449l-5.276-.145a5.572,5.572,0,0,1-2.4-.619l-.537-.278a9.47,9.47,0,0,0-8.771.009l.033-1.216a.73.73,0,0,0-.709-.75l-5.786-.159a.729.729,0,0,0-.749.709l-.349,12.7a.73.73,0,0,0,.709.75l5.786.159h.02a.73.73,0,0,0,.73-.71l.017-.607,1.5-.8a2.578,2.578,0,0,1,1.924-.211l8.975,2.519.047.012a9.607,9.607,0,0,0,1.973.2,9.735,9.735,0,0,0,4.067-.887.68.68,0,0,0,.09-.05l13.014-8.418a.73.73,0,0,0,.239-.972,3.686,3.686,0,0,0-4.867-1.483Zm-32.748,9.81.309-11.238,4.327.119-.309,11.238Zm23.614-.191a8.272,8.272,0,0,1-5.059.565l-8.951-2.513a4.034,4.034,0,0,0-3.008.329l-.768.411.206-7.472a8.02,8.02,0,0,1,8.148-.435l.537.278a7.047,7.047,0,0,0,3.029.782l5.276.145a3.2,3.2,0,0,1,3.041,2.55l-7.859-.217a.73.73,0,0,0-.04,1.459l8.673.239h.02a.73.73,0,0,0,.729-.71,4.63,4.63,0,0,0-.071-.947l5.862-2.77.017-.008a2.229,2.229,0,0,1,2.521.353Zm0,0" transform="translate(-0.36 -296.592)" fill="#fff"></path><path id="Path_14150" data-name="Path 14150" d="M213.662,7.661V.73a.73.73,0,0,0-1.459,0V7.661a.73.73,0,0,0,1.459,0Zm0,0" transform="translate(-192.883 0)" fill="#fff"></path><path id="Path_14151" data-name="Path 14151" d="M273.662,44.013V40.73a.73.73,0,0,0-1.459,0v3.283a.73.73,0,0,0,1.459,0Zm0,0" transform="translate(-247.411 -36.352)" fill="#fff"></path><path id="Path_14152" data-name="Path 14152" d="M153.662,44.013V40.73a.73.73,0,0,0-1.459,0v3.283a.73.73,0,0,0,1.459,0Zm0,0" transform="translate(-138.355 -36.352)" fill="#fff"></path></svg>