<svg xmlns="http://www.w3.org/2000/svg" id="_004-dress" data-name="004-dress" width="32.399" height="42.218" viewBox="0 0 32.399 42.218"><g id="Group_306" data-name="Group 306" transform="translate(0)"><g id="Group_305" data-name="Group 305"><path id="Path_14153" data-name="Path 14153" d="M91.9,36.4a37.1,37.1,0,0,0-3.136-9.738,25.95,25.95,0,0,0-4.087-6.046,18.261,18.261,0,0,0-4.285-3.52A21.191,21.191,0,0,0,83.837,7.061a3.66,3.66,0,0,0-1.484-2.886V.825a.825.825,0,1,0-1.649,0V3.373a4.894,4.894,0,0,0-1.229-.156A4.519,4.519,0,0,0,75.731,5.09a4.519,4.519,0,0,0-3.744-1.873,4.894,4.894,0,0,0-1.233.157V.825a.825.825,0,1,0-1.649,0V4.179a3.66,3.66,0,0,0-1.48,2.882A21.193,21.193,0,0,0,71.075,17.1,18.282,18.282,0,0,0,66.8,20.616a25.954,25.954,0,0,0-4.087,6.046A37.1,37.1,0,0,0,59.582,36.4,2.376,2.376,0,0,0,61.1,39.066l2.825,1.043q.4.146.794.281l.026.009a34.115,34.115,0,0,0,7.366,1.625.828.828,0,0,0,.121.012,34.1,34.1,0,0,0,15.329-1.927l2.825-1.043A2.376,2.376,0,0,0,91.9,36.4ZM69.274,7.061a2.077,2.077,0,0,1,1.042-1.728.815.815,0,0,0,.083-.051,3.145,3.145,0,0,1,1.588-.417A2.541,2.541,0,0,1,74.7,6.925a1.039,1.039,0,0,0,2.071,0,2.542,2.542,0,0,1,2.708-2.059,3.15,3.15,0,0,1,1.569.406.824.824,0,0,0,.117.071A2.071,2.071,0,0,1,82.188,7.06a20.256,20.256,0,0,1-3.432,9.524l-.123.183a6.657,6.657,0,0,1-1.979.6,7.348,7.348,0,0,0,.521-.783,6.194,6.194,0,0,0,.582-1.348.825.825,0,1,0-1.583-.462,5.151,5.151,0,0,1-1,1.81,4.956,4.956,0,0,1-.5.526.822.822,0,0,0-.174.206,6.652,6.652,0,0,1-1.665-.549l-.123-.183A20.255,20.255,0,0,1,69.274,7.061ZM89.813,37.519l-2.825,1.043c-.134.049-.268.1-.4.143a34.98,34.98,0,0,0-3.77-9.739.825.825,0,0,0-1.4.872,33.993,33.993,0,0,1,3.594,9.381,32.516,32.516,0,0,1-11.938,1.239,9.971,9.971,0,0,1,.956-3.91.825.825,0,1,0-1.481-.726,11.609,11.609,0,0,0-1.118,4.46,32.457,32.457,0,0,1-5.5-1.23c.408-2.334,2.013-10.138,5.825-14.511a.825.825,0,0,0-1.243-1.084c-3.991,4.58-5.671,12.3-6.163,15.049l-2.677-.988A.73.73,0,0,1,61.2,36.7c1.429-7.743,4.455-12.37,6.742-14.887a16.1,16.1,0,0,1,4.33-3.484,8.31,8.31,0,0,0,6.922-.005c1.573.81,8.637,5.134,11.081,18.377A.73.73,0,0,1,89.813,37.519Z" transform="translate(-59.541)" fill="#fff"></path></g></g><g id="Group_308" data-name="Group 308" transform="translate(19.593 25.623)"><g id="Group_307" data-name="Group 307"><path id="Path_14154" data-name="Path 14154" d="M298.785,311.409a.837.837,0,0,0-.047-.154.821.821,0,0,0-.076-.143.789.789,0,0,0-.1-.125.831.831,0,0,0-.744-.226.858.858,0,0,0-.155.048.835.835,0,0,0-.142.076.79.79,0,0,0-.125.1.842.842,0,0,0-.1.125.817.817,0,0,0-.076.143.832.832,0,0,0-.047.154.833.833,0,0,0,0,.322.831.831,0,0,0,.048.154.871.871,0,0,0,.075.143.836.836,0,0,0,.228.228.891.891,0,0,0,.142.075.8.8,0,0,0,.155.047.8.8,0,0,0,.322,0,.771.771,0,0,0,.154-.047.873.873,0,0,0,.143-.075.845.845,0,0,0,.125-.1.788.788,0,0,0,.1-.125.82.82,0,0,0,.076-.143.84.84,0,0,0,.047-.154.8.8,0,0,0,0-.322Z" transform="translate(-297.152 -310.745)" fill="#fff"></path></g></g><g id="Group_310" data-name="Group 310" transform="translate(17.431 11.804)"><g id="Group_309" data-name="Group 309"><path id="Path_14155" data-name="Path 14155" d="M272.565,143.82a.876.876,0,0,0-.047-.154.844.844,0,0,0-.076-.142.789.789,0,0,0-.1-.125.833.833,0,0,0-.745-.226.871.871,0,0,0-.154.047.826.826,0,0,0-.446.446.873.873,0,0,0-.047.154.827.827,0,0,0-.016.162.818.818,0,0,0,.016.161.833.833,0,0,0,.047.154.849.849,0,0,0,.076.143.885.885,0,0,0,.1.125.789.789,0,0,0,.125.1.844.844,0,0,0,.142.076.88.88,0,0,0,.154.047.828.828,0,0,0,.162.016.813.813,0,0,0,.161-.016.84.84,0,0,0,.154-.047.823.823,0,0,0,.143-.076.788.788,0,0,0,.125-.1.824.824,0,0,0,.1-.125.854.854,0,0,0,.076-.143.832.832,0,0,0,.047-.154.815.815,0,0,0,.016-.161A.831.831,0,0,0,272.565,143.82Z" transform="translate(-270.932 -143.157)" fill="#fff"></path></g></g></svg>