<svg xmlns="http://www.w3.org/2000/svg" id="_005-paint-palette-and-brush" data-name="005-paint-palette-and-brush" width="42.6" height="38.272" viewBox="0 0 42.6 38.272"><path id="Path_14156" data-name="Path 14156" d="M47.681,205.991a3.48,3.48,0,0,0-2.149-.746,3.444,3.444,0,0,0-2.7,1.287,3.414,3.414,0,0,0,.548,4.824,3.479,3.479,0,0,0,2.148.746,3.442,3.442,0,0,0,2.7-1.289,3.413,3.413,0,0,0-.548-4.823ZM47,209.828a1.894,1.894,0,0,1-2.645.294,1.841,1.841,0,0,1-.3-2.6,1.9,1.9,0,0,1,2.645-.293,1.84,1.84,0,0,1,.3,2.6Z" transform="translate(-36.565 -180.509)" fill="#fff"></path><path id="Path_14157" data-name="Path 14157" d="M167.4,104.015a3.449,3.449,0,0,0,3.255-2.3A3.385,3.385,0,0,0,170.5,99.1a3.463,3.463,0,0,0-4.605-1.6,3.416,3.416,0,0,0-1.611,4.579A3.48,3.48,0,0,0,167.4,104.015Zm-1.782-4.036a1.848,1.848,0,0,1,.956-1.063,1.891,1.891,0,0,1,2.513.869,1.824,1.824,0,0,1,.083,1.408,1.851,1.851,0,0,1-.956,1.065,1.878,1.878,0,0,1-.814.185,1.9,1.9,0,0,1-1.7-1.056A1.822,1.822,0,0,1,165.615,99.979Z" transform="translate(-142.452 -86.588)" fill="#fff"></path><path id="Path_14158" data-name="Path 14158" d="M107.22,62.192a3.5,3.5,0,0,0,.769.086,3.429,3.429,0,0,0,3.364-2.664,3.393,3.393,0,0,0-.44-2.58,3.429,3.429,0,0,0-2.159-1.526,3.5,3.5,0,0,0-.773-.087,3.426,3.426,0,0,0-3.36,2.665,3.385,3.385,0,0,0,.437,2.58A3.424,3.424,0,0,0,107.22,62.192Zm-1.066-3.753a1.861,1.861,0,0,1,1.827-1.445,1.921,1.921,0,0,1,.424.048,1.867,1.867,0,0,1,1.176.83,1.829,1.829,0,0,1,.238,1.39A1.887,1.887,0,0,1,107.99,60.7a1.925,1.925,0,0,1-.423-.048,1.862,1.862,0,0,1-1.176-.829A1.824,1.824,0,0,1,106.154,58.439Z" transform="translate(-90.833 -50.322)" fill="#fff"></path><path id="Path_14159" data-name="Path 14159" d="M40.212,81.536a3.417,3.417,0,0,0,.547-4.824,3.472,3.472,0,0,0-4.847-.542,3.414,3.414,0,0,0-.547,4.824,3.467,3.467,0,0,0,4.846.542Zm-3.621-1.528a1.841,1.841,0,0,1,.3-2.6,1.9,1.9,0,0,1,2.647.294,1.844,1.844,0,0,1-.3,2.605,1.9,1.9,0,0,1-2.644-.3Z" transform="translate(-30.074 -67.704)" fill="#fff"></path><path id="Path_14160" data-name="Path 14160" d="M42.3,22.649a1.038,1.038,0,0,0-.761-.3c-.449,0-1.64,0-8.878,6.159l-.44.375A19.3,19.3,0,0,0,14.168,16.512h0a18.935,18.935,0,0,0-9,2.588C1.832,21.057,0,23.675,0,26.47c0,3.375,1.9,4.786,3.434,5.92,1.247.925,2.232,1.655,2.232,3.256s-.984,2.33-2.23,3.254C1.907,40.034,0,41.445.005,44.819c0,2.795,1.835,5.413,5.165,7.371a18.949,18.949,0,0,0,9.008,2.593h.006a19.243,19.243,0,0,0,13.636-5.6,18.917,18.917,0,0,0,5.648-13.324c1.221-1.389,2.4-2.77,3.484-4.072,1.847-2.226,3.268-4.063,4.222-5.46C42.437,24.48,42.991,23.346,42.3,22.649ZM26.712,48.068a17.679,17.679,0,0,1-12.529,5.143h0c-5.073,0-12.6-3.526-12.6-8.392,0-2.583,1.357-3.59,2.795-4.655,1.344-1,2.867-2.126,2.866-4.518S5.715,32.123,4.37,31.127c-1.438-1.067-2.8-2.074-2.8-4.657,0-2.988,2.747-5.05,4.386-6.013a17.531,17.531,0,0,1,8.206-2.371h0a17.723,17.723,0,0,1,16.781,11.9c-3.411,2.978-7.1,6.412-9.855,9.172-4.569.591-5.191,3.636-5.646,5.873-.387,1.9-.639,2.825-2.109,2.943a.786.786,0,0,0-.238,1.51,14.4,14.4,0,0,0,4.97.958h0a8.046,8.046,0,0,0,4.667-1.319,8.124,8.124,0,0,0,3.15-5.081c1.8-1.818,3.851-4.011,5.881-6.27A17.357,17.357,0,0,1,26.712,48.068Zm-2.4-4.178c-.833,3.3-2.93,4.976-6.238,4.976h0a11.794,11.794,0,0,1-2.41-.267,6.331,6.331,0,0,0,1.328-3.258c.432-2.124.841-4.135,4.184-4.612ZM35.168,31.471c-3.117,3.714-6.891,7.884-10,11.056l-.481-.485L22.569,39.9c2.816-2.8,6.429-6.146,9.8-9.072h0c.393-.341.783-.678,1.168-1.006a60.438,60.438,0,0,1,7.008-5.42A60.587,60.587,0,0,1,35.168,31.471Z" transform="translate(0 -16.512)" fill="#fff"></path></svg>