<svg xmlns="http://www.w3.org/2000/svg" id="_006-agronomy" data-name="006-agronomy" width="43.833" height="43.833" viewBox="0 0 43.833 43.833"><g id="Group_312" data-name="Group 312" transform="translate(12.38 5.557)"><g id="Group_311" data-name="Group 311"><path id="Path_14161" data-name="Path 14161" d="M163.357,81.808a.856.856,0,0,0-.528-.563,6.087,6.087,0,0,0-1.129-.264,7.274,7.274,0,0,0,1.657-7.14.856.856,0,0,0-.528-.563,7.368,7.368,0,0,0-4.6.048,7.691,7.691,0,0,0,.214-1.828,7.272,7.272,0,0,0-3.882-6.479.856.856,0,0,0-.771-.025,7.245,7.245,0,0,0-3.932,6.5,7.691,7.691,0,0,0,.215,1.832,7.367,7.367,0,0,0-4.614-.052.856.856,0,0,0-.528.563,7.274,7.274,0,0,0,1.657,7.14,6.088,6.088,0,0,0-1.129.264.857.857,0,0,0-.528.563,7.272,7.272,0,0,0,1.836,7.326A7.1,7.1,0,0,0,151.9,91.3a7.658,7.658,0,0,0,1.378-.125v5.6a.856.856,0,1,0,1.712,0v-5.6a7.67,7.67,0,0,0,1.39.127,7.1,7.1,0,0,0,5.139-2.164A7.272,7.272,0,0,0,163.357,81.808ZM153.28,88.5a5.711,5.711,0,0,1-.126.95,5.648,5.648,0,0,1-6.706-6.71,5.74,5.74,0,0,1,2.941.139q.123.046.245.087a5.612,5.612,0,0,1,1.99,1.3,5.458,5.458,0,0,1,1.657,3.659Zm0-7.968a5.708,5.708,0,0,1-.126.95,5.689,5.689,0,0,1-2.882-.115q-.186-.072-.369-.13a5.653,5.653,0,0,1-1.929-1.285,5.52,5.52,0,0,1-1.526-5.18,5.553,5.553,0,0,1,5.176,1.53l.036.038q.113.126.226.242a5.421,5.421,0,0,1,1.395,3.379Zm.868-4.3a5.821,5.821,0,0,1-1.048-.866c-.04-.044-.081-.088-.122-.132a5.461,5.461,0,0,1-1.412-3.747,5.526,5.526,0,0,1,2.576-4.743,5.52,5.52,0,0,1,2.585,4.743,5.461,5.461,0,0,1-1.281,3.6c-.139.139-.268.279-.391.42A5.75,5.75,0,0,1,154.148,76.241ZM155,80.259a5.42,5.42,0,0,1,1.323-3.584c.126-.125.253-.26.379-.405a5.525,5.525,0,0,1,5.137-1.5,5.52,5.52,0,0,1-1.526,5.181,5.654,5.654,0,0,1-1.925,1.284q-.186.06-.375.133a5.687,5.687,0,0,1-2.879.114A5.747,5.747,0,0,1,155,80.281C155,80.273,155,80.266,155,80.259Zm5.313,7.665a5.526,5.526,0,0,1-5.178,1.531,5.553,5.553,0,0,1,1.529-5.18,5.652,5.652,0,0,1,1.931-1.286q.183-.059.368-.13a5.691,5.691,0,0,1,2.877-.116A5.52,5.52,0,0,1,160.31,87.924Z" transform="translate(-144.606 -64.913)" fill="#fff"></path></g></g><g id="Group_314" data-name="Group 314" transform="translate(0)"><g id="Group_313" data-name="Group 313"><path id="Path_14162" data-name="Path 14162" d="M26.484.477A22.064,22.064,0,0,0,21.916,0,21.916,21.916,0,0,0,4.631,35.39a3.249,3.249,0,1,0,1.277-1.148A20.213,20.213,0,0,1,26.129,2.152.856.856,0,1,0,26.484.477ZM6.277,36.061a1.541,1.541,0,1,1-.451,1.09A1.536,1.536,0,0,1,6.277,36.061Z" transform="translate(0 0)" fill="#fff"></path></g></g><g id="Group_316" data-name="Group 316" transform="translate(17.341 3.429)"><g id="Group_315" data-name="Group 315"><path id="Path_14163" data-name="Path 14163" d="M224.417,45.065a3.249,3.249,0,1,0-1.277,1.148,20.213,20.213,0,0,1-19.577,32.216.856.856,0,0,0-.3,1.686,22.121,22.121,0,0,0,3.869.341,21.916,21.916,0,0,0,17.285-35.39Zm-1.646-.671a1.541,1.541,0,1,1,.451-1.09A1.531,1.531,0,0,1,222.771,44.394Z" transform="translate(-202.556 -40.051)" fill="#fff"></path></g></g><g id="Group_318" data-name="Group 318" transform="translate(13.215 40.61)"><g id="Group_317" data-name="Group 317"><path id="Path_14164" data-name="Path 14164" d="M155.535,474.424l-.323.793.321-.794a.856.856,0,0,0-.642,1.587l.026.01a.856.856,0,1,0,.618-1.6Z" transform="translate(-154.355 -474.36)" fill="#fff"></path></g></g><g id="Group_320" data-name="Group 320" transform="translate(28.93 1.52)"><g id="Group_319" data-name="Group 319"><path id="Path_14165" data-name="Path 14165" d="M339.118,17.821l-.015-.006a.856.856,0,1,0-.636,1.59l.01,0a.856.856,0,1,0,.641-1.588Z" transform="translate(-337.929 -17.754)" fill="#fff"></path></g></g></svg>