<svg xmlns="http://www.w3.org/2000/svg" id="_007-social-care" data-name="007-social-care" width="40.123" height="40.123" viewBox="0 0 40.123 40.123"><g id="Group_322" data-name="Group 322" transform="translate(6.005 36.894)"><g id="Group_321" data-name="Group 321"><path id="Path_14166" data-name="Path 14166" d="M79.226,472.783l-1.18-1.662a.784.784,0,1,0-1.278.907l1.18,1.662a.784.784,0,1,0,1.278-.907Z" transform="translate(-76.624 -470.791)" fill="#fff"></path></g></g><g id="Group_324" data-name="Group 324" transform="translate(0 12.26)"><g id="Group_323" data-name="Group 323"><path id="Path_14167" data-name="Path 14167" d="M17.649,183.369l-1.284-6.119A11.541,11.541,0,0,0,11.485,170l-2.741-1.843a2.758,2.758,0,0,0-3.5.357v-9.443a2.623,2.623,0,0,0-4.265-2.046A2.611,2.611,0,0,0,0,159.075v12.151a7.591,7.591,0,0,0,1.409,4.418l1.4,1.969a.784.784,0,0,0,1.278-.907l-1.4-1.969a6.032,6.032,0,0,1-1.119-3.51V159.075a1.056,1.056,0,1,1,2.112,0v9.64a5.475,5.475,0,0,0,1.412,3.676c.039.047.079.093.122.138.52.551,1.132,1.2,1.709,1.814l.807.859.008.008,1.21,1.287a.784.784,0,1,0,1.142-1.073l-1.979-2.106-1.8-1.912-.013-.015a1.322,1.322,0,0,1,.026-1.733,1.185,1.185,0,0,1,1.543-.2l2.741,1.843a9.981,9.981,0,0,1,4.221,6.267l1.284,6.12a.784.784,0,1,0,1.534-.322Z" transform="translate(-0.001 -156.451)" fill="#fff"></path></g></g><g id="Group_326" data-name="Group 326" transform="translate(4.379 34.604)"><g id="Group_325" data-name="Group 325"><path id="Path_14168" data-name="Path 14168" d="M57.311,441.911l-.005-.007a.784.784,0,1,0-1.276.91l.005.007a.784.784,0,0,0,1.276-.91Z" transform="translate(-55.884 -441.575)" fill="#fff"></path></g></g><g id="Group_328" data-name="Group 328" transform="translate(22.458 12.261)"><g id="Group_327" data-name="Group 327"><path id="Path_14169" data-name="Path 14169" d="M303.264,157.032A2.623,2.623,0,0,0,299,159.078v9.443a2.758,2.758,0,0,0-3.5-.357l-2.741,1.843a11.54,11.54,0,0,0-4.881,7.245l-1.284,6.12a.784.784,0,1,0,1.534.322l1.284-6.119a9.982,9.982,0,0,1,4.221-6.266l2.741-1.843a1.185,1.185,0,0,1,1.543.2,1.322,1.322,0,0,1,.027,1.731l-.015.017-3.776,4.018A.784.784,0,1,0,295.3,176.5c.011-.011,3.213-3.416,3.733-3.967.042-.045.082-.091.122-.138a5.476,5.476,0,0,0,1.412-3.676v-9.64a1.056,1.056,0,0,1,2.112,0v12.151a6.032,6.032,0,0,1-1.119,3.51l-5.921,8.34a.784.784,0,1,0,1.278.907l5.921-8.34a7.591,7.591,0,0,0,1.409-4.418V159.078A2.612,2.612,0,0,0,303.264,157.032Z" transform="translate(-286.58 -156.454)" fill="#fff"></path></g></g><g id="Group_330" data-name="Group 330" transform="translate(7.319 4.232)"><g id="Group_329" data-name="Group 329"><path id="Path_14170" data-name="Path 14170" d="M116.059,64.788l-1.394-.333V64.2a3.5,3.5,0,0,0,1.5-2.874V59.519a3.5,3.5,0,0,0-5.783-2.666,4.576,4.576,0,0,0-8.48.006,3.5,3.5,0,0,0-5.79,2.659v1.813a3.5,3.5,0,0,0,1.5,2.874v.25l-1.394.333A3.671,3.671,0,0,0,93.39,68.37v1.464a.784.784,0,0,0,.784.784h3.6c-.006.1-.009.191-.009.287v2.818a.784.784,0,0,0,.784.784h4.711a.784.784,0,1,0,0-1.567h-.81V71.319a.784.784,0,1,0-1.567,0v1.62h-1.55V70.9a3.245,3.245,0,0,1,2.5-3.165l2.151-.515,1.439,3.274a.784.784,0,0,0,.717.468h0a.784.784,0,0,0,.717-.468l1.438-3.269,2.144.512a3.244,3.244,0,0,1,2.5,3.166v2.032h-1.55v-1.62a.784.784,0,1,0-1.567,0v1.62h-.888a.784.784,0,1,0,0,1.567h4.789a.784.784,0,0,0,.784-.784V70.906c0-.1,0-.193-.01-.289H118.1a.784.784,0,0,0,.784-.784V68.37A3.671,3.671,0,0,0,116.059,64.788Zm-3.4-7.209a1.943,1.943,0,0,1,1.936,1.812H113.5a5.712,5.712,0,0,1-2.628-.64A1.943,1.943,0,0,1,112.657,57.578Zm-1.94,3.638c0-.038,0-.076,0-.115v-.7a7.279,7.279,0,0,0,2.783.554H114.6v.373a1.94,1.94,0,1,1-3.88,0Zm-7.585-2.639h0a3.01,3.01,0,0,1,5.982-.478l-1.319-.775a.784.784,0,0,0-1,.172,3.376,3.376,0,0,1-2.594,1.211h-1.071Zm-3.514-1A1.943,1.943,0,0,1,101.4,58.75a5.712,5.712,0,0,1-2.628.64h-1.09A1.943,1.943,0,0,1,99.619,57.578Zm-1.94,3.379h1.094a7.28,7.28,0,0,0,2.786-.555v.928a1.94,1.94,0,0,1-3.88,0Zm3.785,5.257a4.806,4.806,0,0,0-3.33,2.835H94.957v-.68a2.109,2.109,0,0,1,1.624-2.058l2-.477a.784.784,0,0,0,.6-.762V64.81a3.4,3.4,0,0,0,.876,0v.224c0,.012,0,.023,0,.035a.785.785,0,0,0,.637.771l1.169.28ZM103.65,65a3.677,3.677,0,0,0-.627-.212l-1.4-.335v-.244a3.536,3.536,0,0,0,.679-.62,4.613,4.613,0,0,0,1.348,1.351Zm3.4,1.151-.917,2.086-.919-2.091v-.559a4.593,4.593,0,0,0,1.836,0Zm-.91-2.038a3.013,3.013,0,0,1-3.01-3.01v-.828H104.2a4.938,4.938,0,0,0,3.33-1.286l1.616.949v1.279A3.013,3.013,0,0,1,106.143,64.112Zm2.478.889v-.053a4.612,4.612,0,0,0,1.359-1.355,3.536,3.536,0,0,0,.673.614v.244l-1.4.335A3.69,3.69,0,0,0,108.621,65Zm8.7,4.049h-3.187a4.805,4.805,0,0,0-3.332-2.834l-.393-.094,1.175-.282a.784.784,0,0,0,.64-.772c0-.006,0-.012,0-.018v-.24a3.4,3.4,0,0,0,.876,0v.263a.784.784,0,0,0,.6.762l2,.477a2.109,2.109,0,0,1,1.624,2.058Z" transform="translate(-93.39 -54)" fill="#fff"></path></g></g><g id="Group_332" data-name="Group 332" transform="translate(19.278 23.17)"><g id="Group_331" data-name="Group 331"><path id="Path_14171" data-name="Path 14171" d="M247.338,295.9a.784.784,0,1,0,.23.555A.79.79,0,0,0,247.338,295.9Z" transform="translate(-246 -295.67)" fill="#fff"></path></g></g><g id="Group_334" data-name="Group 334" transform="translate(19.277)"><g id="Group_333" data-name="Group 333"><path id="Path_14172" data-name="Path 14172" d="M246.777,0a.784.784,0,0,0-.784.784V1.956a.784.784,0,0,0,1.567,0V.784A.784.784,0,0,0,246.777,0Z" transform="translate(-245.993)" fill="#fff"></path></g></g><g id="Group_336" data-name="Group 336" transform="translate(15.015 1.506)"><g id="Group_335" data-name="Group 335"><path id="Path_14173" data-name="Path 14173" d="M193.759,20.263l-.822-.821a.784.784,0,1,0-1.108,1.109l.822.821a.784.784,0,1,0,1.108-1.109Z" transform="translate(-191.599 -19.213)" fill="#fff"></path></g></g><g id="Group_338" data-name="Group 338" transform="translate(22.706 1.526)"><g id="Group_337" data-name="Group 337"><path id="Path_14174" data-name="Path 14174" d="M291.9,19.7a.784.784,0,0,0-1.108,0l-.816.816a.784.784,0,1,0,1.109,1.108l.816-.816A.784.784,0,0,0,291.9,19.7Z" transform="translate(-289.746 -19.469)" fill="#fff"></path></g></g></svg>