<svg xmlns="http://www.w3.org/2000/svg" id="_008-interview" data-name="008-interview" width="46.959" height="46.867" viewBox="0 0 46.959 46.867"><path id="Path_14175" data-name="Path 14175" d="M392.381,159.225a.917.917,0,0,0-1.282-.2l-1.725,1.268.237-2.127a.917.917,0,1,0-1.823-.2l-.468,4.207a.917.917,0,0,0,1.453.841h0l0,0h0l3.408-2.506A.917.917,0,0,0,392.381,159.225Z" transform="translate(-351.791 -142.784)" fill="#fff"></path><g id="Group_339" data-name="Group 339" transform="translate(4.396 19.661)"><path id="Path_14176" data-name="Path 14176" d="M48.85,216.7a.917.917,0,0,1-.819-1.324l0-.005a.917.917,0,1,1,.817,1.33Z" transform="translate(-47.934 -214.866)" fill="#fff"></path></g><g id="Group_340" data-name="Group 340" transform="translate(0 0)"><path id="Path_14177" data-name="Path 14177" d="M45.179,14.7l-.257-.148.929-1.608a8.3,8.3,0,0,0-14.374-8.3l-.928,1.61-.257-.148a2.747,2.747,0,0,0-3.746,1l-4.27,7.394A2.717,2.717,0,0,0,22,16.584c0,.016.009.031.013.046L18.748,18.1a1.55,1.55,0,0,1-.577.2,3.319,3.319,0,0,1-.65-.334l-1.211-.7a2.633,2.633,0,0,0,.068-1.587A2.525,2.525,0,0,0,15.2,14.128l-2.959-1.706a2.525,2.525,0,0,0-1.932-.251,2.646,2.646,0,0,0-1.619,1.243L6.581,17.062a.917.917,0,0,0,1.589.917l2.106-3.648a.823.823,0,0,1,.5-.388.706.706,0,0,1,.541.066l2.962,1.708a.7.7,0,0,1,.326.435.821.821,0,0,1-.086.627l-.219.378,0,0,0,0L6.191,31.2a.776.776,0,0,1-1.043.325L2.191,29.816a.775.775,0,0,1-.242-1.065L4.057,25.1a.917.917,0,0,0-1.588-.918L.36,27.833A2.61,2.61,0,0,0,1.273,31.4l2.959,1.708a2.515,2.515,0,0,0,1.259.336,2.644,2.644,0,0,0,2.011-.94l3.889,2.244a1.881,1.881,0,0,1,1.05,1.458,3.964,3.964,0,0,0,2.105,2.78l.3.172-1,1.73a3.043,3.043,0,0,0,1.113,4.15l3.329,1.921a3.045,3.045,0,0,0,4.151-1.113l1-1.729a2.917,2.917,0,0,0,4.34-2.473,3.218,3.218,0,0,0,3.039-1.6,3.181,3.181,0,0,0,.426-1.752,3.21,3.21,0,0,0,3.134-4.433,3.211,3.211,0,0,0,.487-5.792l-1.618-.933L34.6,24.79l3.563,2.056a2.744,2.744,0,0,0,3.746-1l4.271-7.4a2.748,2.748,0,0,0-1-3.745ZM33.064,5.563a6.464,6.464,0,0,1,11.2,6.463l-.929,1.608-11.2-6.461ZM19.2,45.373l-3.327-1.92a1.206,1.206,0,0,1-.442-1.645l1-1.729,2.548,1.471L21.848,43.2l-1,1.728a1.209,1.209,0,0,1-1.646.442ZM34.45,31.547a1.382,1.382,0,0,1-1.885.5l-.021-.012L29.583,30.33a.917.917,0,1,0-.917,1.589L32.1,33.9a1.379,1.379,0,1,1-1.381,2.388L29.706,35.7l-.069-.041-.037-.02-2.316-1.336a.917.917,0,1,0-.917,1.589l2.4,1.383a1.378,1.378,0,0,1-1.424,2.36l-2.678-1.544a.917.917,0,1,0-.916,1.589l1.627.938.026.016a1.083,1.083,0,1,1-1.082,1.876l-.748-.432-.012-.008-.012-.006L19.9,39.961,15.464,37.4a2.172,2.172,0,0,1-1.249-1.66,3.672,3.672,0,0,0-1.907-2.579l-3.85-2.221L15.43,18.872l1.019.588.15.087a3.09,3.09,0,0,0,1.567.582,3.3,3.3,0,0,0,1.334-.357l3.608-1.625c.054.037.109.072.166.105l2.745,1.584-.1.169c-.907,1.55-1.935,3.308.366,5.223a.922.922,0,0,0,.128.09l5.1,2.94.023.015.019.009,2.393,1.381a1.382,1.382,0,0,1,.5,1.884Zm-2.793-5.322L27.4,23.77c-1-.855-.829-1.245.1-2.838l.1-.179,5.405,3.119Zm12.937-8.7-4.271,7.4a.921.921,0,0,1-1.241.332l-4.343-2.506-.014-.009-.015-.008-10.519-6.07a.911.911,0,0,1-.33-1.239l4.272-7.4a.9.9,0,0,1,.551-.42.928.928,0,0,1,.239-.032.9.9,0,0,1,.449.12h0L43.18,15.664l.029.019.024.012,1.029.594a.913.913,0,0,1,.333,1.24Z" transform="translate(0 -0.5)" fill="#fff"></path><path id="Path_14178" data-name="Path 14178" d="M322.682,118.911l-1.471-.85-1.471-.85a.917.917,0,0,0-.917,1.588l.677.391-1.481,2.563a.917.917,0,1,0,1.588.917l1.481-2.563.677.391a.917.917,0,1,0,.917-1.588Z" transform="translate(-288.739 -106.396)" fill="#fff"></path></g></svg>