<svg xmlns="http://www.w3.org/2000/svg" id="_009-balance" data-name="009-balance" width="48.241" height="48.241" viewBox="0 0 48.241 48.241"><g id="Group_341" data-name="Group 341" transform="translate(0 0)"><path id="Path_14179" data-name="Path 14179" d="M48.162,29.415l.007,0-7.92-17.281,1.921-.956-.719-1.439-1.873.933-.253-.552a.8.8,0,0,0-1.462,0l-.226.494a10.342,10.342,0,0,0-4.35-.962H26.534V8.04h1.608V6.432H26.76l.578-2.313a3.315,3.315,0,1,0-6.432,0l.578,2.313H20.1V8.04H21.71V9.648h-6.75a10.343,10.343,0,0,0-4.354.965l-.226-.494a.8.8,0,0,0-1.462,0l-.253.552L6.793,9.735l-.719,1.441L8,12.135.075,29.413A.785.785,0,0,0,0,29.748,5.635,5.635,0,0,0,5.63,35.376h8.04A5.635,5.635,0,0,0,19.3,29.748a.786.786,0,0,0-.08-.333L11.276,12.069a8.745,8.745,0,0,1,3.685-.813h6.75V40.671l-2.745,2.745H16.082a4.025,4.025,0,0,0-4.02,4.02.8.8,0,0,0,.8.8H35.378a.8.8,0,0,0,.8-.8,4.025,4.025,0,0,0-4.02-4.02H29.279l-2.745-2.745V11.256h6.754a8.745,8.745,0,0,1,3.685.813L29.019,29.413a.785.785,0,0,0-.073.335,5.635,5.635,0,0,0,5.628,5.628h8.04a5.635,5.635,0,0,0,5.628-5.628A.783.783,0,0,0,48.162,29.415ZM13.67,33.768H5.63a4.027,4.027,0,0,1-3.94-3.216H17.61A4.026,4.026,0,0,1,13.67,33.768Zm3.571-4.824H2.059L9.444,12.831a.794.794,0,0,0,.412,0Zm5.536-26.68a1.759,1.759,0,0,1,2.69,0,1.7,1.7,0,0,1,.311,1.465l-.676,2.7h-1.96l-.676-2.7A1.7,1.7,0,0,1,22.777,2.264Zm.541,7.384V8.04h1.608V9.648Zm1.608,1.608V40.2H23.318V11.256Zm7.236,33.768a2.417,2.417,0,0,1,2.275,1.608H13.808a2.417,2.417,0,0,1,2.275-1.608Zm-5.157-1.608H21.239l1.608-1.608H25.4ZM38.387,12.833a.549.549,0,0,0,.407-.017l7.392,16.128H31Zm4.227,20.935h-8.04a4.027,4.027,0,0,1-3.94-3.216H46.554A4.026,4.026,0,0,1,42.614,33.768Z" transform="translate(-0.002 0.001)" fill="#fff"></path></g></svg>