<svg xmlns="http://www.w3.org/2000/svg" id="_010-open-book" data-name="010-open-book" width="40.866" height="40.866" viewBox="0 0 40.866 40.866"><g id="Group_343" data-name="Group 343" transform="translate(0 0)"><g id="Group_342" data-name="Group 342"><path id="Path_14180" data-name="Path 14180" d="M290.2,199.981a.682.682,0,0,0,.917.3,58.383,58.383,0,0,1,6.026-2.681.682.682,0,0,0-.411-1.3,58.413,58.413,0,0,0-6.233,2.767A.681.681,0,0,0,290.2,199.981Z" transform="translate(-266.973 -180.601)" fill="#fff"></path><path id="Path_14181" data-name="Path 14181" d="M290.812,97.954a.68.68,0,0,0,.309-.074,58.39,58.39,0,0,1,6.026-2.681.682.682,0,0,0-.411-1.3,58.417,58.417,0,0,0-6.233,2.767.681.681,0,0,0,.31,1.288Z" transform="translate(-266.973 -86.375)" fill="#fff"></path><path id="Path_14182" data-name="Path 14182" d="M40.186,10.217a.681.681,0,0,0-.681.681V37.46A2.046,2.046,0,0,1,37.462,39.5H21.116V37.936a20.071,20.071,0,0,1,6.13-1.157,35.131,35.131,0,0,1,10,1.327.681.681,0,0,0,.9-.646V7.492a.68.68,0,0,0-.533-.665s-.534-.119-1.447-.287a.681.681,0,0,0-.247,1.34c.348.064.64.121.864.166V36.555a38.465,38.465,0,0,0-9.535-1.138,21.4,21.4,0,0,0-6.784,1.3,15.955,15.955,0,0,0-6.156-1.3A45.9,45.9,0,0,0,4.088,36.584V8.019A44.831,44.831,0,0,1,14.3,6.811a14.767,14.767,0,0,1,5.449,1.122v26.8a.681.681,0,0,0,1.032.584,77.976,77.976,0,0,1,12.805-6.067.681.681,0,0,0,.466-.646V.681a.682.682,0,0,0-.921-.638A72.452,72.452,0,0,0,22.117,5.553a.681.681,0,1,0,.722,1.155,72.8,72.8,0,0,1,9.855-5.031V28.119a76.327,76.327,0,0,0-11.579,5.434V7.492a.682.682,0,0,0-.377-.61A15.771,15.771,0,0,0,14.3,5.449,44.2,44.2,0,0,0,3.22,6.838a.681.681,0,0,0-.494.655V37.46a.681.681,0,0,0,.681.681.671.671,0,0,0,.187-.027A43.752,43.752,0,0,1,14.3,36.779,14.734,14.734,0,0,1,19.754,37.9v1.6H3.407A2.046,2.046,0,0,1,1.364,37.46V10.9A.681.681,0,0,0,0,10.9V37.46a3.409,3.409,0,0,0,3.405,3.405H37.462a3.409,3.409,0,0,0,3.405-3.405V10.9A.681.681,0,0,0,40.186,10.217Z" transform="translate(-0.002 0)" fill="#fff"></path><path id="Path_14183" data-name="Path 14183" d="M290.2,148.781a.682.682,0,0,0,.917.3,58.385,58.385,0,0,1,6.026-2.681.682.682,0,0,0-.411-1.3,58.413,58.413,0,0,0-6.233,2.767A.681.681,0,0,0,290.2,148.781Z" transform="translate(-266.973 -133.488)" fill="#fff"></path><path id="Path_14184" data-name="Path 14184" d="M290.2,251.181a.682.682,0,0,0,.917.3,58.38,58.38,0,0,1,6.026-2.681.682.682,0,0,0-.411-1.3,58.41,58.41,0,0,0-6.233,2.767A.681.681,0,0,0,290.2,251.181Z" transform="translate(-266.973 -227.715)" fill="#fff"></path><path id="Path_14185" data-name="Path 14185" d="M95.024,154.021a21.615,21.615,0,0,0-9.186.324.681.681,0,0,0,.176,1.339.693.693,0,0,0,.177-.023,20.526,20.526,0,0,1,8.523-.314.681.681,0,1,0,.31-1.326Z" transform="translate(-78.522 -141.381)" fill="#fff"></path><path id="Path_14186" data-name="Path 14186" d="M95.024,205.225a21.629,21.629,0,0,0-9.186.324.681.681,0,0,0,.176,1.339.693.693,0,0,0,.177-.023,20.526,20.526,0,0,1,8.523-.314.681.681,0,1,0,.31-1.326Z" transform="translate(-78.522 -188.498)" fill="#fff"></path><path id="Path_14187" data-name="Path 14187" d="M290.2,302.381a.682.682,0,0,0,.917.3A58.385,58.385,0,0,1,297.147,300a.682.682,0,0,0-.411-1.3,58.416,58.416,0,0,0-6.233,2.767A.681.681,0,0,0,290.2,302.381Z" transform="translate(-266.973 -274.828)" fill="#fff"></path><path id="Path_14188" data-name="Path 14188" d="M95.024,256.424a21.617,21.617,0,0,0-9.186.324.682.682,0,0,0,.176,1.34.691.691,0,0,0,.177-.024,20.526,20.526,0,0,1,8.523-.314.681.681,0,1,0,.31-1.326Z" transform="translate(-78.522 -235.61)" fill="#fff"></path><path id="Path_14189" data-name="Path 14189" d="M95.024,358.821a21.616,21.616,0,0,0-9.186.324.682.682,0,0,0,.176,1.34.691.691,0,0,0,.177-.024,20.526,20.526,0,0,1,8.523-.314.681.681,0,1,0,.31-1.326Z" transform="translate(-78.522 -329.835)" fill="#fff"></path><path id="Path_14190" data-name="Path 14190" d="M95.024,307.62a21.6,21.6,0,0,0-9.186.324.682.682,0,0,0,.176,1.34.691.691,0,0,0,.177-.024,20.526,20.526,0,0,1,8.523-.314.681.681,0,1,0,.31-1.326Z" transform="translate(-78.522 -282.72)" fill="#fff"></path></g></g></svg>