<svg xmlns="http://www.w3.org/2000/svg" width="19.151" height="19.108" viewBox="0 0 19.151 19.108"><g id="call-answer" transform="translate(0 -0.394)"><g id="Group_152" data-name="Group 152" transform="translate(0 0.394)"><g id="Group_151" data-name="Group 151" transform="translate(0 0)"><path id="Path_3621" data-name="Path 3621" d="M18.721,15.507l-2.958-2.958a1.542,1.542,0,0,0-2.174.041L12.1,14.08l-.294-.164a14.828,14.828,0,0,1-3.584-2.592,14.911,14.911,0,0,1-2.6-3.59c-.055-.1-.108-.2-.16-.287l1-1,.492-.492A1.541,1.541,0,0,0,7,3.781L4.038.823A1.541,1.541,0,0,0,1.863.864L1.03,1.7l.023.023A4.82,4.82,0,0,0,.366,2.936,5.023,5.023,0,0,0,.06,4.165c-.391,3.238,1.089,6.2,5.1,10.212,5.55,5.55,10.023,5.13,10.216,5.11a5,5,0,0,0,1.232-.31,4.8,4.8,0,0,0,1.207-.684l.018.016.844-.827A1.544,1.544,0,0,0,18.721,15.507Z" transform="translate(0 -0.394)" fill="#0bcf7a"></path></g></g></g></svg>