<svg xmlns="http://www.w3.org/2000/svg" width="105.399" height="94.691" viewBox="0 0 105.399 94.691"><g id="_005-paint-palette-and-brush" data-name="005-paint-palette-and-brush" opacity="0.18"><path id="Path_14156" data-name="Path 14156" d="M55.939,207.091a8.611,8.611,0,0,0-5.317-1.846,8.522,8.522,0,0,0-6.673,3.185A8.446,8.446,0,0,0,45.3,220.365a8.607,8.607,0,0,0,5.316,1.846,8.517,8.517,0,0,0,6.674-3.189,8.445,8.445,0,0,0-1.355-11.932Zm-1.677,9.493a4.686,4.686,0,0,1-6.544.728,4.555,4.555,0,0,1-.737-6.444,4.691,4.691,0,0,1,6.545-.725,4.553,4.553,0,0,1,.736,6.441Z" transform="translate(-28.435 -144.046)" fill="#2a7818"></path><path id="Path_14157" data-name="Path 14157" d="M172.5,114.125a8.533,8.533,0,0,0,8.054-5.7,8.374,8.374,0,0,0-.377-6.467A8.569,8.569,0,0,0,168.779,98a8.453,8.453,0,0,0-3.987,11.328A8.61,8.61,0,0,0,172.5,114.125Zm-4.408-9.986a4.571,4.571,0,0,1,2.366-2.631,4.678,4.678,0,0,1,6.218,2.15,4.512,4.512,0,0,1,.2,3.484,4.58,4.58,0,0,1-2.366,2.634,4.647,4.647,0,0,1-2.015.458,4.7,4.7,0,0,1-4.205-2.612A4.508,4.508,0,0,1,168.088,104.139Z" transform="translate(-110.779 -71.007)" fill="#2a7818"></path><path id="Path_14158" data-name="Path 14158" d="M111.181,72.172a8.652,8.652,0,0,0,1.9.213,8.485,8.485,0,0,0,8.322-6.591,8.4,8.4,0,0,0-1.088-6.382,8.483,8.483,0,0,0-5.343-3.776,8.647,8.647,0,0,0-1.912-.215,8.477,8.477,0,0,0-8.313,6.594,8.375,8.375,0,0,0,1.082,6.382A8.471,8.471,0,0,0,111.181,72.172Zm-2.638-9.285a4.6,4.6,0,0,1,4.521-3.575,4.753,4.753,0,0,1,1.05.119,4.619,4.619,0,0,1,2.91,2.054,4.524,4.524,0,0,1,.589,3.439,4.669,4.669,0,0,1-4.53,3.571,4.762,4.762,0,0,1-1.047-.118,4.608,4.608,0,0,1-2.91-2.051A4.512,4.512,0,0,1,108.544,62.888Z" transform="translate(-70.637 -42.804)" fill="#2a7818"></path><path id="Path_14159" data-name="Path 14159" d="M48.471,90.544a8.454,8.454,0,0,0,1.353-11.936,8.591,8.591,0,0,0-11.991-1.341A8.446,8.446,0,0,0,36.481,89.2a8.579,8.579,0,0,0,11.99,1.34Zm-8.958-3.78a4.556,4.556,0,0,1,.731-6.443,4.7,4.7,0,0,1,6.549.727,4.563,4.563,0,0,1-.738,6.446,4.689,4.689,0,0,1-6.542-.73Z" transform="translate(-23.387 -56.322)" fill="#2a7818"></path><path id="Path_14160" data-name="Path 14160" d="M104.655,31.7a2.569,2.569,0,0,0-1.883-.744c-1.11,0-4.058,0-21.966,15.238q-.54.459-1.088.929A47.743,47.743,0,0,0,35.054,16.512h-.008a46.847,46.847,0,0,0-22.276,6.4C4.534,27.758,0,34.233,0,41.149,0,49.5,4.712,52.99,8.5,55.8c3.085,2.288,5.522,4.1,5.524,8.056S11.584,69.618,8.5,71.9C4.718,74.708.01,78.2.013,86.549c0,6.915,4.54,13.392,12.778,18.238A46.884,46.884,0,0,0,35.077,111.2h.014A47.61,47.61,0,0,0,68.829,97.35,46.8,46.8,0,0,0,82.8,64.385c3.021-3.438,5.947-6.854,8.619-10.074C95.993,48.8,99.508,44.258,101.869,40.8,105,36.227,106.366,33.42,104.655,31.7ZM66.09,94.587a43.74,43.74,0,0,1-31,12.725h-.012c-12.551,0-31.172-8.724-31.175-20.764,0-6.39,3.357-8.881,6.914-11.518,3.325-2.465,7.093-5.259,7.092-11.179s-3.771-8.714-7.1-11.18c-3.558-2.639-6.92-5.132-6.922-11.523,0-7.394,6.8-12.495,10.851-14.878,6.063-3.565,14.032-5.867,20.3-5.867h.007A43.85,43.85,0,0,1,76.572,49.841C68.133,57.21,58.995,65.705,52.189,72.533c-11.3,1.463-12.843,9-13.969,14.531-.959,4.712-1.581,6.99-5.218,7.282a1.946,1.946,0,0,0-.589,3.737,35.629,35.629,0,0,0,12.3,2.37h0A19.907,19.907,0,0,0,56.26,97.19c3.861-2.668,6.478-6.9,7.794-12.571,4.447-4.5,9.528-9.924,14.552-15.512A42.945,42.945,0,0,1,66.09,94.587ZM60.145,84.251c-2.062,8.17-7.249,12.312-15.433,12.311h0a29.18,29.18,0,0,1-5.962-.661c2.075-2.116,2.723-5.3,3.285-8.061,1.069-5.256,2.08-10.23,10.351-11.411ZM87.012,53.524C79.3,62.712,69.964,73.031,62.279,80.877l-1.19-1.2-5.25-5.291C62.807,67.45,71.746,59.18,80.086,51.942h0c.972-.844,1.938-1.677,2.89-2.489,9.678-8.254,14.75-11.846,17.338-13.41C98.768,38.647,95.209,43.757,87.012,53.524Z" transform="translate(0 -16.512)" fill="#2a7818"></path></g></svg>