<svg xmlns="http://www.w3.org/2000/svg" width="102.372" height="102.372" viewBox="0 0 102.372 102.372"><g id="_006-agronomy" data-name="006-agronomy" opacity="0.2"><g id="Group_312" data-name="Group 312" transform="translate(28.913 12.979)"><g id="Group_311" data-name="Group 311"><path id="Path_14161" data-name="Path 14161" d="M188.4,104.373a2,2,0,0,0-1.232-1.316,14.216,14.216,0,0,0-2.638-.617,16.989,16.989,0,0,0,3.87-16.677,2,2,0,0,0-1.232-1.316,17.208,17.208,0,0,0-10.752.112,17.964,17.964,0,0,0,.5-4.27,16.983,16.983,0,0,0-9.066-15.131,2,2,0,0,0-1.8-.059,16.921,16.921,0,0,0-9.183,15.19,17.963,17.963,0,0,0,.5,4.279,17.206,17.206,0,0,0-10.776-.12,2,2,0,0,0-1.232,1.316,16.989,16.989,0,0,0,3.87,16.677,14.218,14.218,0,0,0-2.638.617,2,2,0,0,0-1.232,1.316,16.984,16.984,0,0,0,4.289,17.11,16.591,16.591,0,0,0,12,5.053,17.887,17.887,0,0,0,3.218-.293v13.083a2,2,0,1,0,4,0V126.239a17.913,17.913,0,0,0,3.247.3,16.592,16.592,0,0,0,12-5.053A16.984,16.984,0,0,0,188.4,104.373Zm-23.536,15.638a13.338,13.338,0,0,1-.294,2.219,13.192,13.192,0,0,1-15.663-15.672,13.406,13.406,0,0,1,6.869.325q.287.107.571.2A13.108,13.108,0,0,1,161,110.132a12.748,12.748,0,0,1,3.869,8.545Zm0-18.609a13.332,13.332,0,0,1-.294,2.219,13.287,13.287,0,0,1-6.731-.268q-.434-.167-.862-.3a13.2,13.2,0,0,1-4.505-3,12.892,12.892,0,0,1-3.565-12.1A12.968,12.968,0,0,1,161,91.523c.029.029.056.059.084.088q.263.3.527.566a12.662,12.662,0,0,1,3.258,7.891Zm2.028-10.032a13.592,13.592,0,0,1-2.447-2.022c-.094-.1-.188-.205-.285-.307a12.755,12.755,0,0,1-3.3-8.751,12.907,12.907,0,0,1,6.017-11.077,12.892,12.892,0,0,1,6.037,11.077,12.753,12.753,0,0,1-2.992,8.416c-.324.324-.627.652-.913.981A13.431,13.431,0,0,1,166.892,91.37Zm1.984,9.384a12.658,12.658,0,0,1,3.091-8.371c.295-.293.591-.608.884-.946a12.9,12.9,0,0,1,12-3.492,12.893,12.893,0,0,1-3.564,12.1,13.2,13.2,0,0,1-4.5,3q-.435.14-.876.31a13.282,13.282,0,0,1-6.724.267,13.424,13.424,0,0,1-.31-2.816C168.876,100.788,168.876,100.771,168.876,100.754Zm12.408,17.9a12.906,12.906,0,0,1-12.094,3.576,12.968,12.968,0,0,1,3.571-12.1,13.2,13.2,0,0,1,4.509-3q.427-.137.859-.3a13.291,13.291,0,0,1,6.718-.271A12.893,12.893,0,0,1,181.284,118.655Z" transform="translate(-144.606 -64.913)" fill="#2a7818"></path></g></g><g id="Group_314" data-name="Group 314" transform="translate(0)"><g id="Group_313" data-name="Group 313"><path id="Path_14162" data-name="Path 14162" d="M61.855,1.114A51.531,51.531,0,0,0,51.186,0a51.185,51.185,0,0,0-40.37,82.654A7.589,7.589,0,1,0,13.8,79.973,47.209,47.209,0,0,1,61.025,5.026a2,2,0,1,0,.83-3.912ZM14.661,84.221a3.6,3.6,0,1,1-1.054,2.545A3.587,3.587,0,0,1,14.661,84.221Z" transform="translate(0 0)" fill="#2a7818"></path></g></g><g id="Group_316" data-name="Group 316" transform="translate(40.5 8.008)"><g id="Group_315" data-name="Group 315"><path id="Path_14163" data-name="Path 14163" d="M253.612,51.761a7.588,7.588,0,1,0-2.983,2.681,47.209,47.209,0,0,1-45.723,75.241,2,2,0,0,0-.7,3.937,51.664,51.664,0,0,0,9.037.8,51.185,51.185,0,0,0,40.37-82.654Zm-3.844-1.568a3.6,3.6,0,1,1,1.054-2.545A3.575,3.575,0,0,1,249.768,50.194Z" transform="translate(-202.556 -40.051)" fill="#2a7818"></path></g></g><g id="Group_318" data-name="Group 318" transform="translate(30.863 94.846)"><g id="Group_317" data-name="Group 317"><path id="Path_14164" data-name="Path 14164" d="M157.11,474.509l-.755,1.851.749-1.854a2,2,0,0,0-1.5,3.708l.062.024a2,2,0,1,0,1.443-3.73Z" transform="translate(-154.355 -474.36)" fill="#2a7818"></path></g></g><g id="Group_320" data-name="Group 320" transform="translate(67.568 3.55)"><g id="Group_319" data-name="Group 319"><path id="Path_14165" data-name="Path 14165" d="M340.707,17.912l-.035-.014a2,2,0,1,0-1.485,3.713l.023.009a2,2,0,1,0,1.5-3.708Z" transform="translate(-337.929 -17.754)" fill="#2a7818"></path></g></g></g></svg>