<svg xmlns="http://www.w3.org/2000/svg" width="95.065" height="123.876" viewBox="0 0 95.065 123.876"><g id="_004-dress" data-name="004-dress" opacity="0.16"><g id="Group_306" data-name="Group 306" transform="translate(0)"><g id="Group_305" data-name="Group 305"><path id="Path_14153" data-name="Path 14153" d="M154.489,106.806a108.853,108.853,0,0,0-9.2-28.574A76.143,76.143,0,0,0,133.3,60.493a53.582,53.582,0,0,0-12.574-10.33c9.82-15.372,10.108-29.3,10.108-29.444a10.74,10.74,0,0,0-4.356-8.467V2.419a2.419,2.419,0,1,0-4.839,0V9.9a14.359,14.359,0,0,0-3.605-.459,13.26,13.26,0,0,0-10.985,5.5,13.259,13.259,0,0,0-10.985-5.5,14.361,14.361,0,0,0-3.619.462V2.419a2.419,2.419,0,1,0-4.839,0v9.843a10.738,10.738,0,0,0-4.343,8.457c0,.143.288,14.087,10.123,29.468A53.643,53.643,0,0,0,80.852,60.493,76.153,76.153,0,0,0,68.862,78.232a108.846,108.846,0,0,0-9.2,28.574,6.971,6.971,0,0,0,4.449,7.822l8.288,3.059q1.161.429,2.331.825c.025.009.052.017.077.026a100.1,100.1,0,0,0,21.613,4.768,2.429,2.429,0,0,0,.356.035,100.042,100.042,0,0,0,44.979-5.654l8.288-3.059A6.97,6.97,0,0,0,154.489,106.806ZM88.1,20.72a6.093,6.093,0,0,1,3.057-5.069A2.4,2.4,0,0,0,91.4,15.5a9.229,9.229,0,0,1,4.661-1.224c4.2,0,7.687,2.653,7.946,6.041a3.048,3.048,0,0,0,6.078,0c.259-3.387,3.749-6.04,7.945-6.04a9.243,9.243,0,0,1,4.6,1.191,2.419,2.419,0,0,0,.342.208,6.078,6.078,0,0,1,3.015,5.039c0,.134-.549,13.681-10.069,27.946-.119.179-.239.357-.361.536a19.533,19.533,0,0,1-5.808,1.762,21.562,21.562,0,0,0,1.529-2.3,18.175,18.175,0,0,0,1.708-3.955,2.419,2.419,0,1,0-4.645-1.357,15.113,15.113,0,0,1-2.948,5.312,14.542,14.542,0,0,1-1.472,1.542,2.411,2.411,0,0,0-.51.6A19.517,19.517,0,0,1,98.529,49.2c-.122-.179-.241-.358-.361-.536C88.649,34.4,88.1,20.849,88.1,20.72Zm60.265,89.369-8.288,3.059c-.392.145-.786.281-1.179.421-1.207-5.18-4.706-18.372-11.062-28.575a2.42,2.42,0,0,0-4.108,2.559c6.087,9.772,9.492,22.963,10.546,27.526a95.407,95.407,0,0,1-35.028,3.635,29.257,29.257,0,0,1,2.805-11.474,2.42,2.42,0,1,0-4.346-2.13,34.062,34.062,0,0,0-3.28,13.086,95.236,95.236,0,0,1-16.146-3.608c1.2-6.847,5.908-29.746,17.091-42.578a2.42,2.42,0,0,0-3.648-3.179c-11.712,13.439-16.641,36.093-18.083,44.158l-7.856-2.9a2.141,2.141,0,0,1-1.365-2.4C68.612,84.963,77.49,71.389,84.2,64A47.23,47.23,0,0,1,96.906,53.779a24.382,24.382,0,0,0,20.31-.015c4.616,2.378,25.342,15.064,32.514,53.92A2.142,2.142,0,0,1,148.365,110.088Z" transform="translate(-59.541)" fill="#2a7818"></path></g></g><g id="Group_308" data-name="Group 308" transform="translate(57.489 75.183)"><g id="Group_307" data-name="Group 307"><path id="Path_14154" data-name="Path 14154" d="M301.943,312.693a2.457,2.457,0,0,0-.138-.452,2.407,2.407,0,0,0-.223-.419,2.315,2.315,0,0,0-.3-.368,2.439,2.439,0,0,0-2.182-.663,2.519,2.519,0,0,0-.455.14,2.451,2.451,0,0,0-.416.223,2.318,2.318,0,0,0-.368.3,2.473,2.473,0,0,0-.3.368,2.4,2.4,0,0,0-.223.419,2.437,2.437,0,0,0-.138.452,2.442,2.442,0,0,0,0,.943,2.435,2.435,0,0,0,.141.452,2.55,2.55,0,0,0,.22.419,2.453,2.453,0,0,0,.67.67,2.608,2.608,0,0,0,.416.22,2.34,2.34,0,0,0,.455.138,2.333,2.333,0,0,0,.943,0,2.261,2.261,0,0,0,.452-.138,2.564,2.564,0,0,0,.419-.22,2.482,2.482,0,0,0,.368-.3,2.31,2.31,0,0,0,.3-.368,2.4,2.4,0,0,0,.223-.419,2.47,2.47,0,0,0,.138-.452,2.387,2.387,0,0,0,.048-.472A2.361,2.361,0,0,0,301.943,312.693Z" transform="translate(-297.152 -310.745)" fill="#2a7818"></path></g></g><g id="Group_310" data-name="Group 310" transform="translate(51.145 34.636)"><g id="Group_309" data-name="Group 309"><path id="Path_14155" data-name="Path 14155" d="M275.722,145.1a2.572,2.572,0,0,0-.138-.452,2.478,2.478,0,0,0-.223-.416,2.315,2.315,0,0,0-.3-.368,2.444,2.444,0,0,0-2.185-.663,2.556,2.556,0,0,0-.452.138,2.425,2.425,0,0,0-1.309,1.309,2.569,2.569,0,0,0-.138.452,2.428,2.428,0,0,0-.046.474,2.4,2.4,0,0,0,.046.472,2.45,2.45,0,0,0,.138.452,2.5,2.5,0,0,0,.223.419,2.6,2.6,0,0,0,.3.368,2.31,2.31,0,0,0,.368.3,2.475,2.475,0,0,0,.416.223,2.584,2.584,0,0,0,.452.138,2.432,2.432,0,0,0,.474.048,2.385,2.385,0,0,0,.472-.048,2.467,2.467,0,0,0,.452-.138,2.412,2.412,0,0,0,.418-.223,2.309,2.309,0,0,0,.368-.3,2.42,2.42,0,0,0,.3-.368,2.509,2.509,0,0,0,.223-.419,2.443,2.443,0,0,0,.138-.452,2.4,2.4,0,0,0,.048-.472A2.441,2.441,0,0,0,275.722,145.1Z" transform="translate(-270.932 -143.157)" fill="#2a7818"></path></g></g></g></svg>