<svg xmlns="http://www.w3.org/2000/svg" width="95.877" height="95.877" viewBox="0 0 95.877 95.877"><g id="_007-social-care" data-name="007-social-care" opacity="0.18"><g id="Group_322" data-name="Group 322" transform="translate(14.348 88.16)"><g id="Group_321" data-name="Group 321"><path id="Path_14166" data-name="Path 14166" d="M82.843,475.551l-2.819-3.971a1.873,1.873,0,1,0-3.054,2.168l2.819,3.971a1.873,1.873,0,1,0,3.054-2.168Z" transform="translate(-76.624 -470.792)" fill="#2a7818"></path></g></g><g id="Group_324" data-name="Group 324" transform="translate(0 29.297)"><g id="Group_323" data-name="Group 323"><path id="Path_14167" data-name="Path 14167" d="M42.173,220.774,39.1,206.151a27.577,27.577,0,0,0-11.663-17.313l-6.551-4.4a6.589,6.589,0,0,0-8.353.853V162.722a6.269,6.269,0,0,0-10.192-4.889A6.239,6.239,0,0,0,0,162.722v29.035a18.139,18.139,0,0,0,3.366,10.556l3.339,4.7a1.873,1.873,0,0,0,3.054-2.168l-3.339-4.7a14.413,14.413,0,0,1-2.675-8.388V162.722a2.524,2.524,0,1,1,5.047,0v23.036a13.084,13.084,0,0,0,3.375,8.785c.093.112.189.222.29.33,1.244,1.318,2.706,2.871,4.083,4.334l1.928,2.052.019.019,2.891,3.076a1.873,1.873,0,1,0,2.73-2.564c-.034-.036-2.226-2.371-4.729-5.031l-4.294-4.57-.032-.035a3.16,3.16,0,0,1,.061-4.141,2.831,2.831,0,0,1,3.686-.471l6.55,4.4A23.851,23.851,0,0,1,35.439,206.92l3.068,14.623a1.873,1.873,0,1,0,3.665-.769Z" transform="translate(-0.001 -156.451)" fill="#2a7818"></path></g></g><g id="Group_326" data-name="Group 326" transform="translate(10.465 82.689)"><g id="Group_325" data-name="Group 325"><path id="Path_14168" data-name="Path 14168" d="M59.293,442.378l-.012-.017a1.873,1.873,0,0,0-3.049,2.175l.012.017a1.873,1.873,0,0,0,3.049-2.175Z" transform="translate(-55.884 -441.575)" fill="#2a7818"></path></g></g><g id="Group_328" data-name="Group 328" transform="translate(53.665 29.297)"><g id="Group_327" data-name="Group 327"><path id="Path_14169" data-name="Path 14169" d="M326.447,157.835a6.269,6.269,0,0,0-10.192,4.889v22.564a6.589,6.589,0,0,0-8.353-.853l-6.551,4.4a27.576,27.576,0,0,0-11.663,17.313l-3.068,14.623a1.872,1.872,0,1,0,3.665.769l3.068-14.623a23.851,23.851,0,0,1,10.088-14.974l6.55-4.4a2.831,2.831,0,0,1,3.686.47,3.16,3.16,0,0,1,.065,4.137l-.035.04-9.023,9.6a1.872,1.872,0,1,0,2.73,2.564c.026-.027,7.677-8.163,8.921-9.481.1-.107.2-.218.29-.33A13.085,13.085,0,0,0,320,185.76V162.724a2.524,2.524,0,0,1,5.047,0v29.035a14.413,14.413,0,0,1-2.675,8.388l-14.148,19.929a1.873,1.873,0,1,0,3.054,2.168l14.148-19.929a18.139,18.139,0,0,0,3.366-10.556V162.724A6.241,6.241,0,0,0,326.447,157.835Z" transform="translate(-286.58 -156.454)" fill="#2a7818"></path></g></g><g id="Group_330" data-name="Group 330" transform="translate(17.488 10.112)"><g id="Group_329" data-name="Group 329"><path id="Path_14170" data-name="Path 14170" d="M147.558,79.778l-3.332-.8v-.6a8.375,8.375,0,0,0,3.585-6.867V67.187a8.374,8.374,0,0,0-13.819-6.37,10.934,10.934,0,0,0-20.264.015,8.374,8.374,0,0,0-13.836,6.354v4.331a8.375,8.375,0,0,0,3.585,6.867v.6l-3.332.8a8.772,8.772,0,0,0-6.756,8.56v3.5a1.873,1.873,0,0,0,1.873,1.873h8.6c-.013.227-.022.455-.022.686v6.733A1.873,1.873,0,0,0,105.718,103h11.256a1.873,1.873,0,0,0,0-3.745h-1.935v-3.87a1.873,1.873,0,1,0-3.745,0v3.87h-3.7V94.393a7.753,7.753,0,0,1,5.965-7.563l5.139-1.231,3.439,7.824a1.873,1.873,0,0,0,1.714,1.119h0a1.872,1.872,0,0,0,1.714-1.119L129,85.61l5.122,1.224a7.752,7.752,0,0,1,5.97,7.565v4.855h-3.7v-3.87a1.873,1.873,0,1,0-3.745,0v3.87h-2.122a1.873,1.873,0,0,0,0,3.745h11.444a1.873,1.873,0,0,0,1.873-1.873V94.4c0-.232-.009-.462-.023-.691h8.629a1.873,1.873,0,0,0,1.873-1.873v-3.5A8.772,8.772,0,0,0,147.558,79.778Zm-8.127-17.227a4.642,4.642,0,0,1,4.626,4.33h-2.6a13.649,13.649,0,0,1-6.279-1.53A4.642,4.642,0,0,1,139.431,62.551Zm-4.636,8.694c0-.091.007-.182.007-.274V69.3a17.4,17.4,0,0,0,6.651,1.323h2.614v.892a4.636,4.636,0,1,1-9.272,0Zm-18.124-6.306h0a7.193,7.193,0,0,1,14.295-1.143l-3.153-1.852a1.872,1.872,0,0,0-2.384.412,8.068,8.068,0,0,1-6.2,2.893h-2.56Zm-8.4-2.387a4.643,4.643,0,0,1,4.256,2.8,13.65,13.65,0,0,1-6.279,1.53h-2.6A4.642,4.642,0,0,1,108.274,62.551Zm-4.636,8.075h2.614a17.4,17.4,0,0,0,6.658-1.326v2.218a4.636,4.636,0,0,1-9.272,0Zm9.045,12.562a11.484,11.484,0,0,0-7.958,6.775h-7.59V88.338a5.039,5.039,0,0,1,3.881-4.917l4.769-1.139a1.873,1.873,0,0,0,1.438-1.821v-.63a8.127,8.127,0,0,0,2.094,0v.534c0,.028,0,.056,0,.084a1.876,1.876,0,0,0,1.522,1.842l2.793.669Zm5.223-2.907a8.787,8.787,0,0,0-1.5-.506l-3.345-.8V78.39a8.45,8.45,0,0,0,1.623-1.483,11.024,11.024,0,0,0,3.222,3.229Zm8.133,2.751-2.191,4.984-2.2-5V81.683a10.976,10.976,0,0,0,4.388.007Zm-2.175-4.869a7.2,7.2,0,0,1-7.193-7.193V68.993h2.56a11.8,11.8,0,0,0,7.957-3.074l3.862,2.269v3.057A7.2,7.2,0,0,1,123.864,78.163Zm5.921,2.124V80.16a11.02,11.02,0,0,0,3.248-3.237,8.449,8.449,0,0,0,1.609,1.467v.584l-3.345.8A8.818,8.818,0,0,0,129.784,80.287Zm20.784,9.676h-7.616a11.482,11.482,0,0,0-7.963-6.771l-.94-.225,2.808-.673a1.874,1.874,0,0,0,1.53-1.844c0-.015,0-.029,0-.044v-.575a8.13,8.13,0,0,0,2.094,0v.63a1.873,1.873,0,0,0,1.438,1.821l4.769,1.139a5.04,5.04,0,0,1,3.881,4.917Z" transform="translate(-93.39 -54)" fill="#2a7818"></path></g></g><g id="Group_332" data-name="Group 332" transform="translate(46.066 55.367)"><g id="Group_331" data-name="Group 331"><path id="Path_14171" data-name="Path 14171" d="M249.2,296.217a1.873,1.873,0,1,0,.549,1.326A1.887,1.887,0,0,0,249.2,296.217Z" transform="translate(-246 -295.67)" fill="#2a7818"></path></g></g><g id="Group_334" data-name="Group 334" transform="translate(46.064)"><g id="Group_333" data-name="Group 333"><path id="Path_14172" data-name="Path 14172" d="M247.866,0a1.873,1.873,0,0,0-1.873,1.873v2.8a1.873,1.873,0,0,0,3.745,0v-2.8A1.873,1.873,0,0,0,247.866,0Z" transform="translate(-245.993)" fill="#2a7818"></path></g></g><g id="Group_336" data-name="Group 336" transform="translate(35.879 3.598)"><g id="Group_335" data-name="Group 335"><path id="Path_14173" data-name="Path 14173" d="M196.76,21.723,194.8,19.761a1.873,1.873,0,1,0-2.647,2.649l1.965,1.962a1.872,1.872,0,1,0,2.647-2.649Z" transform="translate(-191.599 -19.213)" fill="#2a7818"></path></g></g><g id="Group_338" data-name="Group 338" transform="translate(54.257 3.646)"><g id="Group_337" data-name="Group 337"><path id="Path_14174" data-name="Path 14174" d="M294.891,20.017a1.872,1.872,0,0,0-2.648,0l-1.949,1.951a1.873,1.873,0,1,0,2.65,2.647l1.949-1.951A1.873,1.873,0,0,0,294.891,20.017Z" transform="translate(-289.746 -19.469)" fill="#2a7818"></path></g></g></g></svg>