<svg xmlns="http://www.w3.org/2000/svg" width="105.698" height="119.972" viewBox="0 0 105.698 119.972"><g id="_003-save-money" data-name="003-save-money" opacity="0.19"><path id="Path_14147" data-name="Path 14147" d="M194.606,176.316a1.873,1.873,0,0,0-.675-.023,4.474,4.474,0,0,1-3.957-4.436,1.968,1.968,0,0,0-3.936,0,8.419,8.419,0,0,0,6.19,8.106v1.968a1.968,1.968,0,1,0,3.936,0v-1.849a8.4,8.4,0,0,0-1.722-16.628,4.468,4.468,0,1,1,4.468-4.468,1.968,1.968,0,0,0,3.936,0,8.419,8.419,0,0,0-6.682-8.226v-1.791a1.968,1.968,0,1,0-3.936,0v1.911a8.4,8.4,0,0,0,2.214,16.509,4.465,4.465,0,0,1,.163,8.928Zm0,0" transform="translate(-140.364 -110.84)" fill="#2a7818"></path><path id="Path_14148" data-name="Path 14148" d="M104.2,135.028a28.536,28.536,0,1,0,28.536-28.536A28.536,28.536,0,0,0,104.2,135.028Zm28.536-24.6a24.6,24.6,0,1,1-24.6,24.6A24.6,24.6,0,0,1,132.731,110.428Zm0,0" transform="translate(-78.653 -80.296)" fill="#2a7818"></path><path id="Path_14149" data-name="Path 14149" d="M92.676,334.2,77.26,341.48a12.556,12.556,0,0,0-10.7-6.605l-14.231-.391a15.03,15.03,0,0,1-6.468-1.67l-1.448-.75a25.541,25.541,0,0,0-23.658.025l.09-3.28a1.968,1.968,0,0,0-1.913-2.022l-15.6-.43A1.967,1.967,0,0,0,1.3,328.27L.36,362.514a1.968,1.968,0,0,0,1.913,2.022l15.6.43h.054a1.968,1.968,0,0,0,1.968-1.914l.045-1.638L24,359.242a6.954,6.954,0,0,1,5.19-.568L53.4,365.469c.042.013.085.022.128.032a25.912,25.912,0,0,0,5.32.549,26.256,26.256,0,0,0,10.968-2.394,1.828,1.828,0,0,0,.244-.135l35.1-22.7a1.969,1.969,0,0,0,.645-2.621,9.941,9.941,0,0,0-13.128-4ZM4.349,360.656l.834-30.31,11.67.321-.834,30.311Zm63.692-.515A22.312,22.312,0,0,1,54.4,361.664l-24.143-6.777a10.881,10.881,0,0,0-8.112.887l-2.072,1.11.554-20.153A21.632,21.632,0,0,1,42.6,335.558l1.448.751a19.007,19.007,0,0,0,8.169,2.11l14.232.391a8.631,8.631,0,0,1,8.2,6.878l-21.2-.585a1.968,1.968,0,0,0-.109,3.935l23.394.644h.055a1.968,1.968,0,0,0,1.966-1.914,12.488,12.488,0,0,0-.19-2.553l15.811-7.471.046-.022a6.013,6.013,0,0,1,6.8.952Zm0,0" transform="translate(-0.36 -246.077)" fill="#2a7818"></path><path id="Path_14150" data-name="Path 14150" d="M216.139,20.663V1.968a1.968,1.968,0,0,0-3.936,0V20.663a1.968,1.968,0,0,0,3.936,0Zm0,0" transform="translate(-160.092 0)" fill="#2a7818"></path><path id="Path_14151" data-name="Path 14151" d="M276.139,50.823V41.968a1.968,1.968,0,0,0-3.936,0v8.856a1.968,1.968,0,0,0,3.936,0Zm0,0" transform="translate(-205.333 -30.161)" fill="#2a7818"></path><path id="Path_14152" data-name="Path 14152" d="M156.139,50.823V41.968a1.968,1.968,0,0,0-3.936,0v8.856a1.968,1.968,0,1,0,3.936,0Zm0,0" transform="translate(-114.852 -30.161)" fill="#2a7818"></path></g></svg>