<svg xmlns="http://www.w3.org/2000/svg" width="92.437" height="92.438" viewBox="0 0 92.437 92.438"><g id="_010-open-book" data-name="010-open-book" opacity="0.18"><g id="Group_343" data-name="Group 343" transform="translate(0 0)"><g id="Group_342" data-name="Group 342"><path id="Path_14180" data-name="Path 14180" d="M290.3,204.67a1.543,1.543,0,0,0,2.074.673c.091-.046,9.159-4.653,13.631-6.065a1.542,1.542,0,0,0-.931-2.939c-4.711,1.49-13.718,6.065-14.1,6.259A1.541,1.541,0,0,0,290.3,204.67Z" transform="translate(-237.75 -160.832)" fill="#2a7818"></path><path id="Path_14181" data-name="Path 14181" d="M291.673,103.112a1.538,1.538,0,0,0,.7-.168c.091-.046,9.159-4.653,13.631-6.065a1.542,1.542,0,0,0-.93-2.939c-4.711,1.49-13.718,6.065-14.1,6.26a1.54,1.54,0,0,0,.7,2.913Z" transform="translate(-237.75 -76.92)" fill="#2a7818"></path><path id="Path_14182" data-name="Path 14182" d="M90.9,23.11a1.54,1.54,0,0,0-1.541,1.541V84.734a4.628,4.628,0,0,1-4.622,4.622H47.761V85.811a45.4,45.4,0,0,1,13.866-2.617,79.466,79.466,0,0,1,22.624,3,1.541,1.541,0,0,0,2.026-1.462V16.947a1.538,1.538,0,0,0-1.206-1.5s-1.208-.27-3.272-.649a1.541,1.541,0,0,0-.558,3.03c.787.145,1.447.273,1.955.374V82.687a87.006,87.006,0,0,0-21.569-2.574A48.4,48.4,0,0,0,46.28,83.064a36.091,36.091,0,0,0-13.926-2.952A103.818,103.818,0,0,0,9.246,82.752V18.14a101.408,101.408,0,0,1,23.109-2.733A33.4,33.4,0,0,1,44.68,17.946V78.572a1.54,1.54,0,0,0,2.334,1.32c.153-.091,15.417-9.208,28.965-13.724a1.541,1.541,0,0,0,1.054-1.462V1.541A1.543,1.543,0,0,0,74.95.1,163.885,163.885,0,0,0,50.026,12.56a1.541,1.541,0,1,0,1.633,2.613A164.664,164.664,0,0,1,73.951,3.794V63.6c-10.516,3.654-21.5,9.621-26.191,12.292V16.947a1.542,1.542,0,0,0-.852-1.379,35.674,35.674,0,0,0-14.554-3.243A99.99,99.99,0,0,0,7.281,15.467a1.54,1.54,0,0,0-1.117,1.481V84.735A1.54,1.54,0,0,0,7.7,86.275a1.518,1.518,0,0,0,.422-.06,98.965,98.965,0,0,1,24.228-3.021,33.329,33.329,0,0,1,12.325,2.54v3.622H7.7a4.628,4.628,0,0,1-4.622-4.622V24.651a1.541,1.541,0,0,0-3.081,0V84.735a7.712,7.712,0,0,0,7.7,7.7H84.736a7.712,7.712,0,0,0,7.7-7.7V24.651A1.54,1.54,0,0,0,90.9,23.11Z" transform="translate(-0.002 0)" fill="#2a7818"></path><path id="Path_14183" data-name="Path 14183" d="M290.3,153.469a1.542,1.542,0,0,0,2.074.673c.091-.046,9.159-4.653,13.631-6.065a1.542,1.542,0,0,0-.931-2.939c-4.711,1.49-13.718,6.065-14.1,6.259A1.541,1.541,0,0,0,290.3,153.469Z" transform="translate(-237.75 -118.876)" fill="#2a7818"></path><path id="Path_14184" data-name="Path 14184" d="M290.3,255.869a1.543,1.543,0,0,0,2.074.673c.091-.046,9.159-4.653,13.631-6.065a1.542,1.542,0,0,0-.931-2.939c-4.711,1.49-13.718,6.065-14.1,6.259A1.541,1.541,0,0,0,290.3,255.869Z" transform="translate(-237.75 -202.789)" fill="#2a7818"></path><path id="Path_14185" data-name="Path 14185" d="M107.254,154.5c-9.513-2.232-20.324.612-20.778.733a1.541,1.541,0,0,0,.4,3.029,1.567,1.567,0,0,0,.4-.052c.1-.029,10.512-2.767,19.278-.71a1.54,1.54,0,1,0,.7-3Z" transform="translate(-69.927 -125.905)" fill="#2a7818"></path><path id="Path_14186" data-name="Path 14186" d="M107.254,205.7c-9.513-2.231-20.324.612-20.778.733a1.541,1.541,0,0,0,.4,3.029,1.567,1.567,0,0,0,.4-.052c.1-.029,10.512-2.767,19.278-.71a1.54,1.54,0,1,0,.7-3Z" transform="translate(-69.927 -167.865)" fill="#2a7818"></path><path id="Path_14187" data-name="Path 14187" d="M290.3,307.069a1.543,1.543,0,0,0,2.074.673c.091-.046,9.159-4.653,13.631-6.066a1.542,1.542,0,0,0-.931-2.939c-4.711,1.49-13.718,6.065-14.1,6.26A1.541,1.541,0,0,0,290.3,307.069Z" transform="translate(-237.75 -244.745)" fill="#2a7818"></path><path id="Path_14188" data-name="Path 14188" d="M107.254,256.9c-9.513-2.231-20.324.61-20.778.733a1.542,1.542,0,0,0,.4,3.03,1.56,1.56,0,0,0,.4-.054c.1-.029,10.512-2.767,19.278-.71a1.54,1.54,0,1,0,.7-3Z" transform="translate(-69.927 -209.82)" fill="#2a7818"></path><path id="Path_14189" data-name="Path 14189" d="M107.254,359.3c-9.513-2.232-20.324.612-20.778.733a1.542,1.542,0,0,0,.4,3.03,1.563,1.563,0,0,0,.4-.054c.1-.029,10.512-2.767,19.278-.71a1.54,1.54,0,1,0,.7-3Z" transform="translate(-69.927 -293.731)" fill="#2a7818"></path><path id="Path_14190" data-name="Path 14190" d="M107.254,308.1c-9.513-2.232-20.324.61-20.778.733a1.542,1.542,0,0,0,.4,3.03,1.563,1.563,0,0,0,.4-.054c.1-.029,10.512-2.767,19.278-.71a1.54,1.54,0,1,0,.7-3Z" transform="translate(-69.927 -251.773)" fill="#2a7818"></path></g></g></g></svg>