<svg xmlns="http://www.w3.org/2000/svg" width="109.9" height="109.685" viewBox="0 0 109.9 109.685"><g id="_008-interview" data-name="008-interview" opacity="0.18"><path id="Path_14175" data-name="Path 14175" d="M399.172,162a2.146,2.146,0,0,0-3-.458l-4.037,2.968.554-4.979a2.146,2.146,0,0,0-4.266-.475l-1.1,9.846a2.145,2.145,0,0,0,3.4,1.968l0,0,.006,0h0L398.715,165A2.146,2.146,0,0,0,399.172,162Z" transform="translate(-304.178 -123.527)" fill="#2a7818"></path><g id="Group_339" data-name="Group 339" transform="translate(10.289 46.013)"><path id="Path_14176" data-name="Path 14176" d="M50.077,219.164a2.145,2.145,0,0,1-1.917-3.1l.006-.012a2.146,2.146,0,1,1,1.911,3.112Z" transform="translate(-47.934 -214.866)" fill="#2a7818"></path></g><g id="Group_340" data-name="Group 340" transform="translate(0 0)"><path id="Path_14177" data-name="Path 14177" d="M105.734,33.732l-.6-.348,2.173-3.763A19.421,19.421,0,0,0,73.664,10.2l-2.173,3.769-.6-.348a6.429,6.429,0,0,0-8.766,2.349l-9.994,17.3a6.358,6.358,0,0,0-.645,4.864c.01.036.021.071.031.108l-7.639,3.441a3.627,3.627,0,0,1-1.35.458,7.768,7.768,0,0,1-1.52-.781l-2.835-1.637a6.161,6.161,0,0,0,.159-3.714,5.91,5.91,0,0,0-2.767-3.623L28.638,28.4a5.909,5.909,0,0,0-4.521-.588,6.192,6.192,0,0,0-3.788,2.91L15.4,39.262a2.146,2.146,0,0,0,3.718,2.146l4.928-8.537a1.927,1.927,0,0,1,1.176-.909,1.651,1.651,0,0,1,1.266.156l6.932,4a1.649,1.649,0,0,1,.764,1.017,1.922,1.922,0,0,1-.2,1.468l-.512.885-.006.009,0,.01L14.489,72.345a1.816,1.816,0,0,1-2.441.76L5.126,69.11a1.814,1.814,0,0,1-.567-2.494l4.934-8.539A2.146,2.146,0,0,0,5.777,55.93L.842,64.469a6.109,6.109,0,0,0,2.136,8.358l6.926,4a5.885,5.885,0,0,0,2.946.786,6.189,6.189,0,0,0,4.707-2.2l9.1,5.251a4.4,4.4,0,0,1,2.458,3.413,9.277,9.277,0,0,0,4.927,6.506l.7.4L32.407,95.03a7.121,7.121,0,0,0,2.6,9.713l7.79,4.5a7.126,7.126,0,0,0,9.714-2.606l2.335-4.047A6.827,6.827,0,0,0,65.007,96.8a7.531,7.531,0,0,0,7.112-3.733,7.445,7.445,0,0,0,1-4.1A7.512,7.512,0,0,0,80.451,78.59a7.515,7.515,0,0,0,1.14-13.556L77.805,62.85l3.175-5.5,8.339,4.812a6.422,6.422,0,0,0,8.767-2.348l10-17.314a6.43,6.43,0,0,0-2.349-8.765ZM77.382,12.35a15.129,15.129,0,0,1,26.206,15.125l-2.174,3.764-26.2-15.12ZM44.946,105.52l-7.786-4.493a2.823,2.823,0,0,1-1.034-3.85l2.335-4.047,5.963,3.442,6.708,3.872L48.8,104.485a2.83,2.83,0,0,1-3.853,1.034ZM80.625,73.16a3.234,3.234,0,0,1-4.413,1.179l-.049-.027-6.929-4a2.146,2.146,0,0,0-2.145,3.718l8.03,4.633a3.227,3.227,0,1,1-3.231,5.588l-2.365-1.365-.16-.1-.087-.048-5.419-3.127a2.146,2.146,0,1,0-2.145,3.718l5.61,3.237A3.226,3.226,0,0,1,63.989,92.1l-6.267-3.613A2.146,2.146,0,1,0,55.579,92.2L59.386,94.4l.061.036a2.534,2.534,0,1,1-2.532,4.39l-1.75-1.01-.028-.018-.029-.015L46.57,92.852,36.191,86.861a5.083,5.083,0,0,1-2.923-3.884A8.594,8.594,0,0,0,28.8,76.941l-9.01-5.2L36.111,43.5,38.5,44.873l.351.2a7.231,7.231,0,0,0,3.668,1.363,7.714,7.714,0,0,0,3.122-.835l8.444-3.8c.127.086.256.169.389.246L60.9,45.754l-.231.4c-2.122,3.629-4.528,7.741.856,12.223a2.156,2.156,0,0,0,.3.209l11.926,6.88c.018.011.035.024.054.035s.029.014.044.021l5.6,3.231a3.234,3.234,0,0,1,1.181,4.41ZM74.088,60.705,64.129,54.96c-2.35-2-1.941-2.914.24-6.641l.244-.418,12.651,7.3ZM104.366,40.35l-10,17.314a2.155,2.155,0,0,1-2.9.778L81.3,52.576l-.033-.021-.035-.018L56.616,38.33a2.131,2.131,0,0,1-.773-2.9l10-17.31a2.1,2.1,0,0,1,1.29-.984,2.173,2.173,0,0,1,.56-.074,2.1,2.1,0,0,1,1.051.282h0l32.312,18.645c.023.014.044.03.068.044s.037.018.056.027l2.408,1.389a2.138,2.138,0,0,1,.779,2.9Z" transform="translate(0 -0.5)" fill="#2a7818"></path><path id="Path_14178" data-name="Path 14178" d="M329.1,121.354l-3.443-1.988-3.444-1.989a2.146,2.146,0,0,0-2.147,3.717l1.585.915-3.465,6a2.146,2.146,0,1,0,3.717,2.147l3.465-6,1.585.915a2.146,2.146,0,1,0,2.146-3.717Z" transform="translate(-249.66 -92.063)" fill="#2a7818"></path></g></g></svg>