<svg xmlns="http://www.w3.org/2000/svg" width="115.131" height="120.124" viewBox="0 0 115.131 120.124"><g id="_002-energy-management" data-name="002-energy-management" opacity="0.19"><g id="Group_304" data-name="Group 304" transform="translate(0 0)"><path id="Path_14142" data-name="Path 14142" d="M114.982,66.532a51.5,51.5,0,0,0,0-12.94L125.2,41.809a2.346,2.346,0,0,0,.259-2.71L114.987,20.963a2.345,2.345,0,0,0-2.477-1.13L97.2,22.789a51.483,51.483,0,0,0-11.206-6.47L80.9,1.579A2.346,2.346,0,0,0,78.678,0H57.736a2.346,2.346,0,0,0-2.217,1.579l-5.1,14.739a51.509,51.509,0,0,0-11.206,6.47L23.9,19.832a2.345,2.345,0,0,0-2.477,1.13L10.956,39.1a2.346,2.346,0,0,0,.259,2.71L21.432,53.592a51.516,51.516,0,0,0,0,12.94L11.216,78.315a2.346,2.346,0,0,0-.259,2.71L21.428,99.161a2.344,2.344,0,0,0,2.477,1.13l15.313-2.956a51.481,51.481,0,0,0,11.206,6.47l5.1,14.739a2.346,2.346,0,0,0,2.217,1.579H78.679a2.346,2.346,0,0,0,2.217-1.579l5.1-14.739A51.516,51.516,0,0,0,97.2,97.335l15.313,2.956a2.345,2.345,0,0,0,2.477-1.13l10.471-18.136a2.346,2.346,0,0,0-.259-2.71Zm-3.223,28.836L97.033,92.525A2.346,2.346,0,0,0,95.114,93a42.155,42.155,0,0,1-5.647,3.848l-.028.016a42.179,42.179,0,0,1-6.157,2.967,2.346,2.346,0,0,0-1.374,1.422l-4.9,14.175h-17.6l-4.9-14.174a2.345,2.345,0,0,0-1.374-1.422,42.178,42.178,0,0,1-6.158-2.967l-.028-.016A42.147,42.147,0,0,1,41.3,93a2.343,2.343,0,0,0-1.919-.479L24.656,95.368l-8.8-15.242L25.681,68.8a2.346,2.346,0,0,0,.545-1.9,42.124,42.124,0,0,1-.509-6.814v-.032a42.176,42.176,0,0,1,.509-6.817,2.346,2.346,0,0,0-.545-1.9L15.856,40l8.8-15.242L39.382,27.6A2.344,2.344,0,0,0,41.3,27.12a42.158,42.158,0,0,1,5.647-3.848l.028-.016a42.188,42.188,0,0,1,6.157-2.967,2.347,2.347,0,0,0,1.374-1.422l4.9-14.174h17.6l4.9,14.174a2.346,2.346,0,0,0,1.374,1.422,42.177,42.177,0,0,1,6.156,2.967l.028.016a42.2,42.2,0,0,1,5.648,3.849,2.343,2.343,0,0,0,1.919.478l14.726-2.843L120.559,40l-9.825,11.331a2.346,2.346,0,0,0-.545,1.9,42.146,42.146,0,0,1,.509,6.818v.032a42.139,42.139,0,0,1-.509,6.813,2.348,2.348,0,0,0,.545,1.9l9.825,11.331Z" transform="translate(-10.642 0)" fill="#2a7818"></path><path id="Path_14143" data-name="Path 14143" d="M204.326,139.745h-17.9V117.794a2.361,2.361,0,0,0-4.409-1.118l-20.5,37.81a2.369,2.369,0,0,0,2.063,3.465h18.152v21.159a2.361,2.361,0,0,0,4.4,1.126l20.249-37.018a2.369,2.369,0,0,0-2.058-3.472Zm-17.9,30.186V155.6a2.346,2.346,0,0,0-2.346-2.346H167.519l14.212-26.214v15.046a2.346,2.346,0,0,0,2.346,2.346h16.291Z" transform="translate(-125.907 -88.39)" fill="#2a7818"></path><path id="Path_14144" data-name="Path 14144" d="M337.444,144.257h1.647a2.346,2.346,0,1,0,0-4.692h-7.744A2.346,2.346,0,0,0,329,141.911v7.447a2.346,2.346,0,0,0,4.692,0v-2.1a25.1,25.1,0,0,1,3.866,35.872,2.346,2.346,0,0,0,3.6,3.005,29.8,29.8,0,0,0-3.719-41.877Z" transform="translate(-254.308 -106.821)" fill="#2a7818"></path><path id="Path_14145" data-name="Path 14145" d="M119.759,187.185a2.346,2.346,0,0,0-2.346,2.346v1.883A25.1,25.1,0,0,1,120.7,150.62a2.346,2.346,0,1,0-2.407-4.027,29.791,29.791,0,0,0-4.329,48.039h-1.946a2.346,2.346,0,1,0,0,4.692h7.744a2.346,2.346,0,0,0,2.346-2.346v-7.447A2.346,2.346,0,0,0,119.759,187.185Z" transform="translate(-81.908 -111.945)" fill="#2a7818"></path><path id="Path_14146" data-name="Path 14146" d="M333.826,351.108a2.345,2.345,0,1,0-.963,2.909A2.365,2.365,0,0,0,333.826,351.108Z" transform="translate(-254.546 -267.65)" fill="#2a7818"></path></g></g></svg>