<svg xmlns="http://www.w3.org/2000/svg" width="107.666" height="124.32" viewBox="0 0 107.666 124.32"><g id="_001-science" data-name="001-science" opacity="0.19"><g id="Group_300" data-name="Group 300" transform="translate(0 0)"><path id="Path_14133" data-name="Path 14133" d="M387.565,133.971a6.547,6.547,0,1,0,6.547,6.547A6.554,6.554,0,0,0,387.565,133.971Zm0,9.468a2.921,2.921,0,1,1,2.921-2.921A2.924,2.924,0,0,1,387.565,143.439Z" transform="translate(-297.247 -101.588)" fill="#2a7818"></path><path id="Path_14134" data-name="Path 14134" d="M85.679,133.252a6.547,6.547,0,1,0,6.547,6.547A6.554,6.554,0,0,0,85.679,133.252Zm0,9.468A2.921,2.921,0,1,1,88.6,139.8,2.924,2.924,0,0,1,85.679,142.72Z" transform="translate(-68.332 -101.043)" fill="#2a7818"></path><path id="Path_14135" data-name="Path 14135" d="M223.945,222.338a7.979,7.979,0,1,0,7.979-7.979A7.988,7.988,0,0,0,223.945,222.338Zm12.332,0a4.353,4.353,0,1,1-4.353-4.353A4.358,4.358,0,0,1,236.277,222.338Z" transform="translate(-178.141 -162.545)" fill="#2a7818"></path><path id="Path_14136" data-name="Path 14136" d="M235.192,394.388a6.547,6.547,0,1,0,6.547,6.547A6.554,6.554,0,0,0,235.192,394.388Zm0,9.468a2.921,2.921,0,1,1,2.921-2.921A2.924,2.924,0,0,1,235.192,403.856Z" transform="translate(-181.705 -299.058)" fill="#2a7818"></path><path id="Path_14137" data-name="Path 14137" d="M148.205,91.3a59.34,59.34,0,0,1,13.156-3.32l-.392-3.6a61.836,61.836,0,0,0-13.359,3.3c-1.388-7.569-5.071-21.908-12.775-21.908-7.68,0-11.362,14.25-12.757,21.816a61.665,61.665,0,0,0-13.256-3.327l-.409,3.6a59.174,59.174,0,0,1,13.067,3.355c-.469,3.207-.813,6.6-1.024,10.1-2.969,1.941-5.765,3.939-8.337,5.956a59.047,59.047,0,0,1-9.378-9.588l-2.916,2.155a61.518,61.518,0,0,0,9.439,9.756c-5.816,4.921-16.351,15.178-12.548,21.837,3.811,6.675,18.077,2.785,25.36.229a62.421,62.421,0,0,0,3.677,13.042l3.333-1.428a59.92,59.92,0,0,1-3.564-12.9c3.015-1.186,6.127-2.57,9.274-4.127,3.171,1.587,6.3,3,9.343,4.205a58.468,58.468,0,0,1-3.721,13.2l3.314,1.471a60.978,60.978,0,0,0,3.849-13.374c7.26,2.578,21.438,6.5,25.271-.14s-6.653-16.948-12.444-21.9a61.335,61.335,0,0,0,9.521-9.76l-2.909-2.164a58.864,58.864,0,0,1-9.455,9.587c-2.573-2.037-5.373-4.057-8.346-6.02C149.009,97.866,148.669,94.492,148.205,91.3Zm-2.791,7.637c-2.12-1.3-4.24-2.529-6.525-3.768,1.978-.926,3.932-1.777,5.842-2.546C145.011,94.658,145.239,96.768,145.414,98.936Zm.278,17.025c-3.541,2.247-7.212,4.34-10.886,6.222-3.6-1.867-7.258-3.967-10.827-6.255-.195-4.183-.192-8.419,0-12.572,3.489-2.211,7.164-4.314,10.887-6.218,3.7,1.915,7.36,4.031,10.829,6.252C145.886,107.553,145.886,111.806,145.692,115.961ZM127.51,80.429c2.479-8.141,5.41-11.041,7.327-11.041,2.923,0,5.7,5.7,7.327,11.041a72.851,72.851,0,0,1,2,8.527c-3.016,1.185-6.134,2.569-9.283,4.123-3.171-1.584-6.312-2.994-9.348-4.2A72.6,72.6,0,0,1,127.51,80.429Zm-2.558,12.118c1.929.785,3.9,1.656,5.9,2.6-2.165,1.16-4.314,2.383-6.592,3.767C124.437,96.728,124.668,94.6,124.951,92.547ZM120.262,105.8c-.073,2.7-.068,5.2,0,7.65-1.835-1.268-3.59-2.554-5.247-3.844Q117.5,107.688,120.262,105.8Zm-7.175,24.715c-8.3,1.885-12.271.777-13.221-.887-1.45-2.539,2.126-7.78,5.955-11.838a72.547,72.547,0,0,1,6.293-5.86c2.573,2.037,5.376,4.063,8.348,6.028.212,3.487.556,6.866,1.021,10.059a73.025,73.025,0,0,1-8.4,2.5Zm11.863-3.82c-.279-2.034-.508-4.144-.685-6.311,2.274,1.4,4.322,2.572,6.523,3.766C128.813,125.078,126.862,125.928,124.95,126.7Zm13.866-2.526c2.236-1.2,4.318-2.383,6.592-3.766-.178,2.189-.409,4.32-.692,6.37C142.785,125.988,140.813,125.118,138.816,124.171Zm25-6.242c5.811,6.217,6.857,10.206,5.9,11.866-1.461,2.532-7.79,2.086-13.226.825a72.816,72.816,0,0,1-8.307-2.51c.469-3.2.816-6.6,1.03-10.107,2.967-1.944,5.767-3.947,8.339-5.963A72.64,72.64,0,0,1,163.814,117.929Zm-9.155-8.227c-1.659,1.278-3.414,2.552-5.249,3.808.068-2.454.074-4.955,0-7.65Q152.163,107.759,154.659,109.7Z" transform="translate(-81.053 -49.866)" fill="#2a7818"></path><path id="Path_14138" data-name="Path 14138" d="M38.076,33.173,88.283,4.187l24.651,14.231,1.813-3.14L88.283,0,34.45,31.08V93.24L58.3,107.007l1.813-3.14L38.076,91.147Z" transform="translate(-34.45 0)" fill="#2a7818"></path><path id="Path_14139" data-name="Path 14139" d="M202.689,70.785l-1.813,3.14,22.383,12.923v57.973l-50.207,28.987-25-14.434-1.813,3.14,26.811,15.481,53.833-31.08V84.755Z" transform="translate(-119.218 -53.675)" fill="#2a7818"></path></g><g id="Group_303" data-name="Group 303" transform="translate(8.757 60.347)"><g id="Group_301" data-name="Group 301" transform="translate(86.558)"><path id="Path_14140" data-name="Path 14140" d="M428.775,249.66H432.4v3.626h-3.626Z" transform="translate(-428.775 -249.66)" fill="#2a7818"></path></g><g id="Group_302" data-name="Group 302"><path id="Path_14141" data-name="Path 14141" d="M70.68,249.66h3.626v3.626H70.68Z" transform="translate(-70.68 -249.66)" fill="#2a7818"></path></g></g></g></svg>