<svg xmlns="http://www.w3.org/2000/svg" width="99.759" height="99.76" viewBox="0 0 99.759 99.76"><g id="_009-balance" data-name="009-balance" opacity="0.18"><g id="Group_341" data-name="Group 341" transform="translate(0 0)"><path id="Path_14179" data-name="Path 14179" d="M99.595,60.83l.015,0L83.231,25.088,87.2,23.111l-1.486-2.976-3.872,1.929-.524-1.142a1.663,1.663,0,0,0-3.023,0l-.467,1.021a21.388,21.388,0,0,0-8.995-1.99H54.87V16.627h3.325V13.3H55.337l1.2-4.783a6.855,6.855,0,1,0-13.3,0l1.2,4.783H41.568v3.325h3.325v3.325H30.936a21.388,21.388,0,0,0-9,2l-.467-1.021a1.663,1.663,0,0,0-3.023,0l-.524,1.142-3.872-1.937L12.56,23.111,16.532,25.1.153,60.825A1.624,1.624,0,0,0,0,61.518,11.652,11.652,0,0,0,11.64,73.157H28.267A11.652,11.652,0,0,0,39.906,61.518a1.625,1.625,0,0,0-.166-.688L23.316,24.958a18.085,18.085,0,0,1,7.62-1.681H44.894v60.83l-5.676,5.676H33.255A8.323,8.323,0,0,0,24.942,98.1,1.663,1.663,0,0,0,26.6,99.759H73.159A1.663,1.663,0,0,0,74.821,98.1a8.323,8.323,0,0,0-8.313-8.313H60.546L54.87,84.107V23.277H68.836a18.085,18.085,0,0,1,7.62,1.681L60.009,60.825a1.624,1.624,0,0,0-.151.693A11.652,11.652,0,0,0,71.5,73.157H88.123A11.652,11.652,0,0,0,99.761,61.518,1.619,1.619,0,0,0,99.595,60.83Zm-71.328,9H11.64a8.327,8.327,0,0,1-8.147-6.651H36.414A8.326,8.326,0,0,1,28.267,69.832Zm7.386-9.976H4.255L19.528,26.535a1.642,1.642,0,0,0,.851,0ZM47.1,4.682a3.638,3.638,0,0,1,5.563,0,3.51,3.51,0,0,1,.643,3.029l-1.4,5.59H47.855l-1.4-5.59A3.51,3.51,0,0,1,47.1,4.682Zm1.119,15.27V16.627h3.325v3.325Zm3.325,3.325V83.133H48.219V23.277ZM66.508,93.109a5,5,0,0,1,4.7,3.325H28.551a5,5,0,0,1,4.7-3.325ZM55.844,89.783H43.919l3.325-3.325h5.274ZM79.38,26.54a1.135,1.135,0,0,0,.841-.035L95.508,59.856h-31.4Zm8.742,43.292H71.5a8.327,8.327,0,0,1-8.147-6.651H96.27A8.326,8.326,0,0,1,88.123,69.832Z" transform="translate(-0.002 0.001)" fill="#2a7818"></path></g></g></svg>