<?xml version="1.0" encoding="utf-8"?>
<!-- Generator: Adobe Illustrator 21.0.0, SVG Export Plug-In . SVG Version: 6.00 Build 0)  -->
<svg version="1.1" id="Layer_1" xmlns="http://www.w3.org/2000/svg" xmlns:xlink="http://www.w3.org/1999/xlink" x="0px" y="0px"
	 viewBox="0 0 636.4 455" style="enable-background:new 0 0 636.4 455;" xml:space="preserve">
<style type="text/css">
	.st0{enable-background:new    ;}
	.st1{fill:#7375B7;}
	.st2{opacity:0.7;fill:#ABDFE9;enable-background:new    ;}
	.st3{opacity:0.7;fill:#898DC5;enable-background:new    ;}
	.st4{fill:#FFFFFF;}
</style>
<g class="st0">
	<path class="st1" d="M8.6,429.5H0v-3.1h20.8v3.1h-8.6v25H8.6V429.5z"/>
	<path class="st1" d="M38.4,445.7l-2.9,8.8h-3.8l9.6-28.1h4.4l9.6,28.1h-3.9l-3-8.8H38.4z M47.6,442.8l-2.8-8.1
		c-0.6-1.8-1-3.5-1.5-5.1h-0.1c-0.4,1.7-0.9,3.4-1.4,5.1l-2.8,8.1H47.6z"/>
	<path class="st1" d="M72.3,426.4H76v25.1h12v3H72.3V426.4z"/>
	<path class="st1" d="M105,426.4h3.6v13.6h0.1c0.8-1.1,1.5-2.1,2.2-3l8.6-10.6h4.5l-10.2,11.9l11,16.2h-4.3l-9.3-13.8l-2.7,3.1v10.7
		H105V426.4z"/>
	<path class="st1" d="M166.8,454.5v-11.9l-8.9-16.2h4.1l4,7.8c1.1,2.1,1.9,3.8,2.8,5.8h0.1c0.8-1.8,1.8-3.7,2.8-5.8l4-7.8h4.1
		l-9.4,16.2v12H166.8z"/>
	<path class="st1" d="M218.6,440.1c0,9.7-5.9,14.8-13.1,14.8c-7.4,0-12.6-5.8-12.6-14.3c0-8.9,5.6-14.8,13.1-14.8
		C213.6,425.9,218.6,431.8,218.6,440.1z M196.8,440.6c0,6,3.3,11.4,9,11.4c5.8,0,9-5.3,9-11.7c0-5.6-2.9-11.4-9-11.4
		C199.8,428.9,196.8,434.4,196.8,440.6z"/>
	<path class="st1" d="M239.9,426.4V443c0,6.3,2.8,9,6.6,9c4.2,0,6.8-2.8,6.8-9v-16.7h3.7v16.4c0,8.6-4.5,12.2-10.6,12.2
		c-5.8,0-10.1-3.3-10.1-12v-16.6H239.9z"/>
	<path class="st1" d="M276.3,426.7c1.8-0.4,4.5-0.6,7-0.6c3.9,0,6.4,0.7,8.1,2.3c1.4,1.3,2.2,3.2,2.2,5.3c0,3.7-2.3,6.2-5.3,7.2v0.1
		c2.2,0.8,3.5,2.8,4.1,5.7c0.9,3.9,1.6,6.6,2.2,7.7h-3.8c-0.5-0.8-1.1-3.2-1.9-6.7c-0.8-3.9-2.3-5.3-5.6-5.5h-3.4v12.2h-3.6V426.7z
		 M279.9,439.6h3.7c3.9,0,6.3-2.1,6.3-5.3c0-3.6-2.6-5.2-6.5-5.3c-1.8,0-3,0.2-3.6,0.3V439.6z"/>
	<path class="st1" d="M337.2,426.4v11.8h13.6v-11.8h3.7v28.1h-3.7v-13.2h-13.6v13.2h-3.6v-28.1H337.2z"/>
	<path class="st1" d="M388.3,441.3h-10.9v10.1h12.2v3h-15.8v-28.1h15.2v3h-11.6v8.9h10.9V441.3z"/>
	<path class="st1" d="M411.8,445.7l-2.9,8.8h-3.8l9.6-28.1h4.4l9.6,28.1h-3.9l-3-8.8H411.8z M421,442.8l-2.8-8.1
		c-0.6-1.8-1-3.5-1.5-5.1h-0.1c-0.4,1.7-0.9,3.4-1.4,5.1l-2.8,8.1H421z"/>
	<path class="st1" d="M445.7,426.7c1.8-0.4,4.5-0.6,7-0.6c3.9,0,6.4,0.7,8.1,2.3c1.4,1.3,2.2,3.2,2.2,5.3c0,3.7-2.3,6.2-5.3,7.2v0.1
		c2.2,0.8,3.5,2.8,4.1,5.7c0.9,3.9,1.6,6.6,2.2,7.7h-3.8c-0.5-0.8-1.1-3.2-1.9-6.7c-0.8-3.9-2.3-5.3-5.6-5.5h-3.4v12.2h-3.6V426.7z
		 M449.4,439.6h3.7c3.9,0,6.3-2.1,6.3-5.3c0-3.6-2.6-5.2-6.5-5.3c-1.8,0-3,0.2-3.6,0.3V439.6z"/>
	<path class="st1" d="M486.9,429.5h-8.6v-3.1h20.8v3.1h-8.6v25h-3.7V429.5z"/>
	<path class="st1" d="M561.1,440.1c0,9.7-5.9,14.8-13.1,14.8c-7.4,0-12.6-5.8-12.6-14.3c0-8.9,5.6-14.8,13.1-14.8
		C556.2,425.9,561.1,431.8,561.1,440.1z M539.3,440.6c0,6,3.3,11.4,9,11.4c5.8,0,9-5.3,9-11.7c0-5.6-2.9-11.4-9-11.4
		C542.3,428.9,539.3,434.4,539.3,440.6z"/>
	<path class="st1" d="M582.4,426.4V443c0,6.3,2.8,9,6.6,9c4.2,0,6.8-2.8,6.8-9v-16.7h3.7v16.4c0,8.6-4.5,12.2-10.6,12.2
		c-5.8,0-10.1-3.3-10.1-12v-16.6H582.4z"/>
	<path class="st1" d="M624.1,429.5h-8.6v-3.1h20.8v3.1h-8.6v25h-3.7V429.5z"/>
</g>
<g>
	<path class="st2" d="M506.7,266.1c-5.7,44.2-44.4,84.6-86.4,90.3l-38.1,5.1l-52.9,7.1c-20.8,2.8-48.6,14.2-59.5,26.6
		c-26,29.4-9.2-74-6.3-96.4l15.2-117.9c5.7-44.2,44.4-84.6,86.4-90.3L456,78.4c42-5.6,71.5,25.6,65.9,69.8L506.7,266.1z"/>
	<path class="st3" d="M142.7,188.4c5.7,44.2,44.4,84.7,86.4,90.3l38.1,5.1l52.9,7.1c20.8,2.8,48.6,14.2,59.5,26.6
		c26,29.4,9.2-74,6.3-96.4l-15.2-117.9C365,59,326.3,18.6,284.3,12.9L193.4,0.7c-42-5.7-71.5,25.6-65.9,69.8L142.7,188.4z"/>
	<path class="st4" d="M233.5,183h-20.8v60.3h-15.6V183h-20.8v-12.7h57.2L233.5,183L233.5,183z"/>
	<path class="st4" d="M299.8,170.3l-23.9,47v26.1h-15.6v-25.8l-23.2-47.2h17.8l12.3,27.9c0.3,0.6,0.8,2.5,1.7,5.8h0.2
		c0.4-2.2,0.9-4.1,1.6-5.6l12.6-28.1L299.8,170.3L299.8,170.3z"/>
	<path class="st4" d="M370.4,243.4h-15.6v-30.1h-31.1v30.1h-15.6v-73h15.6v29.5h31.1v-29.5h15.6V243.4z"/>
	<path class="st1" d="M392.7,208c0-14.7,4.3-26.6,12.9-35.9c8.6-9.2,19.9-13.8,34-13.8c13.4,0,24.2,4.5,32.3,13.4
		c8.2,8.9,12.3,20.4,12.3,34.4c0,14.6-4.2,26.5-12.7,35.5c-8.5,9.1-19.6,13.6-33.4,13.6c-4.6,0-14.9-0.3-21.9-4.9
		c-4.2-2.8-7.3-4.5-10.9-8.3C396.9,233.3,392.7,221.9,392.7,208z M413.7,207c0,9.1,2.2,16.6,6.6,22.4c4.4,5.8,10.4,8.7,18.1,8.7
		c7.8,0,13.9-2.8,18.3-8.3s6.5-13,6.5-22.4c0-9.8-2.1-17.5-6.4-23.1c-4.2-5.7-10.2-8.5-17.9-8.5c-7.8,0-14,2.9-18.5,8.7
		C415.9,190.2,413.7,197.7,413.7,207z"/>
</g>
</svg>
