<svg xmlns="http://www.w3.org/2000/svg" width="21.912" height="17.178" viewBox="0 0 21.912 17.178"><g id="mail-black-envelope-symbol" transform="translate(0 -60.651)"><path id="Path_3622" data-name="Path 3622" d="M21.912,74.966a2.937,2.937,0,0,1-.352,1.377l-6.919-8.091,6.844-6.259a2.936,2.936,0,0,1,.427,1.521ZM10.956,69.721l9.523-8.709a2.615,2.615,0,0,0-1.305-.361H2.739a2.605,2.605,0,0,0-1.3.361Zm2.655-.527-2.2,2.017a.665.665,0,0,1-.9,0L8.3,69.194,1.295,77.389a2.621,2.621,0,0,0,1.444.44H19.173a2.621,2.621,0,0,0,1.444-.44ZM.427,61.993A2.937,2.937,0,0,0,0,63.514V74.966a2.928,2.928,0,0,0,.352,1.377l6.918-8.093Z" fill="#0bcf7a"></path></g></svg>