<svg xmlns="http://www.w3.org/2000/svg" id="Page-1" width="50.365" height="50.364" viewBox="0 0 50.365 50.364"><g id="_001---Degree" data-name="001---Degree" transform="translate(0 0)"><path id="Shape" d="M49.249,8.493,25.754.1a1.722,1.722,0,0,0-1.147,0L1.118,8.493a1.679,1.679,0,0,0,0,3.159l11.475,4.1v5.234c0,3.264,11.3,3.358,12.591,3.358s12.591-.094,12.591-3.358V15.752l2.518-.894v1.931a1.679,1.679,0,0,0,1.679,1.679h1.679a1.679,1.679,0,0,0,1.679-1.679V14.27a2.483,2.483,0,0,0-.274-1.117l4.2-1.5a1.679,1.679,0,0,0,0-3.159ZM36.1,19.139c-3.2-1.456-9.935-1.511-10.912-1.511s-7.715.055-10.912,1.511V11.826c.5-.646,4.462-1.753,10.912-1.753S35.593,11.18,36.1,11.826ZM25.184,22.664c-6.212,0-10.112-1.026-10.842-1.679.729-.653,4.632-1.679,10.842-1.679S35.3,20.333,36.026,20.986C35.3,21.639,31.4,22.664,25.184,22.664Zm15.5-9.733L37.775,13.97V11.752c0-3.264-11.3-3.358-12.591-3.358s-12.591.094-12.591,3.358v2.217L1.68,10.073,25.2,1.679l16.777,6v4.232A2.523,2.523,0,0,0,40.687,12.931Zm2.964,3.857H41.972V14.27a.839.839,0,1,1,1.679,0Zm0-4.916v-3.6l5.037,1.8Z" transform="translate(-0.001 -0.001)" fill="#fff"></path><path id="Shape-2" data-name="Shape" d="M47.847,31a.82.82,0,0,0-.15.013,140.552,140.552,0,0,1-22.514,1.665A140.551,140.551,0,0,1,2.669,31.013.946.946,0,0,0,2.518,31C1.931,31,0,31.666,0,40.234s1.931,9.234,2.518,9.234a.956.956,0,0,0,.15-.015,131.284,131.284,0,0,1,17.292-1.576l-1.639,3.93a1.672,1.672,0,0,0,2.219,2.155l.642-.274.278.639A1.67,1.67,0,0,0,23,55.343h.021A1.673,1.673,0,0,0,24.564,54.3l1.458-3.49,1.453,3.477a1.679,1.679,0,0,0,1.544,1.061h.025a1.667,1.667,0,0,0,1.538-1.007l.28-.644.632.271A1.673,1.673,0,0,0,33.718,51.8l-1.607-3.853A127.988,127.988,0,0,1,47.7,49.456a.82.82,0,0,0,.146.011c.588,0,2.518-.666,2.518-9.234S48.434,31,47.847,31ZM27.869,34.332a17.678,17.678,0,0,1,.605,3.926,5.825,5.825,0,0,0-5.843.543,22.678,22.678,0,0,0-.577-4.476q1.525.032,3.129.032C26.1,34.358,26.991,34.348,27.869,34.332ZM26.022,47.788a4.2,4.2,0,1,1,4.2-4.2A4.2,4.2,0,0,1,26.022,47.788ZM2.518,33.1a23.543,23.543,0,0,1,.839,7.135,23.543,23.543,0,0,1-.839,7.135,23.543,23.543,0,0,1-.839-7.135A23.543,23.543,0,0,1,2.518,33.1Zm1.7,14.413a23.442,23.442,0,0,0,.823-7.278,23.429,23.429,0,0,0-.823-7.279A147.281,147.281,0,0,0,20.3,34.283a21.608,21.608,0,0,1,.685,5.951c0,.122,0,.238-.005.354a5.815,5.815,0,0,0-.27,5.5l-.037.089A146.2,146.2,0,0,0,4.214,47.513Zm18.792,6.153-.613-1.41a.839.839,0,0,0-1.1-.437l-1.413.625,1.968-4.719a5.87,5.87,0,0,0,2.965,1.62Zm7.745-1.847a.839.839,0,0,0-1.1.437l-.621,1.4-1.8-4.309A5.876,5.876,0,0,0,30.2,47.72l1.964,4.7Zm16.928-4.071a135.946,135.946,0,0,0-16.285-1.511l-.06-.144a5.842,5.842,0,0,0-1.132-6.62,23.364,23.364,0,0,0-.6-5.172,140.116,140.116,0,0,0,18.075-1.58c.389.661,1.007,3.278,1.007,7.514S48.064,47.085,47.679,47.746Z" transform="translate(0 -4.979)" fill="#fff"></path></g></svg>