<svg xmlns="http://www.w3.org/2000/svg" width="16.407" height="12.427" viewBox="0 0 16.407 12.427"><g id="youtube" transform="translate(0 0)"><path id="Path_48" data-name="Path 48" d="M195.556,108.589l-3.625-1.983a.666.666,0,0,0-.985.584v3.932a.665.665,0,0,0,.981.586l3.625-1.949a.666.666,0,0,0,0-1.171Zm-3.649,2.039v-2.939l2.709,1.482Zm0,0" transform="translate(-184.827 -103.11)" fill="#0bcf7a"></path><path id="Path_49" data-name="Path 49" d="M16.285,2.933V2.925a3.752,3.752,0,0,0-.723-1.9A2.67,2.67,0,0,0,13.793.192l-.081-.01-.029,0C11.514.022,8.238,0,8.206,0H8.2C8.167,0,4.891.022,2.7.179l-.029,0L2.6.192a2.6,2.6,0,0,0-1.758.855,3.932,3.932,0,0,0-.717,1.87l0,.017C.115,2.988,0,4.3,0,5.609V6.837C0,8.15.115,9.459.12,9.514v.008A3.715,3.715,0,0,0,.841,11.4a2.724,2.724,0,0,0,1.827.817c.067.008.124.014.163.021l.038.005c1.252.119,5.179.178,5.345.18h.01c.033,0,3.308-.022,5.477-.179l.029,0,.092-.01a2.542,2.542,0,0,0,1.743-.834,3.932,3.932,0,0,0,.717-1.87l0-.017c0-.055.121-1.363.121-2.676V5.609c0-1.313-.116-2.621-.121-2.676Zm-.841,3.9c0,1.216-.106,2.467-.116,2.582a3.052,3.052,0,0,1-.472,1.332,1.581,1.581,0,0,1-1.135.526l-.1.012c-2.1.152-5.25.175-5.4.176-.163,0-4.032-.062-5.246-.174-.062-.01-.129-.018-.2-.026a1.8,1.8,0,0,1-1.23-.514l-.009-.01a2.77,2.77,0,0,1-.462-1.319C1.07,9.336.961,8.07.961,6.837V5.609c0-1.214.106-2.465.116-2.582A2.99,2.99,0,0,1,1.548,1.7a1.659,1.659,0,0,1,1.159-.548l.078-.009C4.914.985,8.089.962,8.2.961s3.287.024,5.4.176l.085.01a1.722,1.722,0,0,1,1.178.533l0,0a2.814,2.814,0,0,1,.462,1.338c.007.082.117,1.351.117,2.587Zm0,0" transform="translate(0.001 0)" fill="#0bcf7a"></path></g></svg>